<svg xmlns="http://www.w3.org/2000/svg" width="165.666" height="311.065" viewBox="0 0 165.666 311.065"><defs><style>.algaesa{fill:#057a7e;fill-rule:evenodd;}</style></defs><g transform="translate(-372.483 -749.783)"><path class="algaesa" d="M393.188,756.67c1.956,36.364-3.893,65.011-11.571,93.582-26.023,96.821,7.256,70.619,53.264,152.433,9.85,17.517,14.206,41.558,14.515,42.119,5.288,9.619,7.636-10.607,4.012-19.453-11.648-28.442-7.268-65.17-42.983-80.827-29.954-13.133-33.7-50.75-21.653-86.773,4.662-13.941,14.785-91.975,9.113-102.478C394.142,748.344,392.673,747.1,393.188,756.67Z" transform="translate(0 0)"/><path class="algaesa" d="M426.222,1006.738c5.648-11.228-18.2-76.482,15.425-123.671C463.4,852.532,501.235,840.4,510.286,830.3c15.941,6.526-62.981,55.143-72.655,101.364C435.35,942.561,441.01,1005.695,426.222,1006.738Z" transform="translate(25.745 40.845)"/><path class="algaesa" d="M418.549,1020.087c-.882-12.512,18.131-84.041,5.292-140.366-8.308-36.446-25.88-36.824-30.343-49.583-17.251,0,29.842,57.324,20.927,103.694C412.324,944.761,405.288,1013.529,418.549,1020.087Z" transform="translate(8.716 40.761)"/></g></svg>