<svg xmlns="http://www.w3.org/2000/svg" width="136" height="283.351" viewBox="0 0 136 283.351"><defs><style>.bubblesRighta{fill:#8fcac2;fill-rule:evenodd;}</style></defs><path class="bubblesRighta" d="M360.225,551c17.139,18.094-12.8,41.778-23.314,18.091-7.165-16.131,13.29-28.675,23.314-18.091ZM434.991,430.07c17.136,18.1-12.8,41.778-23.317,18.094-7.162-16.134,13.293-28.675,23.317-18.094Zm-2.045,2.518c-7.935-8.375-24.122,1.551-18.455,14.319,8.323,18.746,32.018,0,18.455-14.319Zm-9.5,248.877c17.136,18.094-12.8,41.778-23.317,18.091-7.162-16.131,13.29-28.675,23.317-18.091Zm-2.048,2.518c-7.932-8.375-24.122,1.551-18.455,14.316,8.326,18.746,32.018,0,18.455-14.316Zm-2.136-48.273c-10.021-10.585-30.476,1.957-23.317,18.091,10.517,23.687,40.456,0,23.317-18.091Zm-2.045,2.518c-7.932-8.378-24.122,1.548-18.455,14.316,8.323,18.749,32.019,0,18.455-14.316Zm46.469-145.4c25.555,26.983-19.089,62.3-34.768,26.977-10.679-24.057,19.824-42.759,34.768-26.977Zm-3.049,3.754c-11.827-12.491-35.97,2.309-27.518,21.349,12.409,27.956,47.744.006,27.518-21.349ZM403.9,476.289c-10.024-10.582-30.479,1.959-23.317,18.091,10.514,23.687,40.453.006,23.317-18.091Zm-2.048,2.518c-7.932-8.376-24.119,1.551-18.452,14.316,8.323,18.749,32.016.006,18.452-14.316Zm-31.922,20.42c-10.026-10.585-30.479,1.96-23.32,18.091,10.517,23.687,40.456,0,23.32-18.091Zm-2.048,2.518c13.564,14.322-10.132,33.064-18.455,14.316-5.667-12.767,10.523-22.691,18.455-14.316Zm72.738,79.119c17.136,18.094-12.8,41.778-23.317,18.091-7.162-16.134,13.293-28.675,23.317-18.091Zm-2.047,2.515c-7.932-8.373-24.122,1.551-18.455,14.318,8.323,18.749,32.018,0,18.455-14.318Zm-19.933-56.108c-14.947-15.785-45.447,2.917-34.768,26.974,15.679,35.323,60.324.006,34.768-26.974Zm-3.052,3.751c-11.827-12.491-35.967,2.312-27.515,21.352,12.409,27.953,47.741,0,27.515-21.352Zm-16.075,54.815c-14.947-15.782-45.45,2.92-34.771,26.977,15.682,35.321,60.327.006,34.771-26.977Zm-3.052,3.754c-11.827-12.491-35.97,2.312-27.518,21.349,12.412,27.956,47.744.006,27.518-21.349ZM358.181,553.52c-7.932-8.376-24.119,1.551-18.452,14.318C348.048,586.584,371.744,567.841,358.181,553.52Z" transform="translate(-335.421 -426.162)"/></svg>