<svg id="Warstwa_1" data-name="Warstwa 1" xmlns="http://www.w3.org/2000/svg" viewBox="0 0 91.47 80.29"><defs><style>.crabcls-1{fill:#e47b8e;}.crabcls-1,.crabcls-2,.crabcls-3,.crabcls-4{fill-rule:evenodd;}.crabcls-2{fill:#122048;}.crabcls-3{fill:#fff;}.crabcls-4{fill:#ec6770;}</style></defs><title>krabik</title><path class="crabcls-1" d="M390.17,293.73c-5.59,28.74,25.08,46.21,47.52,34,11-6,21.19-24.82,14-37-4-6.82-17-10-29.42-10.78C412.29,279.35,392.32,282.71,390.17,293.73Z" transform="translate(-375.66 -256.13)"/><path class="crabcls-2" d="M420.11,297.82c.38,0,.49.73.86,1.06a5.38,5.38,0,0,0,2.64,1.41,4.29,4.29,0,0,0,2.87-.93c.64-.44,1-1.17,1.21-.88.42.8-1.9,2.65-4,2.47a6.14,6.14,0,0,1-2.73-1.19C419.91,299.05,419.47,297.87,420.11,297.82Z" transform="translate(-375.66 -256.13)"/><path class="crabcls-2" d="M409.92,291c-.62,3.42,3.17,4.46,3.82,1.3C414.45,288.87,410.61,288.52,409.92,291Z" transform="translate(-375.66 -256.13)"/><path class="crabcls-2" d="M432,290.58c-.63,3.42,3.16,4.46,3.81,1.3C436.47,288.5,432.63,288.14,432,290.58Z" transform="translate(-375.66 -256.13)"/><path class="crabcls-3" d="M433.18,292.12c-.25,1.34,1.25,1.76,1.51.51S433.45,291.15,433.18,292.12Z" transform="translate(-375.66 -256.13)"/><path class="crabcls-3" d="M411.42,292.26c-.25,1.35,1.25,1.76,1.51.52S411.69,291.3,411.42,292.26Z" transform="translate(-375.66 -256.13)"/><path class="crabcls-1" d="M402.82,325.69c1-1.82-5.13-.72-5.13,5.07,0,2.74-.06,4.44.41,5.66H402a14.83,14.83,0,0,1-.34-2.76c0-8.74,10.25-2.84,1.63-8C402.93,325.46,403.16,325.08,402.82,325.69Z" transform="translate(-375.66 -256.13)"/><path class="crabcls-1" d="M438.34,325.38c-1-1.82,5.12-.72,5.12,5.07,0,3,.08,4.73-.54,6h-3.78a16.54,16.54,0,0,0,.39-3.06c0-8.74-10.24-2.84-1.62-8C438.23,325.16,438,324.77,438.34,325.38Z" transform="translate(-375.66 -256.13)"/><path class="crabcls-1" d="M446.72,311.58c-2-1.9,4.8-1.22,9.14,5.53,2.62,4.07,2.62,7.53-1.24,12a11.82,11.82,0,0,0-.09-5.95c-3.76-12.54-10.64-4.71-8.22-11.43C446.45,311.33,447.37,312.22,446.72,311.58Z" transform="translate(-375.66 -256.13)"/><path class="crabcls-1" d="M447.94,306.11c-2.58-.89,3.8-3.15,10.66,1.09,4.13,2.56,5.64,5.68,4.08,11.35a11.84,11.84,0,0,0-2.67-5.34c-8.84-9.72-11.65.28-12.38-6.81C447.59,306,448.81,306.4,447.94,306.11Z" transform="translate(-375.66 -256.13)"/><path class="crabcls-1" d="M451.79,298.16c-2.58-.88,3.8-3.14,10.66,1.1,4.13,2.55,5.63,5.68,4.08,11.35a11.8,11.8,0,0,0-2.67-5.34c-8.84-9.72-11.65.28-12.38-6.81C451.44,298,452.66,298.46,451.79,298.16Z" transform="translate(-375.66 -256.13)"/><path class="crabcls-1" d="M396.07,312.51c1.95-1.9-4.8-1.22-9.15,5.53-2.61,4.07-2.61,7.53,1.25,12a11.83,11.83,0,0,1,.09-5.95c3.76-12.54,10.64-4.71,8.22-11.43C396.34,312.25,395.41,313.15,396.07,312.51Z" transform="translate(-375.66 -256.13)"/><path class="crabcls-1" d="M394.84,307c2.59-.88-3.79-3.14-10.65,1.1-4.13,2.55-5.64,5.68-4.09,11.35a11.92,11.92,0,0,1,2.67-5.34c8.85-9.72,11.66.28,12.39-6.81C395.2,306.91,394,307.33,394.84,307Z" transform="translate(-375.66 -256.13)"/><path class="crabcls-1" d="M391,299.09c2.58-.88-3.8-3.15-10.66,1.1-4.13,2.55-5.64,5.68-4.08,11.35a11.8,11.8,0,0,1,2.67-5.34c8.84-9.72,11.65.28,12.38-6.82C391.35,299,390.13,299.39,391,299.09Z" transform="translate(-375.66 -256.13)"/><path class="crabcls-1" d="M443.33,287.47c-2.24,1.56,4.53,2,9.94-4,3.26-3.58,3.83-7,.76-12a11.71,11.71,0,0,1-1.08,5.86c-5.79,11.75-11.27,2.91-10,9.93C443,287.68,444.08,287,443.33,287.47Z" transform="translate(-375.66 -256.13)"/><path class="crabcls-4" d="M454.12,276.29c3.21.16,4.7-1.13,6.51-4,1.23-1.95,1.2-7.35.05-9.22-3.37-5.52-7.62-5.65-5.87-4.52,1.38.9-.79,1.7-.14,2,2.06,1.12-1.72,1.4.27,3.08,1,.83-1.74-.17-.37,2.79.65,1.4-1.87-.26-.28,2.67.67,1.25-1.93.72-.3,3.26.77,1.2-1.05.36-.07,2.49C454.27,275.66,452.44,276.21,454.12,276.29Z" transform="translate(-375.66 -256.13)"/><path class="crabcls-4" d="M453.14,276.28c-3.21.29-4.75-.93-6.69-3.74-1.31-1.89-1.52-7.28-.45-9.2,3.13-5.66,7.37-6,5.67-4.77-1.34,1,.86,1.67.22,2.05-2,1.2,1.79,1.32-.13,3.09-.94.86,1.73-.25.49,2.76-.59,1.43,1.86-.34.4,2.66-.62,1.28,2,.63.44,3.25-.71,1.22,1.07.3.18,2.48C453,275.65,454.81,276.13,453.14,276.28Z" transform="translate(-375.66 -256.13)"/><path class="crabcls-1" d="M405.4,285.63c2.24,1.56-4.53,2-9.94-4-3.26-3.58-3.83-7-.76-12a11.8,11.8,0,0,0,1.08,5.85c5.79,11.76,11.28,2.91,10,9.93C405.71,285.84,404.65,285.11,405.4,285.63Z" transform="translate(-375.66 -256.13)"/><path class="crabcls-4" d="M394.61,274.45c-3.21.15-4.7-1.13-6.51-4-1.23-1.95-1.2-7.34-.05-9.21,3.37-5.52,7.62-5.65,5.87-4.52-1.38.89.79,1.7.14,2.05-2.06,1.12,1.73,1.39-.27,3.08-1,.83,1.74-.18.37,2.78-.65,1.41,1.87-.26.28,2.68-.67,1.25,1.93.71.3,3.26-.77,1.19,1.05.35.07,2.49C394.46,273.81,396.29,274.37,394.61,274.45Z" transform="translate(-375.66 -256.13)"/><path class="crabcls-4" d="M395.6,274.43c3.2.3,4.74-.93,6.68-3.73,1.31-1.89,1.52-7.28.45-9.2-3.13-5.66-7.37-6-5.67-4.77,1.35.95-.86,1.66-.22,2,2,1.2-1.79,1.31.13,3.08.94.87-1.73-.25-.49,2.77.59,1.43-1.86-.34-.4,2.66.62,1.28-2,.63-.44,3.24.71,1.23-1.07.31-.18,2.49C395.78,273.81,393.92,274.28,395.6,274.43Z" transform="translate(-375.66 -256.13)"/></svg>