<svg xmlns="http://www.w3.org/2000/svg" width="24.667" height="16.412" viewBox="0 0 24.667 16.412"><defs><style>.a{fill:#4d4e50;}</style></defs><g transform="translate(-838.577 -541.711)"><path class="a" d="M838.625,561.1l10.8-6.37-10.849-6.4v12.378A1.71,1.71,0,0,0,838.625,561.1Z" transform="translate(0 -4.302)"/><path class="a" d="M850.33,567.384l-11.1,6.542a1.7,1.7,0,0,0,1.479.869h21.247a1.708,1.708,0,0,0,1.552-1l-10.869-6.409-1.156.681Z" transform="translate(-0.427 -16.672)"/><path class="a" d="M889.391,561.043v-12.2l-10.549,6.219,10.526,6.209A1.67,1.67,0,0,0,889.391,561.043Z" transform="translate(-26.148 -4.631)"/><path class="a" d="M840.287,541.711a1.708,1.708,0,0,0-1.71,1.708v.052l12.483,7.358,12.183-7.182v-.228a1.708,1.708,0,0,0-1.71-1.708Z" transform="translate(0)"/></g></svg>