<svg xmlns="http://www.w3.org/2000/svg" width="143.088" height="349.039" viewBox="0 0 143.088 349.039"><defs><style>.filledBubblesRighta{fill:#7db9c2;fill-rule:evenodd;}</style></defs><g transform="translate(422.111 861.616) rotate(-169)"><path class="filledBubblesRighta" d="M464.848,482.929c23.549,24.864-17.592,57.41-32.041,24.861C422.967,485.621,451.076,468.385,464.848,482.929Z" transform="translate(22.166 101.833)"/><path class="filledBubblesRighta" d="M444.826,460.439c11.8,12.46-8.818,28.77-16.058,12.458C423.835,461.786,437.922,453.152,444.826,460.439Z" transform="translate(16.226 62.844)"/><path class="filledBubblesRighta" d="M467.373,468.057c15.449,16.313-11.543,37.669-21.023,16.313C439.891,469.823,458.332,458.515,467.373,468.057Z" transform="translate(50.204 76.198)"/><path class="filledBubblesRighta" d="M461.492,451.5c15.452,16.313-11.543,37.666-21.023,16.31C434.013,453.265,452.454,441.959,461.492,451.5Z" transform="translate(38.63 43.613)"/><path class="filledBubblesRighta" d="M448.672,439.358c11.8,12.46-8.815,28.77-16.058,12.457C427.684,440.705,441.768,432.068,448.672,439.358Z" transform="translate(23.796 21.35)"/><path class="filledBubblesRighta" d="M459.3,428.044c9.762,10.306-7.293,23.8-13.28,10.3C441.941,429.16,453.591,422.015,459.3,428.044Z" transform="translate(50.528 0)"/><path class="filledBubblesRighta" d="M481.357,499.445c26.942,28.447-20.13,65.682-36.66,28.441C433.439,502.523,465.6,482.805,481.357,499.445Z" transform="translate(44.988 132.814)"/><path class="filledBubblesRighta" d="M458.5,506c26.945,28.447-20.127,65.682-36.66,28.441C410.581,509.08,442.741,489.362,458.5,506Z" transform="translate(0 145.719)"/><path class="filledBubblesRighta" d="M479.628,530.394c36.505,38.544-27.271,88.994-49.669,38.536C414.7,534.565,458.275,507.848,479.628,530.394Z" transform="translate(14.343 189.434)"/></g></svg>