<svg xmlns="http://www.w3.org/2000/svg" width="106.203" height="287.823" viewBox="0 0 106.203 287.823"><defs><style>.filledBubblesLefta{fill:#7db9c2;fill-rule:evenodd;}</style></defs><g transform="matrix(-0.966, 0.259, -0.259, -0.966, 655.969, 571.266)"><path class="filledBubblesLefta" d="M457.995,481.849c18.815,19.865-14.055,45.868-25.6,19.863C424.534,484,446.991,470.229,457.995,481.849Z" transform="translate(15.445 70.957)"/><path class="filledBubblesLefta" d="M441.391,459.9c9.429,9.955-7.045,22.986-12.829,9.953C424.621,460.974,435.876,454.076,441.391,459.9Z" transform="translate(11.306 43.789)"/><path class="filledBubblesLefta" d="M462.876,467.349c12.343,13.033-9.222,30.1-16.8,13.033C440.92,468.76,455.653,459.724,462.876,467.349Z" transform="translate(34.982 53.095)"/><path class="filledBubblesLefta" d="M457,450.793c12.345,13.033-9.222,30.093-16.8,13.031C435.041,452.2,449.774,443.169,457,450.793Z" transform="translate(26.917 30.39)"/><path class="filledBubblesLefta" d="M445.237,438.816c9.429,9.955-7.043,22.986-12.829,9.953C428.469,439.893,439.721,432.992,445.237,438.816Z" transform="translate(16.581 14.877)"/><path class="filledBubblesLefta" d="M456.459,427.6c7.8,8.234-5.827,19.012-10.61,8.231C442.591,428.488,451.9,422.78,456.459,427.6Z" transform="translate(35.208 0)"/><path class="filledBubblesLefta" d="M473.516,498.209c21.525,22.728-16.083,52.477-29.289,22.723C435.232,500.668,460.924,484.915,473.516,498.209Z" transform="translate(31.348 92.544)"/><path class="filledBubblesLefta" d="M450.658,504.766c21.528,22.728-16.081,52.477-29.289,22.723C412.374,507.225,438.068,491.472,450.658,504.766Z" transform="translate(0 101.537)"/><path class="filledBubblesLefta" d="M469,528.72c29.166,30.8-21.788,71.1-39.683,30.788C417.132,532.052,451.944,510.707,469,528.72Z" transform="translate(9.994 131.997)"/></g></svg>