<svg xmlns="http://www.w3.org/2000/svg" width="238.125" height="256" viewBox="0 0 238.125 256"><defs><style>.fishLefta{fill:#e56897;}.fishLefta,.fishLeftb,.fishLeftc,.fishLeftd,.fishLefte,.fishLeftf{fill-rule:evenodd;}.fishLeftb{fill:#e778a7;}.fishLeftc{fill:#f1a0a7;}.fishLeftd{fill:#00a0d9;}.fishLefte{fill:#fef9fc;}.fishLeftf{fill:#051938;}</style></defs><g transform="translate(-337.759 -535.352)"><path class="fishLefta" d="M390.034,557.623c22.535-28.851,54.009-30.689,76.187.472.005.064-36.339-7.462-39.992-.082a26.113,26.113,0,0,0-2.54,12.007C423.39,571.361,388.13,560.061,390.034,557.623Z" transform="translate(81.612)"/><path class="fishLefta" d="M370.241,597.094c1.1,7.7,1.576,21.838,8.762,29.949,8.1,9.144,23.463,12,33.863,15.288,1.154-1.861-19.2-20.172-13.6-42.04C399.549,599.207,369.885,594.613,370.241,597.094Z" transform="translate(50.778 95.396)"/><path class="fishLeftb" d="M562.809,685.925c5.975-110.022-65.129-146.264-148.35-144.162-33.878.856-77.456,29.661-76.69,65.818.028,1.264,4.263,1.917,4.419,3.189.082.654-3.961,1.923-3.845,2.581,5.611,32,51.094,64.734,100.371,72.34C496.45,694.6,556.855,673.841,544.4,709.462c-5.3,15.045,18,17.126,19.036,2.379C564.219,700.647,562.545,690.8,562.809,685.925Z" transform="translate(0 9.89)"/><path class="fishLeftc" d="M414.459,541.677c-33.878.856-77.456,29.661-76.69,65.818.021.987,4.319,2.286,4.419,3.276.113,1.087-3.966,1.869-3.761,2.958,3.868,20.661,24.276,41.574,51.52,55.783C410.3,624.629,418.873,582.984,414.459,541.677Z" transform="translate(0 9.889)"/><path class="fishLeftd" d="M361.568,594.109c5.45,1.038,11.769-.646,15.1-4.853,5.868-7.406,7.865-17.418,2.6-24.768-9.234-12.894-23.309-5.14-29.526,4.509C344.237,577.549,348.138,591.558,361.568,594.109Z" transform="translate(14.963 34.947)"/><path class="fishLefte" d="M359.311,585.2c3.789.72,8.185-.451,10.5-3.373,4.081-5.15,5.468-12.115,1.807-17.226-6.419-8.964-16.209-3.571-20.531,3.135A11.61,11.61,0,0,0,359.311,585.2Z" transform="translate(18.212 38.356)"/><path class="fishLeftf" d="M359.321,583.935c3,.013,7.121-2.622,8.47-5.186,2.374-4.519,1-12.107-2.535-15.5-6.211-5.942-12.915-.428-15.247,5.312a12.056,12.056,0,0,0,.633,9.026C352.248,581.064,355.394,583.92,359.321,583.935Z" transform="translate(18.202 39.622)"/><path class="fishLefte" d="M354.094,573.879a5.348,5.348,0,0,0,4-2.448c1.12-2.13,1.866-5.781.131-7.308-4.358-3.838-7.421-.205-8.523,2.5C348.724,569.029,350.6,573.866,354.094,573.879Z" transform="translate(18.265 42.377)"/><path class="fishLefta" d="M440.508,606.1c-3.732.22-35.9,22.2-35.685,65.89,7.088,3.263,33.417-25.95,41.212-46.457,3.661,11.551,4.968,57.726,13.153,55.1,23.54-30.266,5.811-66.2-.531-73.635C456.291,610.834,445.948,609.9,440.508,606.1Z" transform="translate(104.847 110.612)"/></g></svg>