<svg xmlns="http://www.w3.org/2000/svg" width="77.57" height="83.394" viewBox="0 0 77.57 83.394"><defs><style>.fishRighta{fill:#e56897;}.fishRighta,.fishRightb,.fishRightc,.fishRightd,.fishRighte,.fishRightf{fill-rule:evenodd;}.fishRightb{fill:#e778a7;}.fishRightc{fill:#f1a0a7;}.fishRightd{fill:#00a0d9;}.fishRighte{fill:#fef9fc;}.fishRightf{fill:#051938;}</style></defs><g transform="translate(-129.225 -740.476)"><path class="fishRighta" d="M158.051,747.732c-7.341-9.4-17.594-10-24.821.153,0,.023,11.838-2.43,13.029-.027a8.46,8.46,0,0,1,.826,3.912C147.185,752.208,158.669,748.526,158.051,747.732Z" transform="translate(5.131 0)"/><path class="fishRighta" d="M159.147,763.048c-.36,2.507-.516,7.113-2.854,9.755-2.639,2.977-7.645,3.908-11.032,4.98-.374-.607,6.255-6.573,4.43-13.695C149.6,763.735,159.263,762.238,159.147,763.048Z" transform="translate(20.527 28.618)"/><path class="fishRightb" d="M131.245,789.78c-1.946-35.839,21.216-47.645,48.325-46.961,11.037.281,25.234,9.664,24.983,21.442-.009.411-1.389.623-1.44,1.038-.025.212,1.289.627,1.252.839-1.827,10.426-16.644,21.089-32.7,23.566-18.807,2.9-38.486-3.86-34.427,7.743,1.727,4.9-5.865,5.58-6.2.776C130.786,794.576,131.331,791.368,131.245,789.78Z" transform="translate(2.239 2.967)"/><path class="fishRightc" d="M152.482,742.792c11.037.278,25.234,9.661,24.983,21.44-.007.322-1.408.746-1.44,1.068-.036.354,1.291.609,1.225.965-1.259,6.73-7.909,13.542-16.781,18.171C153.837,769.814,151.045,756.247,152.482,742.792Z" transform="translate(29.327 2.967)"/><path class="fishRightd" d="M161.487,760.518a5.185,5.185,0,0,1-4.918-1.581c-1.912-2.411-2.562-5.676-.849-8.069,3.009-4.2,7.595-1.675,9.618,1.469A5.439,5.439,0,0,1,161.487,760.518Z" transform="translate(32.677 10.484)"/><path class="fishRighte" d="M160.191,757.7a3.613,3.613,0,0,1-3.422-1.1c-1.33-1.677-1.782-3.947-.589-5.612,2.09-2.92,5.281-1.164,6.689,1.022A3.784,3.784,0,0,1,160.191,757.7Z" transform="translate(33.652 11.507)"/><path class="fishRightf" d="M159.317,757.324a3.7,3.7,0,0,1-2.76-1.691,4.814,4.814,0,0,1,.826-5.046c2.024-1.937,4.207-.141,4.969,1.729a3.935,3.935,0,0,1-.208,2.941A3.271,3.271,0,0,1,159.317,757.324Z" transform="translate(34.526 11.887)"/><path class="fishRighte" d="M159.231,754.118a1.734,1.734,0,0,1-1.3-.8c-.365-.7-.607-1.884-.043-2.382,1.421-1.25,2.418-.066,2.776.817C160.981,752.54,160.367,754.114,159.231,754.118Z" transform="translate(36.294 12.713)"/><path class="fishRighta" d="M139.169,766.374c1.216.071,11.694,7.232,11.626,21.463-2.309,1.063-10.884-8.455-13.423-15.132-1.193,3.762-1.62,18.8-4.287,17.947-7.668-9.86-1.894-21.565.173-23.988C134.029,767.916,137.4,767.61,139.169,766.374Z" transform="translate(0 33.183)"/></g></svg>