<svg id="Warstwa_1" data-name="Warstwa 1" xmlns="http://www.w3.org/2000/svg" viewBox="0 0 222.9 112.01"><defs><style>.cls-1{fill:#e94929;}.cls-1,.cls-2,.cls-3,.cls-4,.cls-5,.cls-6{fill-rule:evenodd;}.cls-2{fill:#e84422;}.cls-3{fill:#f49800;}.cls-4{fill:#ededa4;}.cls-5{fill:#53bec3;}.cls-6{fill:#c3360e;}</style></defs><title>rybki</title><path class="cls-1" d="M513.88,277.28c.52,1.36,1.44,1.31,1.2,1s.33-.88-.58-1C514.23,277.29,513.91,277.38,513.88,277.28Z" transform="translate(-309.45 -243.57)"/><path class="cls-2" d="M447.71,280.92c-.49-7.51,4-9.23,3.46-7.4-.69,2.48,3.46,3.47-.61,5.91C449.37,280.13,447.68,280.38,447.71,280.92Z" transform="translate(-309.45 -243.57)"/><path class="cls-1" d="M461.13,301.78c2.72,4.47,5.95,3.71,4.93,2.86-1.39-1.14.58-3.33-2.71-3.13C462.39,301.57,461.33,302.1,461.13,301.78Z" transform="translate(-309.45 -243.57)"/><path class="cls-1" d="M464.83,300.07c1.4,2.28,3.05,1.89,2.52,1.46-.71-.58.3-1.7-1.38-1.6C465.48,300,464.93,300.23,464.83,300.07Z" transform="translate(-309.45 -243.57)"/><path class="cls-3" d="M436.83,297.53c7.74-38.69,38-7,39-17.36.24-2.46,5.73-5.51,7.94-6.19.85,1.36,5.8,11.45,2.15,11.13-14.74-1.28-4.05-.69-17.6,12.93C454.11,312.34,435.63,303.49,436.83,297.53Z" transform="translate(-309.45 -243.57)"/><path class="cls-4" d="M443.31,295.83c.21,2.14,3,1.95,2.85,0C446,293.65,443.33,294.25,443.31,295.83Z" transform="translate(-309.45 -243.57)"/><path class="cls-5" d="M444.58,296.28c.08.85,1.18.77,1.12,0A.56.56,0,0,0,444.58,296.28Z" transform="translate(-309.45 -243.57)"/><path class="cls-2" d="M462.15,252.53c-.42-6.37,3.36-7.83,2.93-6.27-.58,2.1,2.93,2.94-.52,5C463.56,251.87,462.12,252.07,462.15,252.53Z" transform="translate(-309.45 -243.57)"/><path class="cls-1" d="M473.53,270.23c2.31,3.79,5.05,3.14,4.18,2.42-1.17-1,.5-2.82-2.3-2.65C474.6,270.05,473.7,270.5,473.53,270.23Z" transform="translate(-309.45 -243.57)"/><path class="cls-1" d="M476.67,268.77c1.18,1.94,2.58,1.61,2.14,1.25-.6-.5.25-1.45-1.18-1.36C477.22,268.69,476.76,268.91,476.67,268.77Z" transform="translate(-309.45 -243.57)"/><path class="cls-3" d="M452.92,266.62c6.57-32.81,32.25-5.91,33.09-14.72.2-2.09,3.16-7.75,5-8.33.72,1.15,6.62,12.79,3.52,12.52-12.49-1.09-3.43-.59-14.92,11C467.58,279.18,451.91,271.68,452.92,266.62Z" transform="translate(-309.45 -243.57)"/><path class="cls-4" d="M458.42,265.18a1.21,1.21,0,1,0,2.41,0C460.71,263.33,458.44,263.84,458.42,265.18Z" transform="translate(-309.45 -243.57)"/><path class="cls-5" d="M459.49,265.56c.07.72,1,.66.95,0S459.5,265,459.49,265.56Z" transform="translate(-309.45 -243.57)"/><path class="cls-2" d="M500,260.19c.75-6.34,4.73-7.1,4-5.65-1,2,2.35,3.42-1.42,4.83C501.46,259.78,500,259.73,500,260.19Z" transform="translate(-309.45 -243.57)"/><path class="cls-1" d="M507.93,279.62c2.19,5.75,6.09,5.55,5.09,4.35-1.36-1.61,1.39-3.74-2.47-4.19C509.43,279.65,508.08,280,507.93,279.62Z" transform="translate(-309.45 -243.57)"/><path class="cls-1" d="M512,278.3c.81,2.11,2.25,2,1.88,1.6-.5-.6.51-1.38-.91-1.55C512.53,278.31,512,278.45,512,278.3Z" transform="translate(-309.45 -243.57)"/><path class="cls-3" d="M488.31,272.4c12.43-31.11,32.8-.07,35.23-8.58.57-2,4.52-7.06,6.46-7.3.5,1.27,4.18,13.76,1.19,13-12.1-3.3-3.27-1.19-16.68,8.12C500.44,287.37,486.39,277.19,488.31,272.4Z" transform="translate(-309.45 -243.57)"/><path class="cls-4" d="M494,272a1.21,1.21,0,1,0,2.38.4C496.57,270.55,494.24,270.65,494,272Z" transform="translate(-309.45 -243.57)"/><path class="cls-5" d="M495,272.53c-.06.72.87.82.94.16S495.07,272,495,272.53Z" transform="translate(-309.45 -243.57)"/><path class="cls-6" d="M457.23,270.93c.18-.07.93.24,1.28-.07.64-.59.89-1.72.54-.14C458.79,271.88,456.78,271.09,457.23,270.93Z" transform="translate(-309.45 -243.57)"/><path class="cls-6" d="M440.36,301.27c.18-.07.93.24,1.28-.08.65-.58.89-1.71.54-.14C441.92,302.21,439.91,301.43,440.36,301.27Z" transform="translate(-309.45 -243.57)"/><path class="cls-6" d="M491.94,276.55c.19-.07.94.24,1.29-.07.64-.59.89-1.72.54-.14C493.51,277.5,491.5,276.71,491.94,276.55Z" transform="translate(-309.45 -243.57)"/><path class="cls-1" d="M429.05,280.36c.51,1.36,1.44,1.31,1.2,1s.33-.88-.58-1C429.4,280.37,429.08,280.46,429.05,280.36Z" transform="translate(-309.45 -243.57)"/><path class="cls-2" d="M362.88,284c-.49-7.51,4-9.23,3.46-7.4-.69,2.48,3.46,3.47-.61,5.91C364.54,283.21,362.85,283.46,362.88,284Z" transform="translate(-309.45 -243.57)"/><path class="cls-1" d="M376.3,304.86c2.72,4.47,5.95,3.71,4.93,2.86-1.39-1.14.58-3.33-2.71-3.13C377.56,304.65,376.5,305.18,376.3,304.86Z" transform="translate(-309.45 -243.57)"/><path class="cls-1" d="M380,303.15c1.4,2.28,3,1.89,2.52,1.46-.71-.58.3-1.7-1.38-1.6C380.65,303,380.1,303.31,380,303.15Z" transform="translate(-309.45 -243.57)"/><path class="cls-3" d="M352,300.61c7.74-38.69,38-7,39-17.36.24-2.46,5.73-5.51,7.94-6.19.85,1.36,5.8,11.45,2.15,11.13-14.74-1.28-4.05-.69-17.6,12.93C369.28,315.42,350.8,306.57,352,300.61Z" transform="translate(-309.45 -243.57)"/><path class="cls-4" d="M358.48,298.91c.21,2.14,3,1.95,2.85-.05S358.5,297.33,358.48,298.91Z" transform="translate(-309.45 -243.57)"/><path class="cls-5" d="M359.75,299.36c.08.85,1.18.77,1.12,0A.56.56,0,0,0,359.75,299.36Z" transform="translate(-309.45 -243.57)"/><path class="cls-2" d="M377.32,255.61c-.42-6.37,3.36-7.83,2.93-6.27-.59,2.1,2.93,2.94-.52,5C378.73,254.94,377.29,255.15,377.32,255.61Z" transform="translate(-309.45 -243.57)"/><path class="cls-1" d="M388.7,273.3c2.31,3.8,5.05,3.15,4.18,2.43-1.17-1,.5-2.83-2.3-2.65C389.77,273.13,388.87,273.58,388.7,273.3Z" transform="translate(-309.45 -243.57)"/><path class="cls-1" d="M391.84,271.85c1.18,1.94,2.58,1.61,2.14,1.25-.6-.5.25-1.45-1.18-1.36C392.39,271.76,391.93,272,391.84,271.85Z" transform="translate(-309.45 -243.57)"/><path class="cls-3" d="M368.09,269.7c6.57-32.82,32.25-5.92,33.09-14.72.2-2.09,3.16-7.75,5-8.33.72,1.15,6.62,12.79,3.52,12.52-12.49-1.09-3.43-.59-14.92,11C382.75,282.26,367.07,274.76,368.09,269.7Z" transform="translate(-309.45 -243.57)"/><path class="cls-4" d="M373.59,268.26a1.21,1.21,0,1,0,2.41,0C375.88,266.41,373.6,266.92,373.59,268.26Z" transform="translate(-309.45 -243.57)"/><path class="cls-5" d="M374.66,268.64c.07.72,1,.65.95,0S374.67,268.12,374.66,268.64Z" transform="translate(-309.45 -243.57)"/><path class="cls-2" d="M415.12,263.26c.75-6.33,4.73-7.1,4-5.64-.95,2,2.36,3.42-1.41,4.83C416.63,262.86,415.18,262.81,415.12,263.26Z" transform="translate(-309.45 -243.57)"/><path class="cls-1" d="M423.1,282.7c2.19,5.75,6.09,5.54,5.09,4.35-1.36-1.62,1.39-3.74-2.47-4.19C424.6,282.73,423.25,283.11,423.1,282.7Z" transform="translate(-309.45 -243.57)"/><path class="cls-1" d="M427.14,281.38c.81,2.11,2.25,2,1.88,1.6-.5-.6.51-1.38-.91-1.55C427.7,281.39,427.2,281.53,427.14,281.38Z" transform="translate(-309.45 -243.57)"/><path class="cls-3" d="M403.48,275.48c12.43-31.11,32.79-.07,35.23-8.58.57-2,4.52-7.06,6.46-7.3.5,1.27,4.18,13.76,1.19,12.95-12.1-3.3-3.27-1.19-16.68,8.12C415.61,290.45,401.56,280.27,403.48,275.48Z" transform="translate(-309.45 -243.57)"/><path class="cls-4" d="M409.15,275a1.21,1.21,0,1,0,2.38.4C411.74,273.63,409.41,273.73,409.15,275Z" transform="translate(-309.45 -243.57)"/><path class="cls-5" d="M410.13,275.61c-.06.72.87.82.94.16S410.24,275.09,410.13,275.61Z" transform="translate(-309.45 -243.57)"/><path class="cls-6" d="M372.4,274c.18-.07.93.24,1.28-.08.64-.58.89-1.71.54-.14C374,275,372,274.17,372.4,274Z" transform="translate(-309.45 -243.57)"/><path class="cls-6" d="M355.53,304.34c.18-.06.93.24,1.28-.07.65-.58.89-1.71.54-.14C357.09,305.29,355.08,304.51,355.53,304.34Z" transform="translate(-309.45 -243.57)"/><path class="cls-6" d="M407.11,279.63c.19-.07.94.24,1.29-.07.64-.59.89-1.72.54-.14C408.68,280.58,406.67,279.79,407.11,279.63Z" transform="translate(-309.45 -243.57)"/><path class="cls-1" d="M448.16,329.3c.47,1.26,1.33,1.21,1.11.95s.3-.81-.54-.91C448.48,329.31,448.19,329.39,448.16,329.3Z" transform="translate(-309.45 -243.57)"/><path class="cls-2" d="M387.09,332.66c-.45-6.93,3.65-8.52,3.18-6.83-.63,2.29,3.2,3.21-.56,5.45C388.62,331.94,387.06,332.16,387.09,332.66Z" transform="translate(-309.45 -243.57)"/><path class="cls-1" d="M399.47,351.91C402,356,405,355.34,404,354.56c-1.28-1.06.54-3.08-2.5-2.89C400.64,351.73,399.65,352.21,399.47,351.91Z" transform="translate(-309.45 -243.57)"/><path class="cls-1" d="M402.89,350.34c1.28,2.1,2.81,1.74,2.32,1.35-.65-.54.28-1.58-1.27-1.48C403.49,350.24,403,350.49,402.89,350.34Z" transform="translate(-309.45 -243.57)"/><path class="cls-3" d="M377,348c7.15-35.71,35.1-6.43,36-16,.22-2.27,5.29-5.08,7.32-5.71.79,1.25,5.36,10.57,2,10.27-13.6-1.18-3.74-.64-16.24,11.93C393,361.66,375.94,353.49,377,348Z" transform="translate(-309.45 -243.57)"/><path class="cls-4" d="M383,346.42c.19,2,2.75,1.8,2.63,0S383.05,345,383,346.42Z" transform="translate(-309.45 -243.57)"/><path class="cls-5" d="M384.19,346.84c.08.78,1.09.71,1,0S384.2,346.27,384.19,346.84Z" transform="translate(-309.45 -243.57)"/><path class="cls-2" d="M400.41,306.46c-.38-5.88,3.1-7.23,2.71-5.79-.54,1.94,2.71,2.72-.48,4.62C401.71,305.84,400.39,306,400.41,306.46Z" transform="translate(-309.45 -243.57)"/><path class="cls-1" d="M410.92,322.79c2.13,3.5,4.66,2.9,3.85,2.24-1.08-.89.46-2.61-2.12-2.45C411.9,322.63,411.07,323,410.92,322.79Z" transform="translate(-309.45 -243.57)"/><path class="cls-1" d="M413.82,321.45c1.09,1.79,2.38,1.49,2,1.15-.56-.46.23-1.34-1.09-1.25C414.32,321.37,413.9,321.58,413.82,321.45Z" transform="translate(-309.45 -243.57)"/><path class="cls-3" d="M391.89,319.46c6.07-30.28,29.77-5.46,30.55-13.58.18-1.93,2.91-7.16,4.64-7.69.66,1.06,6.11,11.8,3.25,11.55-11.53-1-3.17-.54-13.77,10.12C405.42,331.06,391,324.13,391.89,319.46Z" transform="translate(-309.45 -243.57)"/><path class="cls-4" d="M397,318.13a1.12,1.12,0,1,0,2.23,0C399.08,316.43,397,316.9,397,318.13Z" transform="translate(-309.45 -243.57)"/><path class="cls-5" d="M398,318.49a.44.44,0,1,0,.88,0C398.79,317.81,398,318,398,318.49Z" transform="translate(-309.45 -243.57)"/><path class="cls-2" d="M435.3,313.52c.7-5.84,4.37-6.55,3.72-5.21-.89,1.81,2.17,3.16-1.31,4.46C436.69,313.15,435.35,313.1,435.3,313.52Z" transform="translate(-309.45 -243.57)"/><path class="cls-1" d="M442.66,331.46c2,5.31,5.63,5.12,4.7,4-1.25-1.49,1.29-3.45-2.27-3.87C444.05,331.49,442.81,331.84,442.66,331.46Z" transform="translate(-309.45 -243.57)"/><path class="cls-1" d="M446.4,330.24c.74,1.95,2.07,1.88,1.73,1.48-.46-.55.47-1.27-.84-1.43C446.91,330.25,446.45,330.38,446.4,330.24Z" transform="translate(-309.45 -243.57)"/><path class="cls-3" d="M424.55,324.8c11.48-28.71,30.28-.07,32.52-7.92.54-1.87,4.17-6.52,6-6.74.46,1.17,3.86,12.7,1.09,11.95-11.16-3-3-1.1-15.39,7.5C435.75,338.61,422.79,329.22,424.55,324.8Z" transform="translate(-309.45 -243.57)"/><path class="cls-4" d="M429.79,324.39a1.12,1.12,0,1,0,2.2.37C432.18,323.09,430,323.18,429.79,324.39Z" transform="translate(-309.45 -243.57)"/><path class="cls-5" d="M430.7,324.92a.44.44,0,1,0,.87.14C431.64,324.41,430.79,324.44,430.7,324.92Z" transform="translate(-309.45 -243.57)"/><path class="cls-6" d="M395.87,323.44c.17-.06.86.22,1.18-.07.6-.54.83-1.58.5-.13C397.31,324.31,395.45,323.59,395.87,323.44Z" transform="translate(-309.45 -243.57)"/><path class="cls-6" d="M380.3,351.44c.17-.06.86.22,1.18-.07.6-.53.83-1.58.5-.13C381.74,352.31,379.89,351.59,380.3,351.44Z" transform="translate(-309.45 -243.57)"/><path class="cls-6" d="M427.91,328.63c.17-.06.87.22,1.19-.07.59-.54.82-1.58.49-.13C429.35,329.5,427.5,328.78,427.91,328.63Z" transform="translate(-309.45 -243.57)"/><path class="cls-1" d="M366.91,331.77c.38,1,1.07,1,.89.77s.25-.66-.43-.74C367.17,331.78,366.93,331.85,366.91,331.77Z" transform="translate(-309.45 -243.57)"/><path class="cls-2" d="M317.61,334.48c-.37-5.59,2.95-6.87,2.57-5.51-.51,1.85,2.58,2.59-.45,4.4C318.84,333.9,317.58,334.08,317.61,334.48Z" transform="translate(-309.45 -243.57)"/><path class="cls-1" d="M327.6,350c2,3.33,4.44,2.76,3.68,2.13-1-.85.43-2.48-2-2.33C328.54,349.88,327.75,350.27,327.6,350Z" transform="translate(-309.45 -243.57)"/><path class="cls-1" d="M330.36,348.75c1,1.71,2.27,1.42,1.88,1.09s.22-1.27-1-1.19C330.84,348.68,330.44,348.88,330.36,348.75Z" transform="translate(-309.45 -243.57)"/><path class="cls-3" d="M309.5,346.86c5.77-28.83,28.33-5.19,29.07-12.93.17-1.84,4.27-4.11,5.91-4.62.63,1,4.32,8.54,1.6,8.3-11-1-3-.52-13.11,9.63C322.37,357.9,308.61,351.3,309.5,346.86Z" transform="translate(-309.45 -243.57)"/><path class="cls-4" d="M314.33,345.59a1.06,1.06,0,1,0,2.12,0C316.34,344,314.34,344.42,314.33,345.59Z" transform="translate(-309.45 -243.57)"/><path class="cls-5" d="M315.27,345.93a.42.42,0,1,0,.84,0A.42.42,0,0,0,315.27,345.93Z" transform="translate(-309.45 -243.57)"/><path class="cls-2" d="M328.36,313.33c-.31-4.74,2.51-5.83,2.19-4.67-.44,1.56,2.18,2.19-.39,3.73C329.41,312.84,328.34,313,328.36,313.33Z" transform="translate(-309.45 -243.57)"/><path class="cls-1" d="M336.84,326.52c1.72,2.82,3.76,2.34,3.12,1.81-.88-.73.37-2.11-1.71-2C337.64,326.39,337,326.72,336.84,326.52Z" transform="translate(-309.45 -243.57)"/><path class="cls-1" d="M339.18,325.43c.88,1.45,1.93,1.2,1.6.93s.19-1.08-.88-1C339.59,325.37,339.25,325.54,339.18,325.43Z" transform="translate(-309.45 -243.57)"/><path class="cls-3" d="M321.48,323.83c4.9-24.45,24-4.41,24.66-11,.15-1.56,2.36-5.77,3.75-6.21.54.86,4.93,9.53,2.63,9.33-9.32-.81-2.56-.43-11.12,8.17C332.41,333.19,320.73,327.6,321.48,323.83Z" transform="translate(-309.45 -243.57)"/><path class="cls-4" d="M325.58,322.75c.13,1.36,1.89,1.24,1.8,0S325.6,321.76,325.58,322.75Z" transform="translate(-309.45 -243.57)"/><path class="cls-5" d="M326.38,323c.05.54.75.49.71,0S326.39,322.65,326.38,323Z" transform="translate(-309.45 -243.57)"/><path class="cls-2" d="M356.53,319c.56-4.72,3.53-5.29,3-4.2-.71,1.46,1.75,2.54-1.06,3.6C357.65,318.73,356.57,318.7,356.53,319Z" transform="translate(-309.45 -243.57)"/><path class="cls-1" d="M362.47,333.52c1.64,4.28,4.55,4.13,3.8,3.24-1-1.21,1-2.79-1.84-3.12C363.59,333.54,362.59,333.82,362.47,333.52Z" transform="translate(-309.45 -243.57)"/><path class="cls-1" d="M365.49,332.53c.6,1.58,1.67,1.52,1.4,1.19s.38-1-.68-1.15C365.9,332.54,365.53,332.64,365.49,332.53Z" transform="translate(-309.45 -243.57)"/><path class="cls-3" d="M347.85,328.14c9.27-23.18,24.44-.05,26.26-6.4.43-1.5,3.36-5.26,4.81-5.43.37.94,3.12,10.25.89,9.64-9-2.46-2.44-.89-12.43,6.05C356.89,339.29,346.43,331.71,347.85,328.14Z" transform="translate(-309.45 -243.57)"/><path class="cls-4" d="M352.08,327.81a.91.91,0,1,0,1.78.29C354,326.76,352.27,326.83,352.08,327.81Z" transform="translate(-309.45 -243.57)"/><path class="cls-5" d="M352.81,328.23c0,.54.65.62.7.12S352.89,327.85,352.81,328.23Z" transform="translate(-309.45 -243.57)"/><path class="cls-6" d="M324.69,327c.14-.05.7.18,1-.05.48-.44.67-1.28.4-.11C325.86,327.75,324.36,327.16,324.69,327Z" transform="translate(-309.45 -243.57)"/><path class="cls-6" d="M312.12,349.65c.14,0,.7.17,1-.06.48-.43.67-1.28.4-.1C313.29,350.35,311.79,349.77,312.12,349.65Z" transform="translate(-309.45 -243.57)"/><path class="cls-6" d="M350.56,331.23c.14-.05.7.18,1-.06.48-.43.67-1.27.4-.1C351.73,331.93,350.23,331.35,350.56,331.23Z" transform="translate(-309.45 -243.57)"/></svg>