<svg xmlns="http://www.w3.org/2000/svg" width="312.913" height="376.6" viewBox="0 0 312.913 376.6"><defs><style>.group52{fill:#f48300;fill-rule:evenodd;}</style></defs><g transform="translate(-51.265 -747.537)"><path class="group52" d="M75.382,777.886c-5.906,20.607-15.7,21.005-19.265,26.052-2.4,3.4-4.891,13.826.756,23.172,3.992,6.611,30.421,15.221,36.434,3.628,10.539-20.321,2.967-28.76-8.131-33.066C76.995,794.5,75.387,777.868,75.382,777.886Z" transform="translate(1.712 23.864)"/><path class="group52" d="M77.329,797.75C70.314,822.228,58.682,822.7,54.443,828.7c-2.856,4.037-5.811,16.425.9,27.527,4.744,7.852,36.139,18.083,43.28,4.31,12.52-24.14,3.524-34.165-9.66-39.281C79.244,817.483,77.336,797.727,77.329,797.75Z" transform="translate(0 39.483)"/><path class="group52" d="M72.786,826.064c-.325,25.439-11.431,28.9-13.944,35.78-1.692,4.635-1.281,17.356,8.119,26.344,6.649,6.358,39.651,8.133,42.92-7.006,5.727-26.536-5.6-33.893-19.674-35.43C79.833,844.62,72.786,826.041,72.786,826.064Z" transform="translate(5.349 61.746)"/><path class="group52" d="M79.115,854.148c1.272,25.41-9.594,29.545-11.672,36.568-1.4,4.73-.189,17.4,9.755,25.794,7.036,5.936,40.087,5.68,42.4-9.632,4.051-26.836-7.715-33.483-21.859-34.151C87.312,872.234,79.113,854.123,79.115,854.148Z" transform="translate(12.344 83.829)"/><path class="group52" d="M84.071,880.828c7.924,24.2-1.479,31-1.633,38.314-.105,4.927,4.4,16.848,16.213,22.386,8.355,3.916,40.2-4.861,38.393-20.237-3.158-26.953-16.268-30.335-30.1-27.33C96.752,896.176,84.066,880.807,84.071,880.828Z" transform="translate(24.511 104.808)"/><path class="group52" d="M100.122,901.573c7.92,24.2-1.479,31-1.634,38.315-.105,4.928,4.4,16.85,16.213,22.386,8.355,3.917,40.2-4.859,38.393-20.237-3.158-26.954-16.268-30.333-30.1-27.33C112.8,916.921,100.113,901.552,100.122,901.573Z" transform="translate(37.13 121.12)"/><path class="group52" d="M131.288,747.537c-10.534,18.71-20.157,16.87-24.8,20.97-3.13,2.762-7.972,12.343-4.648,22.724,2.351,7.342,26.071,21.736,34.615,11.82,14.978-17.379,9.567-27.314-.234-34.031C129,764.071,131.3,747.519,131.288,747.537Z" transform="translate(38.887)"/><path class="group52" d="M129.33,766.9c-12.513,22.225-23.944,20.041-29.462,24.91-3.717,3.28-9.469,14.664-5.521,26.993,2.794,8.722,30.971,25.821,41.121,14.042,17.793-20.646,11.366-32.448-.277-40.426C126.609,786.54,129.341,766.878,129.33,766.9Z" transform="translate(32.831 15.224)"/><path class="group52" d="M118.065,794.556c-6.225,24.687-17.836,25.526-21.88,31.652-2.724,4.125-5.28,16.6,1.781,27.484,4.995,7.7,36.7,16.936,43.4,2.946,11.738-24.521,2.424-34.258-10.918-38.956C120.614,814.22,118.072,794.533,118.065,794.556Z" transform="translate(33.131 36.971)"/><path class="group52" d="M117.606,823.585c-4.664,25.021-16.2,26.573-19.853,32.934-2.46,4.285-4.226,16.891,3.5,27.323,5.468,7.377,37.693,14.646,43.5.271,10.177-25.2.27-34.34-13.34-38.209C121.383,843.054,117.612,823.562,117.606,823.585Z" transform="translate(34.905 59.797)"/><path class="group52" d="M115.854,851.732c2.088,25.358-8.64,29.835-10.491,36.917-1.245,4.771.37,17.4,10.58,25.473,7.222,5.713,40.247,4.416,42.066-10.959,3.187-26.95-8.787-33.224-22.945-33.447C124.628,869.552,115.852,851.709,115.854,851.732Z" transform="translate(42.254 81.929)"/><path class="group52" d="M126.653,875.573c2.088,25.358-8.639,29.833-10.489,36.916-1.245,4.771.37,17.4,10.579,25.474,7.224,5.713,40.249,4.414,42.068-10.959,3.187-26.952-8.787-33.224-22.947-33.449C135.429,893.393,126.651,875.55,126.653,875.573Z" transform="translate(50.747 100.676)"/><path class="group52" d="M167.737,797.03c10.534,18.708,20.157,16.87,24.8,20.969,3.128,2.76,7.971,12.343,4.646,22.724-2.351,7.342-26.069,21.734-34.615,11.82-14.978-17.381-9.566-27.316.234-34.031C170.027,813.562,167.727,797.012,167.737,797.03Z" transform="translate(80.213 38.917)"/><path class="group52" d="M173.42,816.391c12.513,22.227,23.942,20.041,29.46,24.91,3.717,3.281,9.471,14.664,5.521,26.995-2.792,8.722-30.971,25.819-41.121,14.04-17.792-20.644-11.364-32.448.279-40.426C176.138,836.031,173.407,816.371,173.42,816.391Z" transform="translate(82.544 54.14)"/><path class="group52" d="M184.609,844.049c6.225,24.687,17.836,25.526,21.882,31.65,2.722,4.126,5.279,16.6-1.783,27.486-4.993,7.7-36.7,16.936-43.4,2.946-11.74-24.522-2.424-34.258,10.916-38.956C182.06,863.713,184.6,844.026,184.609,844.049Z" transform="translate(82.317 75.888)"/><path class="group52" d="M185.052,873.078c4.666,25.021,16.2,26.573,19.853,32.934,2.46,4.285,4.226,16.891-3.5,27.322-5.466,7.379-37.693,14.648-43.5.273-10.177-25.2-.268-34.342,13.342-38.209C181.276,892.547,185.048,873.055,185.052,873.078Z" transform="translate(80.559 98.714)"/><path class="group52" d="M186.91,901.224c-2.086,25.36,8.64,29.835,10.491,36.918,1.247,4.771-.368,17.4-10.579,25.474-7.224,5.713-40.249,4.416-42.068-10.959-3.187-26.952,8.787-33.224,22.947-33.449C178.136,919.046,186.914,901.2,186.91,901.224Z" transform="translate(73.104 120.845)"/><path class="group52" d="M229.872,849.84c2.647,21.257,12.261,23.136,15.007,28.663,1.851,3.723,2.694,14.4-4.33,22.784-4.971,5.929-32.42,10.434-36.567-1.935-7.27-21.68,1.52-28.872,13.153-31.444C225.708,866.011,229.869,849.82,229.872,849.84Z" transform="translate(118 80.442)"/><path class="group52" d="M229.029,869.45c3.146,25.251,14.567,27.482,17.829,34.049,2.2,4.423,3.2,17.111-5.146,27.066-5.9,7.042-38.511,12.391-43.438-2.3-8.637-25.753,1.8-34.3,15.623-37.353C224.082,888.66,229.025,869.425,229.029,869.45Z" transform="translate(113.121 95.861)"/><path class="group52" d="M229.227,897.361c-3.615,25.19,6.824,30.29,8.244,37.471.956,4.837-1.418,17.345-12.1,24.8-7.554,5.275-40.444,2.029-41.33-13.428-1.554-27.091,10.777-32.645,24.924-32.03C219.392,914.631,229.231,897.338,229.227,897.361Z" transform="translate(104.3 117.808)"/><path class="group52" d="M64.054,813.557c1.606,28.088,33.443,128.12,42.673,146.481,13.528,26.914,38.992,55.109,56.508,73.891,11.2,12.011,23.572,20.024,36.1,31.816,11.875,11.181,7.3-2.228,6.524-2.819-42.586-32.486-84.09-73.258-108.177-129.814C95.239,927.384,64.09,821.188,64.054,813.557Z" transform="translate(10.056 51.912)"/><path class="group52" d="M111.526,776.594c-5.014,27.69,2.531,132.3,7.211,152.279,6.856,29.285,25.024,62.551,37.666,84.839,8.085,14.253-.481,59.048,8.94,73.391,8.933,13.6,5.864-6.863,5.25-7.617-9.421-11.522,1.867-51.446-6.708-64.259-22.206-33.182-40.3-70.947-47.648-114.624C115.208,894.474,109.774,784.025,111.526,776.594Z" transform="translate(46.083 22.848)"/><path class="group52" d="M188.046,822.746c6.159,22.438,7.619,109.1,5.232,125.887-3.5,24.6-16.016,53.294-24.79,72.553-5.609,12.315-13.192,21.8-19.9,34.281-6.357,11.84-6.311.143-5.859-.522,24.808-36.487,46.582-79.191,50.527-129.764C193.66,920.059,190.034,828.739,188.046,822.746Z" transform="translate(71.783 59.137)"/><path class="group52" d="M216.321,997.987c-14.632,14.8-39.468,24.694-61.629,22.7-32.5-2.919,24.356-3.662,40.964-14.964,26.425-17.983,42.536-36.2,54.713-66.177,7.824-19.262,12.992-47.973,21.643-69.412C273.113,867.4,264.678,949.072,216.321,997.987Z" transform="translate(73.574 96.348)"/><path class="group52" d="M130.137,961.383c5.557-21.788,38.559-22.043,47.248-2.753,4.2,9.335,1.313,10.569-15.362,10.569C155.079,969.2,139.729,963.639,130.137,961.383Z" transform="translate(62.018 154.937)"/></g></svg>