<svg xmlns="http://www.w3.org/2000/svg" width="185.484" height="181.86" viewBox="0 0 185.484 181.86"><defs><style>.group83a{fill:#f48300;}.group83a,.group83b,.group83c,.group83d{fill-rule:evenodd;}.group83b{fill:#fed18c;}.group83c{fill:#051938;}.group83d{fill:#fff;}</style></defs><g transform="translate(746.722 -606.174) rotate(69)"><path class="group83a" d="M395.723,805.343c17.127,13.506,34.371,29.856,32.1,54.441-1.366,14.762-6.9,54.25,4.025,64.667,9.663,9.213,25.313,8.025,22.221,13.267-4.316,5.782-26.864-8.285-31.11-20.313-4.717-13.358-3.234-32.12-.067-52.67.469-3.046,1.221-18.175-5.835-30.614-8.03-14.159-27.624-23.8-27.3-24C391.9,808.766,393.383,803.5,395.723,805.343Z" transform="translate(21.939 18.821)"/><path class="group83a" d="M383.66,812.23c4.041,17.409,10.173,35.918,29.449,43.005,11.571,4.256,43.2,14.258,47.128,26.005,3.475,10.391-.887,19.7,2.046,21.072,3.688,1.417,3.892-18.561.184-25.008-6.6-11.472-23.733-17.854-43.884-23.93-2.455-.741-14.084-5.577-20.911-15.2-7.771-10.952-8.027-28.8-8.294-28.631C387.593,810.637,383.11,809.852,383.66,812.23Z" transform="translate(18.32 21.527)"/><path class="group83a" d="M375.839,817.927c3.256,14.034-.585,18.479,14.339,24.961a36.848,36.848,0,0,1,13.072,10.353c3.227,4.262,1.607,11.825,4.766,15.891,12.561,16.161,32.337,24.647,32.881,22.137,1.006-5.057-27.927-10.153-31.112-29.856-2.776-17.17-20.536-22.353-25.519-24.983-4.022-2.121-2.731-21.891-2.795-21.851C380.036,815.463,377.079,816.741,375.839,817.927Z" transform="translate(13.734 24.497)"/><path class="group83a" d="M392.232,806.415c7.525,1.17,18.129,2.2,26.631,6.456,7.921,3.964,13.875,11.016,17.565,15.891,3.226,4.262,4.491,10.439,4.768,15.891,1.175,23.253,31.28,25.3,32.881,22.139,1.41-4.731-17.6-5.355-22.414-8.607-4.957-3.348-7.086-11.258-8.7-21.25-2.776-17.17-17.878-26.628-22.86-29.256-4.021-2.122-22.131-4.5-22.193-4.459C396.475,804.1,393.474,805.228,392.232,806.415Z" transform="translate(23.403 17.796)"/><path class="group83a" d="M382.77,814.964c-2.184,7.221-5.83,17.131-5.63,26.557.186,8.782,4.038,17.145,6.884,22.544,2.488,4.722,7.571,8.523,12.418,11.126,20.677,11.1,13.421,34.934,5.954,38.915-6.371.048,2.73-18.018,1.849-23.724-.908-5.871-7.194-11.189-15.6-16.951-14.447-9.9-16.534-27.466-16.774-33.048-.194-4.506,5.469-21.693,5.533-21.732C378.829,817.753,381.153,815.559,382.77,814.964Z" transform="translate(11.391 24.725)"/><path class="group83a" d="M445.759,796.769a3.31,3.31,0,0,1,.467,5.63,3.152,3.152,0,0,1-3.164.213c2.66,3.795-3.041,6.308-5.013,4.186,1.076,2.634-3.612,6.121-5.614,2.362,0,0-.048.181-.143.453,1.583,3.405-3.556,5.5-5.409,3.509,1.078,2.633-3.612,6.119-5.612,2.361l0,.008a3.081,3.081,0,0,1-1.323,3.135,3.143,3.143,0,0,1-3.164.213c2.661,3.8-3.041,6.309-5.014,4.188,1.078,2.636-3.612,6.121-5.611,2.362,0,0-.049.181-.145.452,1.583,3.406-3.556,5.5-5.409,3.509,1.078,2.634-3.612,6.121-5.612,2.362,0,0-.024.081-.067.216,2.167,3.619-3.251,5.944-5.186,3.909,1.347,3.307-3.658,5.3-5.48,3.345,1.07,2.615-3.545,6.068-5.569,2.439l-.062-.021c-.01.033-.022.081-.041.141,2.35,3.69-3.2,6.088-5.138,4,1.078,2.635-3.611,6.123-5.611,2.364-.022.008-.987,4.188-4.064,2.795-2.752-1.246-2.935-6.978.56-9.226,5.677-3.652,8.331-5.661,10.62-6.432.062-.044.124-.087.188-.129,4.677-3.008,7.3-4.9,9.361-5.908,3.394-2.237,5.321-3.507,7.116-4.006,6.205-4,8.763-6,11.234-6.561q.215-.048.429-.086c5.846-3.782,8.331-5.7,10.735-6.237a7.489,7.489,0,0,1,1.456-.191,5.672,5.672,0,0,1,2.3-3.072c6.3-4.052,8.876-6.083,11.366-6.642.142-.033.285-.06.426-.087,5.846-3.782,8.334-5.7,10.736-6.237C441.834,795.741,443.244,795.8,445.759,796.769Z" transform="translate(5.4 13.476)"/><path class="group83b" d="M447.761,809.332c-7.655-12.574-35.021-36.387-51.244-36.285-18.512.115-35.12,9.851-40.463,22.595-10.145,24.2,4.324,59.7,11.1,63.875C380.915,853.021,436.306,818.758,447.761,809.332Z" transform="translate(0)"/><path class="group83c" d="M386.083,802.908c-.552.288-.024,1.452-.246,2.237A8.7,8.7,0,0,1,383.4,809.4a7.036,7.036,0,0,1-4.832,1.2c-1.283-.057-2.5-.712-2.456-.175.119,1.475,5,2.048,7.8-.06a10.019,10.019,0,0,0,2.77-4.027C387.474,804.454,387.028,802.416,386.083,802.908Z" transform="translate(13.893 17.569)"/><path class="group83c" d="M389.585,791.639c3.911,4.227-.452,8.973-4.172,5.14C381.427,792.67,386.462,788.844,389.585,791.639Z" transform="translate(18.513 10.403)"/><path class="group83c" d="M370.053,803.353c3.911,4.226-.451,8.972-4.17,5.138C361.9,804.383,366.931,800.556,370.053,803.353Z" transform="translate(6.993 17.312)"/><path class="group83d" d="M368.561,805.161c1.542,1.668-.178,3.541-1.645,2.027C365.342,805.568,367.329,804.058,368.561,805.161Z" transform="translate(8.128 18.72)"/><path class="group83d" d="M387.739,793.394c1.542,1.668-.178,3.541-1.647,2.029C384.521,793.8,386.507,792.291,387.739,793.394Z" transform="translate(19.44 11.779)"/></g></svg>