<svg xmlns="http://www.w3.org/2000/svg" width="121.403" height="136.103" viewBox="0 0 121.403 136.103"><defs><style>.group84a{fill:#f48300;}.group84a,.group84b,.group84c,.group84d{fill-rule:evenodd;}.group84b{fill:#fed18c;}.group84c{fill:#051938;}.group84d{fill:#fff;}</style></defs><g transform="translate(582.156 -691.845) rotate(60)"><path class="group84a" d="M393.821,805.219c11.675,9.206,23.428,20.351,21.878,37.109-.931,10.062-4.7,36.979,2.744,44.079,6.587,6.28,17.254,5.47,15.147,9.043-2.942,3.941-18.311-5.647-21.206-13.846-3.215-9.105-2.2-21.894-.046-35.9.32-2.076.832-12.389-3.977-20.867-5.474-9.651-18.829-16.221-18.609-16.36C391.214,807.553,392.226,803.962,393.821,805.219Z" transform="translate(3.113 2.67)"/><path class="group84a" d="M383.645,811.374c2.755,11.867,6.935,24.483,20.073,29.314,7.887,2.9,29.446,9.718,32.124,17.726,2.369,7.083-.6,13.427,1.395,14.363,2.514.966,2.653-12.652.126-17.046-4.5-7.82-16.177-12.17-29.913-16.312-1.673-.505-9.6-3.8-14.254-10.36-5.3-7.465-5.471-19.629-5.654-19.516C386.326,810.289,383.271,809.753,383.645,811.374Z" transform="translate(2.599 3.055)"/><path class="group84a" d="M375.839,816.861c2.219,9.566-.4,12.6,9.774,17.014a25.113,25.113,0,0,1,8.91,7.057c2.2,2.905,1.1,8.061,3.249,10.832,8.562,11.016,22.042,16.8,22.413,15.089.686-3.447-19.036-6.92-21.207-20.351-1.892-11.7-14-15.237-17.394-17.029-2.742-1.446-1.862-14.921-1.905-14.894A27.178,27.178,0,0,0,375.839,816.861Z" transform="translate(1.949 3.476)"/><path class="group84a" d="M392.232,805.4c5.129.8,12.357,1.5,18.153,4.4,5.4,2.7,9.457,7.509,11.973,10.831,2.2,2.905,3.061,7.115,3.25,10.831.8,15.85,21.322,17.248,22.413,15.091.961-3.225-11.994-3.65-15.278-5.867-3.379-2.282-4.83-7.674-5.93-14.485-1.892-11.7-12.186-18.151-15.582-19.942-2.741-1.447-15.085-3.066-15.127-3.04C395.124,803.82,393.078,804.588,392.232,805.4Z" transform="translate(3.321 2.525)"/><path class="group84a" d="M379.3,814.964c-1.489,4.922-3.974,11.677-3.837,18.1.127,5.986,2.753,11.686,4.692,15.367,1.7,3.219,5.161,5.81,8.465,7.584,14.095,7.567,9.148,23.812,4.058,26.526-4.342.033,1.861-12.281,1.26-16.171-.619-4-4.9-7.627-10.633-11.554-9.848-6.747-11.27-18.722-11.434-22.527-.132-3.071,3.728-14.787,3.771-14.813C376.612,816.865,378.2,815.369,379.3,814.964Z" transform="translate(1.616 3.508)"/><path class="group84a" d="M419,796.49a2.256,2.256,0,0,1,.319,3.837,2.148,2.148,0,0,1-2.157.145c1.813,2.587-2.073,4.3-3.417,2.853.734,1.8-2.462,4.172-3.826,1.61,0,0-.033.124-.1.309,1.079,2.321-2.424,3.748-3.687,2.392.735,1.795-2.462,4.171-3.825,1.609l0,.005a2.1,2.1,0,0,1-.9,2.137,2.142,2.142,0,0,1-2.157.145c1.814,2.587-2.073,4.3-3.418,2.855.735,1.8-2.462,4.172-3.824,1.61,0,0-.034.124-.1.308,1.079,2.321-2.424,3.751-3.687,2.392.735,1.8-2.462,4.172-3.825,1.61,0,0-.016.055-.046.147,1.477,2.467-2.216,4.052-3.535,2.665.918,2.254-2.494,3.615-3.735,2.28.729,1.783-2.417,4.136-3.8,1.662l-.042-.014c-.007.023-.015.055-.028.1,1.6,2.515-2.18,4.149-3.5,2.727.735,1.8-2.461,4.173-3.824,1.612-.015.005-.673,2.854-2.77,1.905-1.876-.85-2-4.756.381-6.289,3.87-2.489,5.679-3.859,7.239-4.385.042-.03.085-.06.128-.088,3.188-2.05,4.977-3.341,6.381-4.027,2.314-1.525,3.627-2.391,4.851-2.731,4.23-2.726,5.973-4.093,7.657-4.472q.146-.033.293-.059c3.985-2.578,5.679-3.883,7.317-4.251a5.1,5.1,0,0,1,.993-.13,3.867,3.867,0,0,1,1.565-2.094c4.294-2.762,6.05-4.146,7.747-4.528.1-.023.194-.041.29-.06,3.985-2.578,5.681-3.883,7.318-4.251A5.83,5.83,0,0,1,419,796.49Z" transform="translate(0.766 1.912)"/><path class="group84b" d="M417.451,797.78c-5.218-8.571-23.872-24.8-34.93-24.733-12.618.078-23.939,6.715-27.581,15.4-6.915,16.5,2.948,40.692,7.566,43.54C371.886,827.56,409.643,804.205,417.451,797.78Z" transform="translate(0 0)"/><path class="group84c" d="M382.907,802.884c-.376.2-.016.989-.168,1.525a5.928,5.928,0,0,1-1.662,2.9,4.8,4.8,0,0,1-3.293.817c-.875-.039-1.7-.486-1.674-.119.081,1.006,3.408,1.4,5.318-.041a6.829,6.829,0,0,0,1.888-2.745C383.855,803.938,383.552,802.549,382.907,802.884Z" transform="translate(1.971 2.493)"/><path class="group84c" d="M387.788,791.334c2.666,2.882-.308,6.116-2.844,3.5C382.228,792.038,385.66,789.429,387.788,791.334Z" transform="translate(2.627 1.476)"/><path class="group84c" d="M368.257,803.048c2.666,2.88-.308,6.115-2.842,3.5C362.7,803.75,366.129,801.142,368.257,803.048Z" transform="translate(0.992 2.456)"/><path class="group84d" d="M367.852,805.041c1.051,1.137-.121,2.413-1.122,1.382C365.658,805.318,367.012,804.289,367.852,805.041Z" transform="translate(1.153 2.656)"/><path class="group84d" d="M387.03,793.274c1.051,1.137-.121,2.413-1.123,1.383C384.837,793.551,386.19,792.522,387.03,793.274Z" transform="translate(2.758 1.671)"/></g></svg>