<svg 
xmlns="http://www.w3.org/2000/svg" 
width="209" 
height="251.537" 
viewBox="0 0 209 251.537">
    <defs>
        <style>
            .group53{fill:#76b5d2;fill-rule:evenodd;}
        </style>
    </defs>
    <g transform="translate(-51.265 -747.537)">
        <path 
            class="group53" 
            d="M68.1,777.886c-3.944,13.764-10.484,14.03-12.868,17.4-1.606,2.271-3.267,9.235.5,15.477,2.667,4.416,20.319,10.166,24.335,2.423,7.039-13.573,1.982-19.209-5.431-22.086C69.173,788.982,68.1,777.874,68.1,777.886Z"
            transform="translate(0.42 5.861)"/>
        <path 
            class="group53" 
            d="M68.674,797.75c-4.685,16.349-12.455,16.665-15.286,20.669-1.908,2.7-3.881,10.971.6,18.386,3.169,5.245,24.138,12.078,28.908,2.879,8.362-16.124,2.354-22.819-6.452-26.236C69.953,810.93,68.678,797.735,68.674,797.75Z"
            transform="translate(0 9.696)"/>
        <path 
            class="group53" 
            d="M67.9,826.064c-.217,16.991-7.635,19.3-9.313,23.9-1.13,3.1-.855,11.592,5.423,17.6,4.441,4.246,26.483,5.432,28.667-4.679,3.825-17.723-3.739-22.638-13.141-23.664C72.6,838.458,67.9,826.049,67.9,826.064Z" 
            transform="translate(1.314 15.164)"/>
        <path 
            class="group53" 
            d="M75.08,854.148c.85,16.972-6.408,19.734-7.8,24.424-.934,3.159-.126,11.623,6.516,17.228,4.7,3.965,26.774,3.794,28.318-6.433,2.706-17.924-5.153-22.363-14.6-22.81C80.555,866.228,75.078,854.131,75.08,854.148Z" 
            transform="translate(3.031 20.587)"/>
        <path 
            class="group53" 
            d="M83.529,880.828c5.293,16.166-.988,20.705-1.09,25.591-.07,3.291,2.939,11.253,10.829,14.952,5.58,2.615,26.847-3.246,25.643-13.517-2.109-18-10.866-20.261-20.1-18.254C92,891.079,83.525,880.814,83.529,880.828Z" 
            transform="translate(6.019 25.739)"/>
        <path class="group53" d="M99.579,901.573c5.29,16.167-.988,20.705-1.092,25.591-.07,3.292,2.939,11.255,10.829,14.952,5.58,2.616,26.847-3.245,25.643-13.517-2.109-18-10.866-20.26-20.1-18.254C108.048,911.824,99.573,901.559,99.579,901.573Z" transform="translate(9.119 29.745)"/><path class="group53" d="M121.136,747.537c-7.036,12.5-13.463,11.268-16.565,14.006-2.09,1.845-5.325,8.244-3.1,15.177,1.57,4.9,17.413,14.518,23.12,7.895,10-11.608,6.39-18.244-.156-22.73C119.606,758.581,121.142,747.525,121.136,747.537Z" transform="translate(9.55 0)"/><path class="group53" d="M117.271,766.9c-8.358,14.845-15.992,13.385-19.678,16.638-2.483,2.19-6.325,9.794-3.688,18.029,1.866,5.826,20.686,17.246,27.465,9.379,11.885-13.79,7.592-21.673-.185-27C115.454,780.017,117.279,766.885,117.271,766.9Z" transform="translate(8.063 3.739)"/><path class="group53" d="M109.874,794.556c-4.158,16.489-11.913,17.049-14.614,21.141-1.819,2.755-3.527,11.086,1.19,18.357,3.336,5.143,24.514,11.312,28.986,1.967,7.84-16.378,1.619-22.881-7.292-26.019C111.577,807.69,109.879,794.54,109.874,794.556Z" transform="translate(8.136 9.08)"/><path class="group53" d="M110.317,823.585c-3.115,16.712-10.82,17.749-13.26,22-1.643,2.862-2.823,11.282,2.34,18.25,3.652,4.928,25.176,9.782,29.053.181,6.8-16.829.18-22.936-8.91-25.52C112.839,836.589,110.321,823.57,110.317,823.585Z" transform="translate(8.572 14.685)"/><path class="group53" d="M112.25,851.732c1.395,16.937-5.771,19.927-7.007,24.658-.832,3.187.247,11.62,7.067,17.014,4.824,3.815,26.882,2.949,28.1-7.32,2.129-18-5.869-22.19-15.325-22.34C118.111,863.635,112.249,851.717,112.25,851.732Z" transform="translate(10.377 20.12)"/><path class="group53" d="M123.05,875.573c1.395,16.937-5.77,19.926-7.006,24.657-.832,3.187.247,11.621,7.066,17.015,4.825,3.815,26.883,2.948,28.1-7.32,2.128-18-5.869-22.19-15.327-22.341C128.912,887.475,123.049,875.558,123.05,875.573Z" transform="translate(12.463 24.724)"/><path class="group53" d="M162.935,797.03c7.036,12.5,13.463,11.268,16.565,14.006,2.089,1.843,5.324,8.244,3.1,15.177-1.57,4.9-17.412,14.517-23.12,7.895-10-11.609-6.389-18.245.156-22.73C164.465,808.072,162.928,797.018,162.935,797.03Z" transform="translate(19.699 9.557)"/><path class="group53" d="M167.715,816.391c8.358,14.846,15.991,13.385,19.677,16.638,2.483,2.192,6.326,9.794,3.688,18.03-1.865,5.826-20.686,17.245-27.465,9.378-11.883-13.789-7.591-21.673.186-27C169.531,829.509,167.707,816.378,167.715,816.391Z" transform="translate(20.271 13.296)"/><path class="group53" d="M175.093,844.049c4.158,16.489,11.913,17.049,14.616,21.139,1.818,2.756,3.526,11.088-1.191,18.358-3.335,5.142-24.513,11.312-28.985,1.967-7.841-16.379-1.619-22.881,7.291-26.019C173.39,857.183,175.089,844.034,175.093,844.049Z" transform="translate(20.216 18.637)"/><path class="group53" d="M174.646,873.078c3.116,16.712,10.821,17.748,13.26,22,1.643,2.862,2.823,11.282-2.34,18.249-3.651,4.929-25.176,9.783-29.053.182-6.8-16.83-.179-22.937,8.911-25.52C172.124,886.082,174.644,873.063,174.646,873.078Z" transform="translate(19.784 24.242)"/><path class="group53" d="M172.739,901.224c-1.394,16.938,5.771,19.927,7.007,24.658.833,3.187-.246,11.621-7.066,17.015-4.825,3.815-26.883,2.949-28.1-7.32-2.128-18,5.869-22.19,15.327-22.341C166.879,913.128,172.742,901.209,172.739,901.224Z" transform="translate(17.953 29.677)"/><path class="group53" d="M220.4,849.84c1.768,14.2,8.189,15.453,10.023,19.144,1.236,2.486,1.8,9.621-2.892,15.218-3.32,3.96-21.654,6.969-24.424-1.292-4.856-14.481,1.015-19.284,8.785-21C217.614,860.641,220.393,849.827,220.4,849.84Z" transform="translate(28.979 19.755)"/><path class="group53" d="M217.771,869.45c2.1,16.866,9.73,18.356,11.908,22.742,1.466,2.954,2.137,11.429-3.437,18.078-3.943,4.7-25.722,8.276-29.013-1.536-5.769-17.2,1.205-22.908,10.435-24.949C214.467,882.281,217.768,869.433,217.771,869.45Z" transform="translate(27.78 23.542)"/><path class="group53" d="M214.178,897.361c-2.415,16.825,4.558,20.231,5.506,25.028.638,3.231-.947,11.585-8.081,16.566-5.046,3.523-27.013,1.355-27.6-8.969-1.038-18.095,7.2-21.8,16.647-21.393C207.609,908.9,214.18,897.346,214.178,897.361Z" transform="translate(25.614 28.931)"/><path class="group53" d="M64.054,813.557c1.073,18.76,22.337,85.573,28.5,97.837C101.591,929.37,118.6,948.2,130.3,960.747c7.483,8.022,15.744,13.375,24.109,21.25,7.932,7.468,4.875-1.488,4.357-1.883-28.444-21.7-56.165-48.93-72.253-86.705C84.883,889.584,64.078,818.654,64.054,813.557Z" transform="translate(2.47 12.749)"/><path class="group53" d="M110.977,776.594c-3.349,18.494,1.691,88.366,4.817,101.71,4.579,19.56,16.714,41.779,25.158,56.665,5.4,9.52-.321,39.439,5.971,49.019,5.967,9.083,3.917-4.584,3.507-5.087-6.292-7.7,1.247-34.361-4.48-42.92-14.831-22.163-26.915-47.387-31.825-76.559C113.436,855.328,109.806,781.557,110.977,776.594Z" transform="translate(11.317 5.611)"/><path class="group53" d="M172.939,822.746c4.114,14.987,5.089,72.871,3.495,84.082-2.336,16.433-10.7,35.6-16.558,48.459-3.746,8.225-8.811,14.559-13.289,22.9-4.246,7.908-4.215.1-3.913-.348,16.57-24.37,31.113-52.893,33.748-86.672C176.689,887.743,174.267,826.749,172.939,822.746Z" transform="translate(17.629 14.523)"/><path class="group53" d="M192.581,955.507c-9.773,9.886-26.362,16.494-41.163,15.163-21.7-1.95,16.268-2.446,27.36-9.995,17.65-12.011,28.41-24.176,36.544-44.2,5.226-12.865,8.677-32.042,14.456-46.362C230.513,868.288,224.879,922.837,192.581,955.507Z" transform="translate(18.068 23.661)"/><path class="group53" d="M130.137,955.8c3.712-14.552,25.754-14.723,31.558-1.839,2.809,6.235.877,7.06-10.261,7.06C146.8,961.024,136.544,957.31,130.137,955.8Z" transform="translate(15.231 38.05)"/></g></svg>