<svg xmlns="http://www.w3.org/2000/svg" width="453.5" height="227.895" viewBox="0 0 453.5 227.895"><defs><style>.a{fill:#e1301c;}.a,.b,.c,.d,.e,.f{fill-rule:evenodd;}.b{fill:#e02b17;}.c{fill:#f48300;}.d{fill:#f0e891;}.e{fill:#45b2b7;}.f{fill:#b52109;}</style></defs><g transform="translate(-776.159 -580.531)"><g transform="translate(1035.203 580.531)"><path class="a" d="M980.582,614.241c1.054,2.765,2.93,2.667,2.448,2.094-.653-.777.669-1.8-1.186-2.016C981.3,614.255,980.655,614.44,980.582,614.241Z" transform="translate(-823.709 -545.655)"/><path class="b" d="M914.456,626.224c-1-15.27,8.063-18.773,7.027-15.046-1.4,5.046,7.04,7.064-1.237,12.014C917.84,624.631,914.385,625.13,914.456,626.224Z" transform="translate(-892.202 -550.243)"/><path class="a" d="M927.836,639.027c5.538,9.094,12.1,7.546,10.024,5.825-2.818-2.328,1.188-6.785-5.512-6.364C930.4,638.61,928.233,639.678,927.836,639.027Z" transform="translate(-878.279 -520.598)"/><path class="a" d="M931.539,637.175c2.83,4.649,6.187,3.858,5.123,2.979-1.438-1.19.608-3.469-2.816-3.253C932.849,636.963,931.742,637.511,931.539,637.175Z" transform="translate(-874.448 -522.227)"/><path class="c" d="M903.591,658.849c15.756-78.708,77.357-14.183,79.377-35.306.48-5.021,11.66-11.215,16.142-12.6,1.731,2.765,11.8,23.3,4.374,22.655-29.978-2.612-8.238-1.408-35.794,26.293C938.751,688.982,901.162,670.982,903.591,658.849Z" transform="translate(-903.479 -549.071)"/><path class="d" d="M910.02,634.258c.421,4.354,6.073,3.967,5.79-.085C915.511,629.831,910.057,631.056,910.02,634.258Z" transform="translate(-896.712 -527.939)"/><path class="e" d="M911.283,633.823a1.147,1.147,0,1,0,2.285-.035C913.45,632.075,911.3,632.559,911.283,633.823Z" transform="translate(-895.405 -526.578)"/><path class="b" d="M928.888,596.57c-.846-12.95,6.836-15.925,5.959-12.763-1.188,4.283,5.972,5.994-1.05,10.191C931.757,595.219,928.827,595.643,928.888,596.57Z" transform="translate(-877.258 -578.345)"/><path class="a" d="M940.236,607.43c4.7,7.715,10.269,6.4,8.5,4.942-2.388-1.976,1.009-5.756-4.673-5.4C942.411,607.076,940.574,607.983,940.236,607.43Z" transform="translate(-865.451 -553.2)"/><path class="a" d="M943.378,605.859c2.4,3.943,5.247,3.271,4.344,2.527-1.221-1.011.517-2.942-2.389-2.761C944.489,605.68,943.549,606.142,943.378,605.859Z" transform="translate(-862.2 -554.581)"/><path class="c" d="M919.671,627.424c13.365-66.763,65.615-12.033,67.329-29.947.407-4.258,6.431-15.77,10.234-16.946,1.469,2.344,13.469,26.02,7.17,25.469-25.428-2.214-6.989-1.192-30.362,22.305C949.494,652.981,917.61,637.715,919.671,627.424Z" transform="translate(-886.825 -580.531)"/><path class="d" d="M925.124,603.383c.358,3.693,5.152,3.367,4.914-.071C929.783,599.63,925.157,600.667,925.124,603.383Z" transform="translate(-881.085 -559.426)"/><path class="e" d="M926.2,603.014a.972.972,0,1,0,1.937-.026C928.033,601.533,926.208,601.944,926.2,603.014Z" transform="translate(-879.976 -558.271)"/><path class="b" d="M966.657,603.635c1.526-12.891,9.624-14.446,8.185-11.491-1.947,4,4.783,6.96-2.887,9.835C969.723,602.818,966.767,602.712,966.657,603.635Z" transform="translate(-838.116 -569.833)"/><path class="a" d="M974.631,616.58c4.464,11.7,12.4,11.284,10.36,8.852-2.763-3.288,2.832-7.609-5.017-8.529C977.691,616.637,974.951,617.418,974.631,616.58Z" transform="translate(-829.866 -543.235)"/><path class="a" d="M978.678,615.256c1.644,4.307,4.566,4.153,3.813,3.257-1.017-1.21,1.044-2.8-1.847-3.139C979.8,615.276,978.794,615.563,978.678,615.256Z" transform="translate(-825.679 -544.605)"/><path class="c" d="M955.193,625.781c25.3-63.286,66.732-.136,71.679-17.453,1.176-4.116,9.2-14.364,13.152-14.844,1.017,2.568,8.511,28,2.415,26.332-24.608-6.712-6.655-2.419-33.923,16.525C979.877,656.239,951.293,635.537,955.193,625.781Z" transform="translate(-850.347 -567.13)"/><path class="d" d="M960.693,609.926c-.319,3.7,4.454,4.228,4.846.806C965.958,607.063,961.218,607.26,960.693,609.926Z" transform="translate(-844.302 -552.166)"/><path class="e" d="M961.672,609.888a.972.972,0,1,0,1.91.317C963.749,608.757,961.878,608.836,961.672,609.888Z" transform="translate(-843.279 -550.967)"/><path class="f" d="M924,608.937c.368-.136,1.9.488,2.608-.149,1.314-1.186,1.817-3.487,1.1-.285C927.174,610.864,923.085,609.271,924,608.937Z" transform="translate(-882.387 -553.277)"/><path class="f" d="M907.13,639.274c.37-.136,1.9.488,2.608-.148,1.314-1.184,1.817-3.487,1.1-.283C910.306,641.2,906.217,639.607,907.13,639.274Z" transform="translate(-899.838 -521.89)"/><path class="f" d="M958.716,614.558c.37-.136,1.9.488,2.61-.146,1.312-1.186,1.817-3.489,1.1-.285C961.892,616.484,957.8,614.893,958.716,614.558Z" transform="translate(-846.468 -547.461)"/></g><g transform="translate(862.607 586.795)"><path class="a" d="M895.751,617.32c1.056,2.765,2.932,2.667,2.448,2.094-.651-.777.669-1.8-1.184-2.016C896.473,617.334,895.826,617.519,895.751,617.32Z" transform="translate(-738.878 -548.734)"/><path class="b" d="M829.626,629.305c-1-15.27,8.061-18.775,7.028-15.048-1.4,5.048,7.04,7.066-1.239,12.014C833.008,627.71,829.555,628.208,829.626,629.305Z" transform="translate(-807.37 -553.321)"/><path class="a" d="M843.005,642.106c5.54,9.1,12.106,7.546,10.024,5.825-2.816-2.328,1.19-6.785-5.51-6.364C845.571,641.689,843.4,642.757,843.005,642.106Z" transform="translate(-793.449 -523.677)"/><path class="a" d="M846.709,640.256c2.83,4.647,6.187,3.858,5.123,2.977-1.441-1.19.606-3.467-2.816-3.253C848.019,640.042,846.912,640.589,846.709,640.256Z" transform="translate(-789.616 -525.306)"/><path class="c" d="M818.76,661.93c15.756-78.71,77.359-14.185,79.377-35.308.48-5.019,11.66-11.215,16.144-12.6,1.731,2.765,11.8,23.3,4.374,22.655-29.978-2.612-8.238-1.408-35.794,26.295C853.922,692.061,816.331,674.061,818.76,661.93Z" transform="translate(-818.648 -552.15)"/><path class="d" d="M825.189,637.337c.423,4.354,6.071,3.967,5.792-.086C830.682,632.91,825.228,634.135,825.189,637.337Z" transform="translate(-811.881 -531.018)"/><path class="e" d="M826.452,636.9a1.148,1.148,0,1,0,2.287-.033C828.621,635.155,826.468,635.638,826.452,636.9Z" transform="translate(-810.574 -529.656)"/><path class="b" d="M844.057,599.649c-.844-12.95,6.838-15.925,5.961-12.761-1.188,4.281,5.971,5.992-1.05,10.189C846.926,598.3,844,598.721,844.057,599.649Z" transform="translate(-792.427 -581.423)"/><path class="a" d="M855.406,610.508c4.7,7.715,10.267,6.4,8.5,4.942-2.389-1.976,1.007-5.756-4.676-5.4C857.581,610.156,855.742,611.061,855.406,610.508Z" transform="translate(-780.619 -556.278)"/><path class="a" d="M858.547,608.938c2.4,3.945,5.247,3.272,4.346,2.527-1.221-1.011.515-2.942-2.389-2.761C859.66,608.757,858.718,609.221,858.547,608.938Z" transform="translate(-777.369 -557.66)"/><path class="c" d="M834.841,630.5c13.363-66.763,65.615-12.032,67.328-29.947.407-4.258,6.431-15.768,10.232-16.946,1.469,2.344,13.469,26.02,7.17,25.471-25.426-2.216-6.987-1.194-30.36,22.3C864.664,656.06,832.78,640.794,834.841,630.5Z" transform="translate(-801.993 -583.61)"/><path class="d" d="M840.294,606.462c.358,3.693,5.151,3.367,4.913-.071C844.951,602.708,840.325,603.746,840.294,606.462Z" transform="translate(-796.253 -562.505)"/><path class="e" d="M841.365,606.095a.973.973,0,1,0,1.939-.028C843.2,604.611,841.377,605.022,841.365,606.095Z" transform="translate(-795.145 -561.35)"/><path class="b" d="M881.826,606.714c1.526-12.889,9.626-14.446,8.185-11.491-1.947,4,4.783,6.958-2.887,9.835C884.894,605.9,881.936,605.791,881.826,606.714Z" transform="translate(-753.285 -572.912)"/><path class="a" d="M889.8,619.659c4.466,11.7,12.4,11.284,10.362,8.853-2.765-3.288,2.83-7.609-5.019-8.527C892.86,619.716,890.122,620.5,889.8,619.659Z" transform="translate(-745.035 -546.314)"/><path class="a" d="M893.847,618.335c1.644,4.307,4.568,4.155,3.815,3.259-1.017-1.211,1.042-2.8-1.847-3.139C894.974,618.355,893.965,618.644,893.847,618.335Z" transform="translate(-740.848 -547.684)"/><path class="c" d="M870.363,628.86c25.3-63.286,66.732-.134,71.678-17.453,1.174-4.114,9.2-14.362,13.15-14.844,1.019,2.568,8.513,28,2.415,26.334-24.606-6.714-6.655-2.421-33.923,16.523C895.045,659.318,866.463,638.616,870.363,628.86Z" transform="translate(-765.515 -570.209)"/><path class="d" d="M875.863,613c-.321,3.7,4.454,4.23,4.844.806C881.128,610.142,876.388,610.339,875.863,613Z" transform="translate(-759.47 -555.245)"/><path class="e" d="M876.841,612.967a.973.973,0,1,0,1.912.317C878.918,611.838,877.049,611.915,876.841,612.967Z" transform="translate(-758.448 -554.045)"/><path class="f" d="M839.167,612.016c.37-.136,1.9.488,2.61-.148,1.312-1.186,1.817-3.487,1.1-.285C842.345,613.943,838.256,612.35,839.167,612.016Z" transform="translate(-797.556 -556.356)"/><path class="f" d="M822.3,642.352c.37-.136,1.9.488,2.61-.147,1.312-1.186,1.817-3.487,1.1-.285C825.475,644.281,821.388,642.686,822.3,642.352Z" transform="translate(-815.007 -524.969)"/><path class="f" d="M873.886,617.637c.37-.136,1.9.49,2.608-.146,1.314-1.186,1.817-3.489,1.1-.285C877.062,619.565,872.975,617.97,873.886,617.637Z" transform="translate(-761.636 -550.54)"/></g><g transform="translate(913.569 691.654)"><path class="a" d="M914.861,666.263c.972,2.552,2.7,2.462,2.258,1.931-.6-.716.619-1.66-1.093-1.862C915.528,666.275,914.93,666.444,914.861,666.263Z" transform="translate(-770.07 -602.957)"/><path class="b" d="M853.828,677.324c-.92-14.094,7.44-17.328,6.486-13.888-1.294,4.659,6.5,6.521-1.143,11.089C856.951,675.853,853.763,676.313,853.828,677.324Z" transform="translate(-833.287 -607.192)"/><path class="a" d="M866.178,689.141c5.111,8.395,11.172,6.964,9.249,5.377-2.6-2.151,1.1-6.265-5.084-5.876C868.544,688.756,866.544,689.741,866.178,689.141Z" transform="translate(-820.437 -579.83)"/><path class="a" d="M869.595,687.431c2.615,4.291,5.711,3.559,4.73,2.749-1.328-1.1.56-3.2-2.6-3C870.806,687.236,869.782,687.738,869.595,687.431Z" transform="translate(-816.902 -581.333)"/><path class="c" d="M843.8,707.437c14.543-72.649,71.4-13.093,73.263-32.588.444-4.635,10.763-10.352,14.9-11.634,1.6,2.551,10.891,21.508,4.037,20.909-27.671-2.411-7.6-1.3-33.038,24.268C876.251,735.247,841.557,718.633,843.8,707.437Z" transform="translate(-843.696 -606.11)"/><path class="d" d="M849.734,684.738c.389,4.018,5.6,3.662,5.345-.079C854.8,680.652,849.768,681.781,849.734,684.738Z" transform="translate(-837.45 -586.606)"/><path class="e" d="M850.9,684.335a1.059,1.059,0,1,0,2.11-.031C852.9,682.724,850.911,683.17,850.9,684.335Z" transform="translate(-836.244 -585.349)"/><path class="b" d="M867.149,649.952c-.781-11.953,6.309-14.7,5.5-11.778-1.094,3.949,5.512,5.53-.968,9.4C869.8,648.705,867.092,649.1,867.149,649.952Z" transform="translate(-819.495 -633.128)"/><path class="a" d="M877.623,659.975c4.336,7.121,9.475,5.906,7.847,4.562-2.205-1.825.93-5.314-4.313-4.983C879.631,659.65,877.934,660.486,877.623,659.975Z" transform="translate(-808.596 -609.92)"/><path class="a" d="M880.522,658.526c2.216,3.638,4.844,3.019,4.01,2.33-1.127-.93.476-2.714-2.2-2.545C881.549,658.359,880.681,658.787,880.522,658.526Z" transform="translate(-805.597 -611.196)"/><path class="c" d="M858.642,678.432c12.336-61.621,60.564-11.1,62.142-27.642.376-3.929,5.937-14.553,9.447-15.642,1.355,2.165,12.431,24.016,6.616,23.51-23.467-2.045-6.448-1.1-28.022,20.586C886.168,702.021,856.739,687.929,858.642,678.432Z" transform="translate(-828.325 -635.148)"/><path class="d" d="M863.675,656.243c.33,3.408,4.753,3.1,4.533-.067C867.974,652.776,863.7,653.734,863.675,656.243Z" transform="translate(-823.026 -615.667)"/><path class="e" d="M864.663,655.9a.9.9,0,1,0,1.79-.026C866.36,654.533,864.675,654.912,864.663,655.9Z" transform="translate(-822.004 -614.602)"/><path class="b" d="M902.008,656.473c1.41-11.9,8.883-13.333,7.556-10.606-1.8,3.691,4.413,6.423-2.665,9.078C904.84,655.719,902.11,655.621,902.008,656.473Z" transform="translate(-783.368 -625.273)"/><path class="a" d="M909.368,668.422c4.122,10.8,11.447,10.413,9.563,8.169-2.549-3.034,2.612-7.023-4.631-7.872C912.192,668.473,909.663,669.2,909.368,668.422Z" transform="translate(-775.753 -600.723)"/><path class="a" d="M913.1,667.2c1.518,3.976,4.216,3.833,3.522,3.009-.938-1.119.962-2.586-1.7-2.9C914.145,667.217,913.213,667.484,913.1,667.2Z" transform="translate(-771.889 -601.989)"/><path class="c" d="M891.427,676.915c23.353-58.413,61.6-.126,66.159-16.11,1.086-3.8,8.488-13.257,12.138-13.7.94,2.372,7.858,25.839,2.23,24.305-22.712-6.2-6.142-2.234-31.312,15.251C914.21,705.025,887.828,685.918,891.427,676.915Z" transform="translate(-794.657 -622.779)"/><path class="d" d="M896.5,662.281c-.293,3.41,4.112,3.9,4.474.741C901.364,659.636,896.989,659.819,896.5,662.281Z" transform="translate(-789.077 -608.967)"/><path class="e" d="M897.407,662.244a.9.9,0,1,0,1.764.293C899.325,661.2,897.6,661.274,897.407,662.244Z" transform="translate(-788.134 -607.86)"/><path class="f" d="M862.635,661.366c.342-.124,1.758.45,2.407-.136,1.213-1.095,1.679-3.219,1.013-.262C865.567,663.146,861.793,661.675,862.635,661.366Z" transform="translate(-824.229 -609.993)"/><path class="f" d="M847.066,689.367c.342-.124,1.758.452,2.409-.136,1.211-1.093,1.677-3.219,1.013-.262C850,691.147,846.224,689.676,847.066,689.367Z" transform="translate(-840.336 -581.023)"/><path class="f" d="M894.679,666.555c.342-.126,1.758.452,2.409-.136,1.213-1.093,1.678-3.219,1.013-.263C897.611,668.335,893.839,666.864,894.679,666.555Z" transform="translate(-791.076 -604.624)"/></g><g transform="translate(776.159 708.879)"><path class="a" d="M833.612,668.734c.787,2.059,2.185,1.986,1.825,1.558-.486-.58.5-1.341-.883-1.5C834.151,668.742,833.669,668.881,833.612,668.734Z" transform="translate(-716.719 -617.625)"/><path class="b" d="M784.339,677.663c-.743-11.378,6.006-13.99,5.235-11.211-1.042,3.76,5.247,5.263-.922,8.95C786.86,676.477,784.286,676.847,784.339,677.663Z" transform="translate(-767.755 -621.044)"/><path class="a" d="M794.309,687.2c4.128,6.777,9.019,5.624,7.469,4.342-2.1-1.736.885-5.058-4.106-4.745C796.222,686.892,794.6,687.69,794.309,687.2Z" transform="translate(-757.381 -598.955)"/><path class="a" d="M797.068,685.822c2.11,3.465,4.61,2.875,3.817,2.22-1.072-.887.454-2.586-2.1-2.423C798.047,685.663,797.221,686.072,797.068,685.822Z" transform="translate(-754.527 -600.168)"/><path class="c" d="M776.243,706.043c11.74-58.651,57.644-14.639,59.147-30.378.358-3.74,8.69-8.358,12.031-9.392,1.29,2.061,8.793,17.363,3.259,16.881-22.338-1.945-6.138-1.048-26.671,19.593C802.442,724.425,774.432,715.085,776.243,706.043Z" transform="translate(-776.159 -620.171)"/><path class="d" d="M781.033,683.649c.315,3.243,4.525,2.956,4.317-.063C785.127,680.349,781.061,681.263,781.033,683.649Z" transform="translate(-771.116 -604.425)"/><path class="e" d="M781.974,683.325a.855.855,0,1,0,1.7-.026C783.589,682.023,781.986,682.383,781.974,683.325Z" transform="translate(-770.143 -603.41)"/><path class="b" d="M795.093,655.565c-.631-9.65,5.095-11.866,4.441-9.51-.885,3.19,4.45,4.466-.783,7.593C797.231,654.56,795.048,654.874,795.093,655.565Z" transform="translate(-756.621 -641.985)"/><path class="a" d="M803.549,663.657c3.5,5.75,7.652,4.771,6.336,3.683-1.78-1.471.753-4.289-3.483-4.022C805.171,663.394,803.8,664.07,803.549,663.657Z" transform="translate(-747.822 -623.248)"/><path class="a" d="M805.89,662.489c1.788,2.938,3.908,2.438,3.237,1.88-.91-.751.384-2.191-1.78-2.055C806.718,662.352,806.018,662.7,805.89,662.489Z" transform="translate(-745.4 -624.277)"/><path class="c" d="M788.225,678.556c9.959-49.748,48.9-8.964,50.171-22.315.3-3.172,4.792-11.75,7.624-12.627,1.095,1.746,10.037,19.388,5.343,18.979-18.946-1.65-5.2-.889-22.623,16.621C810.449,697.6,786.691,686.224,788.225,678.556Z" transform="translate(-763.749 -643.614)"/><path class="d" d="M792.288,660.642c.266,2.753,3.839,2.509,3.662-.053C795.761,657.845,792.312,658.62,792.288,660.642Z" transform="translate(-759.472 -627.888)"/><path class="e" d="M793.087,660.368a.724.724,0,1,0,1.443-.022C794.456,659.263,793.1,659.57,793.087,660.368Z" transform="translate(-758.645 -627.027)"/><path class="b" d="M823.236,660.83c1.137-9.605,7.172-10.763,6.1-8.562-1.451,2.979,3.565,5.184-2.151,7.328C825.521,660.219,823.319,660.14,823.236,660.83Z" transform="translate(-727.454 -635.642)"/><path class="a" d="M829.178,670.476c3.327,8.718,9.241,8.407,7.721,6.6-2.059-2.45,2.108-5.668-3.74-6.354C831.459,670.519,829.416,671.1,829.178,670.476Z" transform="translate(-721.306 -615.823)"/><path class="a" d="M832.194,669.489c1.225,3.211,3.4,3.095,2.842,2.429-.759-.9.777-2.088-1.377-2.34C833.032,669.505,832.282,669.719,832.194,669.489Z" transform="translate(-718.186 -616.844)"/><path class="c" d="M814.694,677.333c18.854-47.16,49.727-.1,53.412-13.005.877-3.066,6.852-10.7,9.8-11.062.757,1.915,6.342,20.861,1.8,19.621-18.336-5-4.958-1.8-25.278,12.313C833.086,700.027,811.79,684.6,814.694,677.333Z" transform="translate(-736.568 -633.628)"/><path class="d" d="M818.793,665.519c-.24,2.753,3.318,3.15,3.609.6C822.716,663.383,819.183,663.532,818.793,665.519Z" transform="translate(-732.062 -622.478)"/><path class="e" d="M819.521,665.49a.726.726,0,1,0,1.426.236C821.07,664.648,819.676,664.706,819.521,665.49Z" transform="translate(-731.301 -621.583)"/><path class="f" d="M791.449,664.78c.277-.1,1.418.364,1.943-.11.981-.883,1.355-2.6.818-.212C793.815,666.217,790.77,665.028,791.449,664.78Z" transform="translate(-760.442 -623.305)"/><path class="f" d="M778.88,689.386c.275-.1,1.418.364,1.943-.11.979-.883,1.355-2.6.818-.212C781.246,690.823,778.2,689.634,778.88,689.386Z" transform="translate(-773.445 -597.848)"/><path class="f" d="M817.319,668.969c.277-.1,1.42.364,1.945-.11.979-.883,1.355-2.6.818-.211C819.687,670.406,816.641,669.217,817.319,668.969Z" transform="translate(-733.677 -618.971)"/></g></g></svg>