<svg xmlns="http://www.w3.org/2000/svg" width="442.498" height="622.145" viewBox="0 0 442.498 622.145"><defs><style>.group167a{opacity:0.22;}.group167b{fill:#f48300;}.group167b,.group167c,.group167d,.group167e{fill-rule:evenodd;}.group167c{fill:#fed18c;}.group167d{fill:#051938;}.group167e{fill:#fff;}</style></defs><g class="group167a" transform="translate(312.345 -803.404) rotate(30)"><path class="group167b" d="M406.491,806.041c48,37.85,96.325,83.672,89.95,152.573-3.827,41.37-19.337,152.038,11.281,181.231,27.081,25.82,70.942,22.492,62.276,37.182-12.1,16.205-75.286-23.218-87.187-56.929-13.22-37.436-9.063-90.016-.187-147.609,1.314-8.537,3.422-50.936-16.352-85.8C443.766,847.01,388.856,820,389.76,819.43,395.771,815.634,399.932,800.873,406.491,806.041Z" transform="translate(43.826 110.263)"/><path class="group167b" d="M383.744,817.075c11.326,48.789,28.511,100.661,82.531,120.524,32.428,11.928,121.067,39.958,132.077,72.88,9.74,29.122-2.486,55.2,5.734,59.054,10.337,3.97,10.907-52.019.517-70.087-18.491-32.151-66.513-50.036-122.987-67.066-6.88-2.076-39.472-15.63-58.6-42.6-21.779-30.694-22.5-80.7-23.245-80.241C394.767,812.611,382.2,810.41,383.744,817.075Z" transform="translate(22.623 126.114)"/><path class="group167b" d="M375.839,823.962c9.125,39.33-1.64,51.787,40.185,69.953,7.868,3.413,25.187,13.892,36.634,29.014,9.045,11.946,4.5,33.141,13.358,44.534,35.2,45.291,90.627,69.075,92.15,62.039,2.82-14.173-78.267-28.454-87.191-83.671-7.779-48.12-57.553-62.646-71.517-70.015-11.273-5.944-7.655-61.349-7.833-61.238C387.6,817.056,379.314,820.639,375.839,823.962Z" transform="translate(-4.243 143.518)"/><path class="group167b" d="M392.232,812.179c21.088,3.28,50.807,6.171,74.636,18.094,22.2,11.108,38.884,30.873,49.225,44.534,9.04,11.946,12.587,29.256,13.362,44.534,3.293,65.167,87.664,70.915,92.151,62.044,3.952-13.26-49.314-15.006-62.815-24.122-13.893-9.384-19.859-31.55-24.381-59.553-7.78-48.12-50.1-74.627-64.067-81.992-11.268-5.948-62.022-12.605-62.2-12.5C404.124,805.7,395.712,808.85,392.232,812.179Z" transform="translate(52.404 104.259)"/><path class="group167b" d="M402.424,814.964c-6.122,20.237-16.339,48.009-15.777,74.426.521,24.613,11.317,48.049,19.293,63.18,6.973,13.233,21.217,23.886,34.8,31.18,57.949,31.113,37.614,97.9,16.686,109.059-17.854.134,7.65-50.5,5.182-66.486-2.544-16.454-20.162-31.359-43.718-47.505C378.4,951.078,372.553,901.843,371.88,886.2c-.544-12.627,15.327-60.8,15.505-60.9C391.378,822.779,397.892,816.63,402.424,814.964Z" transform="translate(-17.969 144.849)"/><path class="group167b" d="M597.261,798.346c5.525,2.134,7.5,11.794,1.31,15.777-4.612,2.963-7.615.794-8.867.6,7.454,10.635-8.524,17.68-14.049,11.732,3.016,7.383-10.123,17.154-15.733,6.621-.009,0-.134.508-.4,1.27,4.438,9.544-9.967,15.412-15.158,9.834,3.021,7.378-10.123,17.149-15.728,6.617l-.009.022a8.635,8.635,0,0,1-3.707,8.787c-4.612,2.967-7.615.8-8.867.6,7.458,10.636-8.524,17.68-14.053,11.736,3.021,7.387-10.123,17.154-15.724,6.621-.013,0-.138.508-.405,1.265,4.438,9.544-9.967,15.421-15.158,9.834,3.021,7.383-10.123,17.154-15.728,6.621-.009,0-.067.227-.187.606,6.073,10.141-9.112,16.659-14.534,10.956,3.774,9.267-10.252,14.864-15.358,9.375,3,7.33-9.936,17.007-15.608,6.835l-.174-.058c-.027.094-.062.227-.116.4,6.585,10.341-8.965,17.06-14.4,11.21,3.021,7.383-10.119,17.159-15.724,6.626-.062.022-2.767,11.736-11.388,7.833-7.713-3.493-8.225-19.556,1.568-25.856,15.911-10.235,23.347-15.866,29.763-18.028.174-.125.348-.245.526-.361,13.108-8.43,20.465-13.737,26.235-16.557,9.513-6.269,14.913-9.829,19.943-11.228,17.39-11.206,24.559-16.829,31.483-18.388q.6-.134,1.2-.241c16.383-10.6,23.347-15.965,30.084-17.479a20.93,20.93,0,0,1,4.081-.535,15.9,15.9,0,0,1,6.434-8.608c17.653-11.358,24.876-17.047,31.853-18.616.4-.094.8-.169,1.194-.245,16.383-10.6,23.356-15.964,30.089-17.479C586.261,795.468,590.213,795.624,597.261,798.346Z" transform="translate(-53.07 78.948)"/><path class="group167c" d="M619.374,874.738C597.92,839.5,521.226,772.763,475.761,773.048c-51.881.321-98.424,27.607-113.4,63.323-28.431,67.823,12.119,167.3,31.109,179.012C432.034,997.178,587.271,901.155,619.374,874.738Z" transform="translate(-84.704 0)"/><path class="group167d" d="M404.061,803.042c-1.546.806-.067,4.068-.691,6.269-1.279,4.5-3.515,9.143-6.835,11.914-3.422,2.851-8.421,3.582-13.541,3.359-3.6-.161-7.009-2-6.884-.49.334,4.135,14.013,5.739,21.863-.169,3.631-2.727,6.184-7.557,7.762-11.286C407.96,807.377,406.712,801.665,404.061,803.042Z" transform="translate(-3.313 102.93)"/><path class="group167d" d="M399.758,793.361c10.961,11.847-1.265,25.147-11.691,14.405C376.9,796.253,391.007,785.528,399.758,793.361Z" transform="translate(23.754 60.943)"/><path class="group167d" d="M380.225,805.077c10.961,11.843-1.265,25.143-11.687,14.4C357.364,807.964,371.475,797.24,380.225,805.077Z" transform="translate(-43.735 101.42)"/><path class="group167e" d="M372.575,805.841c4.322,4.674-.5,9.923-4.611,5.681C363.552,806.982,369.122,802.75,372.575,805.841Z" transform="translate(-37.088 109.669)"/><path class="group167e" d="M391.753,794.075c4.322,4.674-.5,9.922-4.616,5.685C382.735,795.215,388.3,790.982,391.753,794.075Z" transform="translate(29.184 69.007)"/></g></svg>