<svg xmlns="http://www.w3.org/2000/svg" width="314" height="377.908" viewBox="0 0 314 377.908"><defs><style>.a{fill:#f48300;fill-rule:evenodd;}</style></defs><g transform="translate(-874.115 -699.267)"><path class="a" d="M1045.018,729.616c5.926,20.677,15.751,21.076,19.332,26.14,2.412,3.411,4.908,13.876-.758,23.253-4.006,6.634-30.527,15.276-36.56,3.642-10.576-20.392-2.978-28.861,8.159-33.181C1043.4,746.286,1045.013,729.6,1045.018,729.616Z" transform="translate(117.178 24.052)"/><path class="a" d="M1046.8,749.48c7.039,24.563,18.712,25.038,22.966,31.054,2.866,4.051,5.831,16.48-.9,27.623-4.761,7.88-36.264,18.144-43.431,4.325-12.564-24.226-3.535-34.284,9.694-39.417C1044.879,769.282,1046.793,749.457,1046.8,749.48Z" transform="translate(115.16 39.794)"/><path class="a" d="M1051.377,777.793c.326,25.529,11.47,29,13.992,35.906,1.7,4.65,1.285,17.416-8.147,26.434-6.672,6.38-39.788,8.161-43.069-7.03-5.747-26.628,5.62-34.009,19.743-35.553C1044.305,796.415,1051.377,777.77,1051.377,777.793Z" transform="translate(109.775 62.233)"/><path class="a" d="M1045.106,805.877c-1.276,25.5,9.63,29.65,11.712,36.7,1.4,4.745.19,17.461-9.789,25.882-7.059,5.958-40.226,5.7-42.545-9.663-4.065-26.929,7.742-33.6,21.937-34.269C1036.88,824.028,1045.108,805.854,1045.106,805.877Z" transform="translate(102.675 84.49)"/><path class="a" d="M1040.735,832.558c-7.95,24.289,1.484,31.107,1.638,38.448.106,4.944-4.415,16.907-16.269,22.462-8.383,3.931-40.335-4.876-38.526-20.306,3.169-27.047,16.324-30.44,30.2-27.427C1028.01,847.958,1040.743,832.535,1040.735,832.558Z" transform="translate(89.863 105.635)"/><path class="a" d="M1024.686,853.3c-7.95,24.289,1.484,31.107,1.638,38.448.106,4.944-4.415,16.907-16.269,22.462-8.384,3.931-40.335-4.876-38.526-20.306,3.169-27.047,16.324-30.44,30.2-27.425C1011.961,868.7,1024.694,853.28,1024.686,853.3Z" transform="translate(77.144 122.075)"/><path class="a" d="M989.136,699.267c10.57,18.773,20.227,16.928,24.887,21.042,3.141,2.77,8,12.386,4.664,22.8-2.359,7.367-26.162,21.81-34.735,11.861-15.03-17.441-9.6-27.411.235-34.149C991.436,715.857,989.127,699.249,989.136,699.267Z" transform="translate(79.657 0)"/><path class="a" d="M994.827,718.628c12.558,22.3,24.027,20.11,29.564,25,3.73,3.291,9.5,14.715,5.541,27.088-2.8,8.753-31.079,25.909-41.264,14.089-17.854-20.716-11.4-32.561.278-40.566C997.557,738.337,994.817,718.608,994.827,718.628Z" transform="translate(82.006 15.344)"/><path class="a" d="M1006.059,746.286c6.247,24.772,17.9,25.615,21.956,31.76,2.734,4.141,5.3,16.658-1.787,27.581-5.012,7.726-36.829,16.995-43.549,2.956-11.779-24.608-2.432-34.378,10.956-39.091C1003.5,766.018,1006.052,746.263,1006.059,746.286Z" transform="translate(81.777 37.263)"/><path class="a" d="M1006.511,775.315c4.68,25.108,16.256,26.665,19.922,33.049,2.468,4.3,4.241,16.95-3.515,27.416-5.487,7.4-37.824,14.7-43.65.274-10.212-25.285-.271-34.461,13.387-38.344C1002.722,794.85,1006.506,775.292,1006.511,775.315Z" transform="translate(80.006 60.269)"/><path class="a" d="M1008.409,803.461c-2.1,25.448,8.67,29.939,10.527,37.046,1.249,4.788-.371,17.459-10.617,25.563-7.247,5.733-40.387,4.431-42.212-11-3.2-27.045,8.817-33.339,23.025-33.563C999.6,821.345,1008.41,803.438,1008.409,803.461Z" transform="translate(72.492 82.575)"/><path class="a" d="M997.609,827.3c-2.1,25.447,8.668,29.939,10.526,37.046,1.249,4.788-.371,17.459-10.615,25.563-7.249,5.731-40.389,4.429-42.214-11-3.2-27.044,8.819-33.339,23.027-33.563C988.8,845.184,997.611,827.279,997.609,827.3Z" transform="translate(63.932 101.469)"/><path class="a" d="M952.742,748.759c-10.571,18.775-20.227,16.93-24.887,21.042-3.139,2.771-8,12.388-4.662,22.8,2.359,7.369,26.16,21.811,34.735,11.861,15.03-17.439,9.6-27.409-.235-34.149C950.446,765.351,952.753,748.743,952.742,748.759Z" transform="translate(38.004 39.223)"/><path class="a" d="M950.806,768.121c-12.556,22.3-24.027,20.11-29.564,25-3.73,3.291-9.5,14.715-5.541,27.088,2.8,8.753,31.078,25.909,41.264,14.089,17.853-20.718,11.4-32.561-.28-40.566C948.076,787.83,950.817,768.1,950.806,768.121Z" transform="translate(31.901 54.567)"/><path class="a" d="M939.5,795.779c-6.247,24.771-17.9,25.613-21.956,31.76-2.734,4.139-5.3,16.658,1.787,27.581,5.01,7.726,36.829,16.995,43.547,2.956,11.78-24.608,2.432-34.377-10.954-39.091C942.059,815.511,939.506,795.756,939.5,795.779Z" transform="translate(32.204 76.487)"/><path class="a" d="M939.033,824.807c-4.682,25.109-16.258,26.665-19.922,33.05-2.468,4.3-4.241,16.95,3.515,27.417,5.485,7.4,37.824,14.7,43.65.274,10.212-25.285.269-34.461-13.388-38.344C942.822,844.344,939.036,824.786,939.033,824.807Z" transform="translate(33.991 99.492)"/><path class="a" d="M937.242,852.954c2.094,25.448-8.67,29.939-10.527,37.046-1.25,4.788.369,17.459,10.615,25.563,7.249,5.732,40.389,4.429,42.214-11,3.2-27.044-8.817-33.339-23.026-33.563C946.047,870.836,937.24,852.931,937.242,852.954Z" transform="translate(41.398 121.799)"/><path class="a" d="M890.479,801.57c-2.658,21.331-12.306,23.215-15.061,28.763-1.857,3.736-2.7,14.455,4.345,22.863,4.989,5.949,32.532,10.468,36.695-1.943,7.3-21.754-1.526-28.97-13.2-31.553C894.657,817.8,890.481,801.55,890.479,801.57Z" transform="translate(0 81.076)"/><path class="a" d="M895.041,821.179c-3.157,25.341-14.616,27.58-17.889,34.167-2.2,4.438-3.212,17.172,5.162,27.162,5.924,7.066,38.645,12.435,43.588-2.309,8.667-25.841-1.81-34.414-15.677-37.481C900,840.458,895.044,821.156,895.041,821.179Z" transform="translate(1.18 96.617)"/><path class="a" d="M895.017,849.09c3.628,25.278-6.847,30.4-8.272,37.6-.959,4.852,1.425,17.405,12.141,24.889,7.581,5.293,40.584,2.034,41.473-13.474,1.56-27.185-10.814-32.758-25.011-32.141C904.887,866.422,895.013,849.068,895.017,849.09Z" transform="translate(9.856 118.736)"/><path class="a" d="M1100.082,765.287c-1.613,28.186-33.561,128.563-42.823,146.99-13.575,27.008-39.127,55.3-56.7,74.146-11.241,12.053-23.654,20.1-36.221,31.926-11.917,11.219-7.322-2.233-6.545-2.827,42.732-32.6,84.381-73.513,108.551-130.267C1068.789,879.509,1100.044,772.945,1100.082,765.287Z" transform="translate(65.11 52.322)"/><path class="a" d="M1016.407,728.323c5.032,27.787-2.54,132.76-7.236,152.81-6.88,29.385-25.111,62.768-37.8,85.132-8.113,14.3.482,59.255-8.972,73.645-8.964,13.648-5.885-6.887-5.268-7.641,9.454-11.564-1.873-51.626,6.731-64.482,22.283-33.3,40.437-71.195,47.814-115.024C1012.713,846.613,1018.166,735.782,1016.407,728.323Z" transform="translate(64.994 23.027)"/><path class="a" d="M935.334,774.476c-6.181,22.514-7.643,109.479-5.25,126.324,3.51,24.686,16.072,53.479,24.876,72.8,5.63,12.359,13.238,21.874,19.967,34.4,6.378,11.881,6.331.142,5.878-.523-24.895-36.614-46.743-79.466-50.7-130.217C929.7,872.127,933.339,780.49,935.334,774.476Z" transform="translate(43.492 59.604)"/><path class="a" d="M940.448,950.162c14.682,14.851,39.605,24.778,61.845,22.781,32.608-2.931-24.443-3.675-41.108-15.016-26.516-18.045-42.683-36.322-54.9-66.407-7.849-19.328-13.037-48.14-21.718-69.655C883.458,819.124,891.922,901.076,940.448,950.162Z" transform="translate(8.209 97.107)"/><path class="a" d="M992.144,913.171c-5.578-21.863-38.695-22.121-47.414-2.762-4.219,9.366-1.318,10.606,15.416,10.606C967.114,921.015,982.517,915.435,992.144,913.171Z" transform="translate(54.593 156.16)"/></g></svg>