<svg xmlns="http://www.w3.org/2000/svg" width="146.258" height="176.026" viewBox="0 0 146.258 176.026"><defs><style>.group55{fill:#76b5d2;fill-rule:evenodd;}</style></defs><g transform="translate(-874.115 -699.267)"><path class="group55" d="M1032.707,729.616c2.76,9.631,7.337,9.817,9,12.176,1.124,1.589,2.286,6.463-.353,10.831-1.866,3.09-14.219,7.115-17.029,1.7-4.926-9.5-1.387-13.443,3.8-15.456C1031.953,737.381,1032.7,729.608,1032.707,729.616Z" transform="translate(-24.406 -5.01)"/><path class="group55" d="M1032.176,749.48c3.279,11.441,8.716,11.662,10.7,14.464,1.335,1.887,2.716,7.676-.419,12.866-2.218,3.67-16.891,8.451-20.23,2.015-5.852-11.284-1.646-15.969,4.515-18.36C1031.281,758.7,1032.173,749.469,1032.176,749.48Z" transform="translate(-23.986 -8.288)"/><path class="group55" d="M1030.678,777.793c.152,11.891,5.343,13.508,6.517,16.725.791,2.166.6,8.112-3.795,12.313-3.108,2.972-18.533,3.8-20.061-3.275-2.677-12.4,2.617-15.841,9.2-16.56C1027.384,786.467,1030.678,777.782,1030.678,777.793Z" transform="translate(-22.864 -12.962)"/><path class="group55" d="M1022.972,805.877c-.595,11.878,4.485,13.811,5.455,17.093.654,2.21.089,8.133-4.56,12.056-3.288,2.775-18.737,2.655-19.817-4.5-1.894-12.543,3.606-15.65,10.218-15.962C1019.14,814.332,1022.972,805.866,1022.972,805.877Z" transform="translate(-21.385 -17.598)"/><path class="group55" d="M1012.3,832.558c-3.7,11.313.691,14.489.763,17.909.049,2.3-2.056,7.875-7.578,10.463-3.905,1.831-18.788-2.271-17.945-9.458,1.476-12.6,7.6-14.179,14.069-12.775C1006.372,839.731,1012.3,832.547,1012.3,832.558Z" transform="translate(-18.717 -22.002)"/><path class="group55" d="M996.25,853.3c-3.7,11.313.691,14.49.763,17.909.049,2.3-2.056,7.875-7.578,10.463-3.9,1.831-18.788-2.271-17.945-9.458,1.476-12.6,7.6-14.179,14.069-12.775C990.323,860.476,996.254,853.292,996.25,853.3Z" transform="translate(-16.068 -25.426)"/><path class="group55" d="M981.385,699.267c4.924,8.744,9.421,7.885,11.592,9.8,1.463,1.29,3.726,5.769,2.172,10.621-1.1,3.432-12.186,10.159-16.179,5.525-7-8.124-4.472-12.768.109-15.906C982.456,706.994,981.381,699.259,981.385,699.267Z" transform="translate(-16.591)"/><path class="group55" d="M985.62,718.628c5.85,10.389,11.192,9.367,13.771,11.643,1.737,1.533,4.426,6.854,2.581,12.618-1.306,4.077-14.476,12.068-19.22,6.563-8.316-9.649-5.312-15.167.129-18.9C986.891,727.808,985.615,718.619,985.62,718.628Z" transform="translate(-17.08 -3.196)"/><path class="group55" d="M990.7,746.286c2.91,11.539,8.337,11.931,10.227,14.793,1.273,1.929,2.468,7.759-.832,12.847-2.334,3.6-17.155,7.916-20.285,1.377-5.486-11.462-1.133-16.013,5.1-18.208C989.505,755.477,990.693,746.275,990.7,746.286Z" transform="translate(-17.033 -7.761)"/><path class="group55" d="M989.714,775.315c2.18,11.695,7.572,12.42,9.279,15.394,1.15,2,1.975,7.9-1.637,12.77-2.556,3.449-17.618,6.846-20.332.128-4.757-11.778-.126-16.052,6.235-17.86C987.948,784.414,989.711,775.3,989.714,775.315Z" transform="translate(-16.664 -12.553)"/><path class="group55" d="M985.533,803.461c-.976,11.854,4.039,13.945,4.9,17.256.582,2.23-.173,8.132-4.945,11.907-3.376,2.67-18.812,2.064-19.662-5.122-1.49-12.6,4.107-15.529,10.725-15.633C981.432,811.791,985.534,803.45,985.533,803.461Z" transform="translate(-15.099 -17.199)"/><path class="group55" d="M974.733,827.3c-.976,11.853,4.038,13.945,4.9,17.256.582,2.23-.173,8.132-4.944,11.907-3.377,2.669-18.813,2.063-19.663-5.123-1.49-12.6,4.108-15.529,10.726-15.633C970.63,835.631,974.733,827.291,974.733,827.3Z" transform="translate(-13.316 -21.134)"/><path class="group55" d="M936.357,748.759c-4.924,8.745-9.422,7.886-11.592,9.8-1.462,1.291-3.725,5.77-2.172,10.621,1.1,3.432,12.185,10.16,16.179,5.525,7-8.123,4.471-12.767-.109-15.906C935.287,756.487,936.362,748.751,936.357,748.759Z" transform="translate(-7.916 -8.169)"/><path class="group55" d="M931.341,768.121c-5.849,10.388-11.191,9.367-13.771,11.643-1.737,1.533-4.427,6.854-2.581,12.618,1.3,4.077,14.476,12.068,19.22,6.563,8.316-9.65,5.312-15.167-.13-18.9C930.069,777.3,931.346,768.111,931.341,768.121Z" transform="translate(-6.644 -11.365)"/><path class="group55" d="M926.279,795.779c-2.91,11.538-8.337,11.93-10.227,14.793-1.273,1.928-2.468,7.759.833,12.847,2.334,3.6,17.155,7.916,20.284,1.377,5.487-11.462,1.133-16.012-5.1-18.208C927.47,804.97,926.281,795.768,926.279,795.779Z" transform="translate(-6.707 -15.931)"/><path class="group55" d="M927.266,824.807c-2.181,11.7-7.573,12.421-9.28,15.395-1.15,2-1.975,7.9,1.637,12.77,2.555,3.448,17.618,6.847,20.332.128,4.757-11.778.125-16.052-6.236-17.86C929.031,833.907,927.267,824.8,927.266,824.807Z" transform="translate(-7.08 -20.722)"/><path class="group55" d="M931.424,852.954c.975,11.854-4.039,13.945-4.9,17.256-.582,2.23.172,8.132,4.945,11.907,3.376,2.67,18.813,2.063,19.663-5.123,1.49-12.6-4.107-15.529-10.726-15.633C935.525,861.283,931.423,852.943,931.424,852.954Z" transform="translate(-8.622 -25.368)"/><path class="group55" d="M881.737,801.57c-1.238,9.936-5.732,10.813-7.015,13.4-.865,1.74-1.259,6.733,2.024,10.65,2.324,2.771,15.153,4.876,17.092-.905,3.4-10.133-.711-13.494-6.148-14.7C883.683,809.129,881.738,801.561,881.737,801.57Z" transform="translate(0 -16.887)"/><path class="group55" d="M884.657,821.179c-1.47,11.8-6.808,12.846-8.333,15.915-1.027,2.067-1.5,8,2.4,12.652,2.759,3.291,18,5.792,20.3-1.075,4.037-12.036-.843-16.03-7.3-17.458C886.969,830.159,884.659,821.168,884.657,821.179Z" transform="translate(-0.246 -20.123)"/><path class="group55" d="M890.494,849.09c1.69,11.774-3.189,14.159-3.853,17.515-.447,2.26.664,8.107,5.655,11.593,3.531,2.466,18.9.948,19.318-6.276.726-12.663-5.037-15.258-11.65-14.971C895.092,857.163,890.493,849.08,890.494,849.09Z" transform="translate(-2.053 -24.731)"/><path class="group55" d="M1023.257,765.287c-.751,13.129-15.633,59.883-19.947,68.466-6.323,12.58-18.225,25.758-26.412,34.536-5.236,5.614-11.018,9.36-16.872,14.871-5.551,5.226-3.411-1.04-3.048-1.317,19.9-15.184,39.3-34.242,50.562-60.677C1008.681,818.491,1023.24,768.854,1023.257,765.287Z" transform="translate(-13.561 -10.898)"/><path class="group55" d="M984.2,728.323c2.344,12.943-1.183,61.839-3.371,71.177-3.2,13.687-11.7,29.237-17.605,39.654-3.779,6.663.225,27.6-4.179,34.3-4.176,6.357-2.741-3.208-2.454-3.559,4.4-5.386-.872-24.047,3.135-30.035,10.379-15.51,18.835-33.162,22.271-53.577C982.483,783.421,985.023,731.8,984.2,728.323Z" transform="translate(-13.537 -4.796)"/><path class="group55" d="M931.947,774.476c-2.879,10.487-3.56,50.994-2.446,58.84,1.635,11.5,7.486,24.91,11.587,33.911,2.623,5.757,6.166,10.189,9.3,16.024,2.971,5.534,2.949.066,2.738-.244-11.6-17.054-21.773-37.014-23.617-60.654C929.323,819.961,931.018,777.277,931.947,774.476Z" transform="translate(-9.059 -12.414)"/><path class="group55" d="M910.546,881.589c6.839,6.917,18.448,11.541,28.807,10.611,15.188-1.365-11.385-1.712-19.148-6.994-12.351-8.405-19.881-16.918-25.573-30.932-3.656-9-6.073-22.423-10.116-32.445C884,820.552,887.943,858.725,910.546,881.589Z" transform="translate(-1.71 -20.226)"/><path class="group55" d="M965.892,904.164c-2.6-10.184-18.024-10.3-22.085-1.287-1.965,4.362-.614,4.94,7.18,4.94C954.233,907.818,961.407,905.219,965.892,904.164Z" transform="translate(-11.371 -32.525)"/></g></svg>