<svg xmlns="http://www.w3.org/2000/svg" width="127.691" height="179.532" viewBox="0 0 127.691 179.532"><defs><style>.a{opacity:0.22;}.b{fill:#f48300;}.b,.c,.d,.e{fill-rule:evenodd;}.c{fill:#fed18c;}.d{fill:#051938;}.e{fill:#fff;}</style></defs><g class="a" transform="translate(200.09 -803.404) rotate(30)"><path class="b" d="M394.58,805.269c13.851,10.922,27.8,24.145,25.957,44.028-1.1,11.938-5.58,43.873,3.255,52.3,7.815,7.451,20.472,6.49,17.971,10.729-3.491,4.676-21.725-6.7-25.159-16.428-3.815-10.8-2.615-25.976-.054-42.6.379-2.464.987-14.7-4.719-24.758-6.494-11.451-22.34-19.245-22.079-19.41C391.487,808.037,392.688,803.777,394.58,805.269Z" transform="translate(-74.075 9.118)"/><path class="b" d="M383.651,811.716c3.268,14.079,8.227,29.048,23.816,34.779,9.358,3.442,34.936,11.531,38.113,21.031,2.811,8.4-.717,15.93,1.655,17.041,2.983,1.146,3.147-15.011.149-20.225-5.336-9.278-19.194-14.439-35.49-19.353-1.985-.6-11.39-4.51-16.911-12.292-6.285-8.857-6.492-23.289-6.708-23.155C386.832,810.428,383.207,809.792,383.651,811.716Z" transform="translate(-75.829 10.429)"/><path class="b" d="M375.839,817.286c2.633,11.349-.473,14.944,11.6,20.186a29.8,29.8,0,0,1,10.571,8.373c2.61,3.447,1.3,9.563,3.855,12.851,10.159,13.069,26.152,19.933,26.592,17.9.814-4.09-22.585-8.211-25.161-24.145-2.245-13.886-16.608-18.078-20.637-20.2-3.253-1.715-2.209-17.7-2.26-17.671C379.233,815.294,376.842,816.327,375.839,817.286Z" transform="translate(-78.05 11.868)"/><path class="b" d="M392.232,805.8c6.085.946,14.661,1.781,21.538,5.221,6.406,3.206,11.221,8.909,14.2,12.851,2.609,3.447,3.632,8.442,3.856,12.851.95,18.805,25.3,20.464,26.592,17.9,1.14-3.826-14.231-4.33-18.126-6.961-4.009-2.708-5.731-9.1-7.036-17.185-2.245-13.886-14.458-21.535-18.488-23.66-3.252-1.716-17.9-3.637-17.948-3.607C395.664,803.932,393.236,804.843,392.232,805.8Z" transform="translate(-73.366 8.622)"/><path class="b" d="M380.685,814.964c-1.767,5.84-4.715,13.854-4.553,21.477.15,7.1,3.266,13.865,5.567,18.232,2.012,3.819,6.123,6.893,10.043,9,16.722,8.978,10.854,28.252,4.815,31.471-5.152.039,2.208-14.571,1.5-19.186-.734-4.748-5.818-9.049-12.616-13.709-11.684-8.005-13.372-22.213-13.566-26.727-.157-3.644,4.423-17.544,4.474-17.575C377.5,817.219,379.377,815.445,380.685,814.964Z" transform="translate(-79.185 11.978)"/><path class="b" d="M429.682,796.6a2.677,2.677,0,0,1,.378,4.553,2.548,2.548,0,0,1-2.559.172c2.151,3.069-2.46,5.1-4.054,3.385.87,2.13-2.921,4.95-4.54,1.911,0,0-.039.147-.116.366,1.281,2.754-2.876,4.447-4.374,2.838.872,2.129-2.921,4.949-4.539,1.909l0,.006a2.492,2.492,0,0,1-1.07,2.536,2.542,2.542,0,0,1-2.559.172c2.152,3.069-2.46,5.1-4.055,3.387.872,2.132-2.921,4.95-4.537,1.911,0,0-.04.147-.117.365,1.281,2.754-2.876,4.45-4.374,2.838.872,2.13-2.921,4.95-4.539,1.911,0,0-.019.066-.054.175,1.752,2.926-2.629,4.807-4.194,3.162,1.089,2.674-2.958,4.289-4.432,2.705.865,2.115-2.867,4.908-4.5,1.972l-.05-.017c-.008.027-.018.066-.033.114,1.9,2.984-2.587,4.923-4.156,3.235.872,2.13-2.92,4.951-4.537,1.912-.018.006-.8,3.387-3.286,2.26-2.226-1.008-2.373-5.643.453-7.461,4.591-2.953,6.737-4.579,8.589-5.2.05-.036.1-.071.152-.1,3.783-2.433,5.905-3.964,7.57-4.778,2.745-1.809,4.3-2.836,5.755-3.24,5.018-3.234,7.087-4.856,9.085-5.306q.174-.039.347-.069c4.728-3.059,6.737-4.607,8.681-5.044a6.041,6.041,0,0,1,1.178-.154,4.587,4.587,0,0,1,1.857-2.484c5.094-3.277,7.178-4.919,9.192-5.372.114-.027.23-.049.345-.071,4.728-3.059,6.74-4.607,8.683-5.044A6.918,6.918,0,0,1,429.682,796.6Z" transform="translate(-82.087 6.528)"/><path class="c" d="M429.551,802.392c-6.191-10.169-28.322-29.427-41.442-29.345-14.971.093-28.4,7.966-32.724,18.273-8.2,19.572,3.5,48.279,8.977,51.657C375.491,837.724,420.287,810.015,429.551,802.392Z" transform="translate(-84.704 0)"/><path class="d" d="M384.175,802.894c-.446.233-.019,1.174-.2,1.809A7.032,7.032,0,0,1,382,808.141a5.689,5.689,0,0,1-3.907.969c-1.038-.046-2.022-.576-1.986-.141.1,1.193,4.044,1.656,6.309-.049a8.1,8.1,0,0,0,2.24-3.257C385.3,804.145,384.94,802.5,384.175,802.894Z" transform="translate(-77.973 8.511)"/><path class="d" d="M388.506,791.455c3.163,3.419-.365,7.257-3.374,4.157C381.908,792.29,385.98,789.2,388.506,791.455Z" transform="translate(-75.735 5.04)"/><path class="d" d="M368.974,803.17c3.163,3.418-.365,7.255-3.372,4.156C362.377,804,366.449,800.908,368.974,803.17Z" transform="translate(-81.316 8.387)"/><path class="e" d="M368.135,805.089c1.247,1.349-.144,2.863-1.331,1.639C365.531,805.418,367.139,804.2,368.135,805.089Z" transform="translate(-80.766 9.068)"/><path class="e" d="M387.313,793.322c1.247,1.349-.144,2.863-1.332,1.641C384.711,793.651,386.317,792.43,387.313,793.322Z" transform="translate(-75.286 5.706)"/></g></svg>