<svg xmlns="http://www.w3.org/2000/svg" width="175.61" height="179.688" viewBox="0 0 175.61 179.688"><defs><style>.group54{fill:#76b5d2;fill-rule:evenodd;}</style></defs><g transform="translate(-314.078 -663.892) rotate(-20)"><path class="group54" d="M63.556,777.886c-2.723,9.5-7.236,9.684-8.882,12.01-1.108,1.567-2.255,6.374.348,10.683,1.841,3.048,14.024,7.017,16.8,1.672,4.859-9.368,1.368-13.259-3.749-15.244C64.3,785.545,63.559,777.878,63.556,777.886Z" transform="translate(-0.384 -5.356)"/><path class="group54" d="M63.281,797.75c-3.234,11.285-8.6,11.5-10.551,14.266-1.317,1.861-2.679,7.572.413,12.69,2.187,3.62,16.66,8.336,19.953,1.987,5.772-11.129,1.625-15.75-4.454-18.109C64.164,806.847,63.284,797.739,63.281,797.75Z" transform="translate(0 -8.862)"/><path class="group54" d="M64.853,826.064c-.15,11.728-5.27,13.323-6.428,16.495-.78,2.137-.59,8,3.743,12.145,3.065,2.931,18.279,3.75,19.786-3.23,2.64-12.233-2.581-15.625-9.07-16.333C68.1,834.619,64.853,826.053,64.853,826.064Z" transform="translate(-1.201 -13.859)"/><path class="group54" d="M72.565,854.148c.586,11.714-4.423,13.621-5.381,16.858-.645,2.181-.087,8.023,4.5,11.891,3.244,2.737,18.48,2.619,19.546-4.44,1.868-12.372-3.557-15.436-10.077-15.744C76.345,862.486,72.565,854.136,72.565,854.148Z" transform="translate(-2.771 -18.816)"/><path class="group54" d="M83.191,880.828c3.653,11.159-.682,14.291-.753,17.663-.049,2.271,2.028,7.767,7.474,10.32,3.852,1.805,18.531-2.241,17.7-9.329-1.456-12.426-7.5-13.985-13.876-12.6C89.037,887.9,83.188,880.818,83.191,880.828Z" transform="translate(-5.502 -23.525)"/><path class="group54" d="M99.24,901.573c3.651,11.159-.682,14.291-.754,17.663-.049,2.272,2.028,7.768,7.474,10.32,3.852,1.806,18.531-2.24,17.7-9.33-1.456-12.426-7.5-13.984-13.876-12.6C105.086,908.649,99.236,901.563,99.24,901.573Z" transform="translate(-8.334 -27.186)"/><path class="group54" d="M114.812,747.537c-4.856,8.625-9.292,7.777-11.434,9.667-1.443,1.273-3.675,5.69-2.143,10.476,1.084,3.385,12.019,10.02,15.958,5.449,6.905-8.012,4.411-12.592-.108-15.689C113.755,755.16,114.816,747.529,114.812,747.537Z" transform="translate(-8.728 0)"/><path class="group54" d="M109.758,766.9c-5.769,10.246-11.038,9.239-13.582,11.484-1.714,1.512-4.365,6.76-2.545,12.444,1.288,4.021,14.278,11.9,18.957,6.474,8.2-9.518,5.24-14.959-.128-18.637C108.5,775.954,109.763,766.889,109.758,766.9Z" transform="translate(-7.369 -3.417)"/><path class="group54" d="M104.771,794.556c-2.87,11.381-8.223,11.768-10.087,14.592-1.256,1.9-2.434,7.652.821,12.671,2.3,3.55,16.92,7.808,20.007,1.358,5.411-11.3,1.118-15.793-5.033-17.959C105.946,803.621,104.774,794.545,104.771,794.556Z" transform="translate(-7.437 -8.299)"/><path class="group54" d="M105.775,823.585c-2.15,11.535-7.468,12.25-9.152,15.183-1.134,1.976-1.948,7.787,1.615,12.6,2.521,3.4,17.377,6.752,20.053.125,4.692-11.616.124-15.831-6.15-17.615C107.516,832.561,105.778,823.574,105.775,823.585Z" transform="translate(-7.835 -13.422)"/><path class="group54" d="M110,851.732c.963,11.69-3.983,13.754-4.836,17.019-.574,2.2.17,8.02,4.878,11.743,3.329,2.634,18.554,2.036,19.393-5.052,1.469-12.424-4.051-15.316-10.578-15.419C114.05,859.947,110,851.721,110,851.732Z" transform="translate(-9.484 -18.39)"/><path class="group54" d="M120.8,875.573c.963,11.69-3.982,13.753-4.836,17.018-.574,2.2.17,8.021,4.877,11.744,3.33,2.634,18.555,2.035,19.394-5.052,1.469-12.425-4.051-15.317-10.579-15.42C124.851,883.788,120.8,875.563,120.8,875.573Z" transform="translate(-11.39 -22.597)"/><path class="group54" d="M159.943,797.03c4.856,8.625,9.292,7.777,11.434,9.667,1.442,1.272,3.674,5.69,2.142,10.476-1.084,3.385-12.018,10.02-15.958,5.449-6.905-8.013-4.41-12.593.108-15.689C161,804.652,159.938,797.022,159.943,797.03Z" transform="translate(-18.004 -8.735)"/><path class="group54" d="M164.161,816.391c5.769,10.247,11.038,9.239,13.581,11.484,1.714,1.513,4.366,6.76,2.545,12.445-1.287,4.021-14.278,11.9-18.957,6.473-8.2-9.517-5.239-14.959.128-18.637C165.414,825.446,164.155,816.382,164.161,816.391Z" transform="translate(-18.527 -12.152)"/><path class="group54" d="M169.164,844.049c2.87,11.381,8.223,11.768,10.088,14.591,1.255,1.9,2.433,7.653-.822,12.671-2.3,3.549-16.92,7.808-20.006,1.358-5.412-11.305-1.118-15.793,5.032-17.959C167.988,853.114,169.161,844.038,169.164,844.049Z" transform="translate(-18.477 -17.034)"/><path class="group54" d="M168.163,873.078c2.151,11.535,7.469,12.25,9.152,15.183,1.134,1.976,1.948,7.787-1.615,12.6-2.52,3.4-17.377,6.753-20.053.126-4.692-11.616-.124-15.832,6.151-17.615C166.422,882.053,168.161,873.067,168.163,873.078Z" transform="translate(-18.082 -22.157)"/><path class="group54" d="M163.91,901.224c-.962,11.691,3.983,13.754,4.836,17.019.575,2.2-.17,8.021-4.877,11.744-3.33,2.634-18.555,2.036-19.394-5.052-1.469-12.425,4.051-15.316,10.579-15.42C159.865,909.44,163.911,901.214,163.91,901.224Z" transform="translate(-16.409 -27.125)"/><path class="group54" d="M214.49,849.84c1.22,9.8,5.653,10.666,6.918,13.214.853,1.716,1.242,6.641-2,10.5-2.292,2.733-14.946,4.81-16.858-.892-3.352-9.995.7-13.31,6.064-14.5C212.571,857.3,214.489,849.831,214.49,849.84Z" transform="translate(-26.486 -18.056)"/><path class="group54" d="M210.757,869.45c1.45,11.641,6.716,12.67,8.219,15.7,1.012,2.039,1.475,7.888-2.373,12.478-2.722,3.246-17.754,5.713-20.025-1.06-3.982-11.872.832-15.811,7.2-17.22C208.476,878.306,210.755,869.439,210.757,869.45Z" transform="translate(-25.391 -21.517)"/><path class="group54" d="M204.8,897.361c-1.667,11.613,3.146,13.964,3.8,17.275.441,2.23-.654,8-5.578,11.434-3.483,2.432-18.645.936-19.054-6.19-.716-12.489,4.968-15.05,11.49-14.766C200.267,905.323,204.8,897.35,204.8,897.361Z" transform="translate(-23.411 -26.443)"/><path class="group54" d="M64.054,813.557c.74,12.949,15.418,59.065,19.673,67.529,6.236,12.408,17.976,25.406,26.051,34.064,5.165,5.537,10.867,9.231,16.641,14.667,5.475,5.154,3.365-1.027,3.007-1.3-19.632-14.976-38.767-33.773-49.871-59.846C78.431,866.033,64.07,817.075,64.054,813.557Z" transform="translate(-2.257 -11.652)"/><path class="group54" d="M110.635,776.594c-2.312,12.765,1.167,60.992,3.325,70.2,3.161,13.5,11.537,28.837,17.364,39.112,3.727,6.571-.222,27.222,4.122,33.834,4.118,6.27,2.7-3.164,2.42-3.511-4.343-5.312.861-23.717-3.092-29.624-10.237-15.3-18.578-32.707-21.966-52.843C112.332,830.938,109.827,780.02,110.635,776.594Z" transform="translate(-10.344 -5.128)"/><path class="group54" d="M163.528,822.746c2.839,10.344,3.512,50.3,2.412,58.035-1.612,11.342-7.384,24.569-11.429,33.448-2.586,5.677-6.082,10.049-9.172,15.8-2.931,5.458-2.909.066-2.7-.24,11.437-16.821,21.475-36.508,23.294-59.823C166.116,867.608,164.444,825.509,163.528,822.746Z" transform="translate(-16.112 -13.274)"/><path class="group54" d="M177.79,929.04c-6.745,6.824-18.2,11.384-28.412,10.466-14.981-1.346,11.229-1.688,18.885-6.9,12.182-8.29,19.609-16.687,25.223-30.509,3.607-8.88,5.989-22.116,9.978-32C203.972,868.84,200.083,906.49,177.79,929.04Z" transform="translate(-16.514 -21.626)"/><path class="group54" d="M130.137,952.327c2.562-10.044,17.776-10.162,21.782-1.269,1.939,4.3.605,4.873-7.082,4.873C141.636,955.931,134.559,953.367,130.137,952.327Z" transform="translate(-13.92 -34.777)"/></g></svg>