<svg xmlns="http://www.w3.org/2000/svg" width="21" height="30.933" viewBox="0 0 21 30.933"><defs><style>.a{fill:#4d4e50;}</style></defs><g transform="translate(-977.164 -63.499)"><path class="a" d="M1001.456,80.854c-.01-.074-.019-.147-.034-.219-.011-.056-.026-.107-.04-.159l-.045-.176c-.012-.048-.023-.1-.038-.143-.022-.07-.047-.136-.073-.2l-.06-.163c-.011-.031-.021-.062-.034-.092-.04-.095-.087-.186-.132-.276l-.051-.1c-.008-.019-.017-.037-.027-.055-.059-.11-.126-.217-.195-.323-.012-.018-.025-.04-.037-.061-.093-.141-.178-.251-.264-.36l-.033-.045q-.14-.172-.307-.341l-.03-.033a4.965,4.965,0,0,0-3.49-1.464l-.058,0a5.006,5.006,0,0,0,0,10.012l.061,0a4.975,4.975,0,0,0,3.5-1.481c.126-.129.228-.243.319-.354.014-.02.026-.035.038-.051.084-.106.168-.216.246-.332.027-.046.04-.067.053-.087.068-.106.136-.213.2-.324.009-.017.017-.034.025-.051s.024-.053.038-.079l.022-.043c.043-.086.086-.172.123-.26.013-.029.022-.059.032-.088l.062-.166c.026-.067.052-.133.073-.2.015-.047.026-.094.037-.142l.047-.18c.014-.051.028-.1.039-.155.015-.074.024-.148.034-.221l.026-.174c.006-.034.011-.067.016-.1.017-.169.025-.34.025-.511s-.008-.342-.025-.51c0-.034-.01-.067-.015-.1Z" transform="translate(-8.877 -8.127)"/><path class="a" d="M996.386,80.066c.05-.082.1-.17.177-.279a.485.485,0,0,0,.026-.043c.132-.249.337-.612.347-.631A11.143,11.143,0,0,0,998.164,74c0-.193,0-.384-.012-.572,0-.083-.01-.164-.016-.246l-.011-.163c0-.053-.006-.1-.011-.154-.006-.067-.014-.134-.021-.2l-.016-.145c-.007-.069-.014-.138-.023-.208-.008-.055-.016-.109-.026-.163l-.021-.14c-.012-.079-.024-.158-.037-.234s-.024-.125-.037-.187l-.034-.167c-.012-.058-.024-.116-.036-.172-.019-.083-.041-.164-.062-.245l-.036-.139c-.01-.043-.021-.085-.033-.13-.025-.09-.053-.176-.08-.263l-.033-.11c-.013-.043-.026-.087-.039-.125-.028-.087-.06-.172-.092-.257l-.041-.113c-.014-.04-.028-.08-.043-.117-.037-.095-.076-.188-.116-.281l-.045-.1c-.012-.029-.024-.059-.036-.087-.056-.124-.115-.247-.176-.369l-.042-.087c-.062-.121-.127-.24-.207-.383l-.031-.057c-.072-.125-.149-.249-.237-.388l-.024-.039c-.08-.123-.163-.244-.255-.372l-.024-.036c-.091-.125-.186-.249-.278-.364l-.022-.029c-.1-.125-.2-.247-.318-.374s-.221-.24-.337-.355l0,0a10.433,10.433,0,0,0-7.591-2.925,10.046,10.046,0,0,0-10.5,10.5,11.264,11.264,0,0,0,1.412,5.46l.158.29.019.032.264.405c.029.045.058.09.074.112l6.717,11.289h0L987.36,94.2a.465.465,0,0,0,.4.228h0a.464.464,0,0,0,.4-.232l1.518-2.613h0l6.551-11.275C996.287,80.227,996.335,80.149,996.386,80.066Zm-2.839-5.949c-.006.056-.014.11-.024.164l-.021.141c-.013.1-.026.191-.045.284-.014.071-.033.143-.053.214l-.038.152c-.017.067-.033.135-.053.2-.028.089-.06.175-.093.262l-.051.138c-.018.049-.034.1-.054.144-.045.107-.1.212-.15.317l-.046.094c-.017.036-.034.071-.053.106-.071.132-.15.258-.231.384-.029.051-.045.077-.062.1-.091.136-.191.267-.294.4-.018.025-.03.04-.042.055-.11.135-.231.27-.362.4a5.912,5.912,0,0,1-4.174,1.775l-.059,0a5.937,5.937,0,1,1,0-11.874l.061,0a5.9,5.9,0,0,1,4.154,1.756l.026.027c.133.135.249.265.353.392.014.018.026.034.038.051.107.135.207.266.3.4.016.023.032.049.047.076.1.151.176.278.247.41.019.036.035.072.052.108l.022.046c.069.137.125.247.173.362.021.048.039.1.056.148l.049.135c.034.085.066.172.093.26.021.065.037.133.053.2l.038.148c.021.072.04.144.055.219.018.09.032.186.044.282l.022.141c.009.054.018.108.023.163a6.074,6.074,0,0,1,0,1.209Z" transform="translate(0)"/></g></svg>