<svg id="Warstwa_1" data-name="Warstwa 1" xmlns="http://www.w3.org/2000/svg" viewBox="0 0 229.37 220.62"><defs><style>.logocls-1{fill:#ffd203;}</style></defs><title>Logo_promyk</title><path class="logocls-1" d="M340,296.87s-3.18,18.79,4.92,27.47l10.41,12.72s5.2,5.78,8.38-1.73c0,0,1.16-20.25-18.79-40.49C344.87,294.84,340.46,292,340,296.87Z" transform="translate(-285.63 -289.9)"/><path class="logocls-1" d="M296.58,334.46s-2,16.19,37.3,29.78c0,0,10.7,1.45,3.76-11a91.11,91.11,0,0,0-22.84-14.07S295.71,329.92,296.58,334.46Z" transform="translate(-285.63 -289.9)"/><path class="logocls-1" d="M289.06,389.69s-9.54,5.88,3.18,10.31c0,0,16.77,8.29,35,0,0,0,15.32-5.11-2-12.34C325.2,387.66,309.88,381.59,289.06,389.69Z" transform="translate(-285.63 -289.9)"/><path class="logocls-1" d="M306.7,449s6.36-11.56,23.71-16.19c0,0,10.41-2.6,5.78,8.1,0,0-6.07,9.54-22.55,15.32C313.64,456.19,301.49,458.8,306.7,449Z" transform="translate(-285.63 -289.9)"/><path class="logocls-1" d="M361.06,460.24s-15,17.64-14.75,32.1c0,0-1.16,11.56,7.37,5.2,0,0,10-2.89,18.37-30.94C372.05,466.6,374.94,450.41,361.06,460.24Z" transform="translate(-285.63 -289.9)"/><path class="logocls-1" d="M397.49,468.92s-5.49,26,0,37.88c0,0,3.18,8.38,9.84,0,0,0,8.38-14.46,1.15-37.88C408.48,468.92,402.12,455.61,397.49,468.92Z" transform="translate(-285.63 -289.9)"/><path class="logocls-1" d="M430.17,463s7.23,16.61,15,25.29l7.81,7.23s10.12,1.15,9-6.94c0,0-8.1-29.5-22.27-38.46C439.71,450.12,427.28,447,430.17,463Z" transform="translate(-285.63 -289.9)"/><path class="logocls-1" d="M464.58,422.36s-5.78-2-6.94,5.78c0,0-2.31,4.63,6.94,8.39,0,0,4.05,4.05,25.44,15,0,0,11,5.78,11.57-3.76,0,0,4.05-3.18-11.86-12.73C489.73,435.08,468.63,419.76,464.58,422.36Z" transform="translate(-285.63 -289.9)"/><path class="logocls-1" d="M476.14,387.37S455,392,473.25,401.25c0,0,11,3.14,38.17-6.67,0,0,3.58-.56,3.58-7.21,0,0-.63-8.09-12.95-4.91C502.05,382.46,476.72,385.06,476.14,387.37Z" transform="translate(-285.63 -289.9)"/><path class="logocls-1" d="M452.72,347.18s-8.67,6.65,0,10.41h9.35A174.81,174.81,0,0,0,484,340.82s3.18-3.47,0-9c0,0-6.07-3.47-10.7,0Z" transform="translate(-285.63 -289.9)"/><path class="logocls-1" d="M406.46,300.34s-5.87,25.54-3.22,32.87c0,0,5.82,9.73,11.89,0,0,0,5.5-6.92,7.23-25.07,0,0,3.18-14.6-5.49-18.14C416.87,290,412.24,288.19,406.46,300.34Z" transform="translate(-285.63 -289.9)"/><path class="logocls-1" d="M370.89,344s28.34-13,18.51,9.88c0,0,0,4.34-15,15.62,0,0-9.92,8.67-15.08,28.33,0,0-5.93,33.83,32.19,38.17,0,0,22.21-1.15,38.26-22s7.67-35,7.67-35-17.64-25.48-45.4,6.49c0,0-3.82,8.49,8.5,18.2h2.05s-7.43-12-2.05-18.2c0,0,18.1-12.32,26.2,9.1,0,0,4.16,19.92-20.82,29.52,0,0-16.77,4.91-28.63-13.59,0,0-13.57-18.79,14.46-44.53,0,0,39-36.47,64.19,15.74,0,0,10.12,35.14-19.08,56,0,0-55.63,38.18-90.56-2C346.26,435.66,311.9,384.67,370.89,344Z" transform="translate(-285.63 -289.9)"/></svg>