<svg xmlns="http://www.w3.org/2000/svg" width="1555.271" height="263.249" viewBox="0 0 1555.271 263.249"><defs><style>.multipleBubblesEmptya{fill:none;stroke:#86c4df;stroke-width:2px;fill-rule:evenodd;opacity:0.64;}</style></defs><path class="multipleBubblesEmptya" d="M49.663,491.68c-13.282,10.088,3.86,28.919,13.39,14.429,6.492-9.868-5.62-20.332-13.39-14.429Zm1499.271,25.047c-13.282,10.091,3.86,28.919,13.39,14.432,6.492-9.868-5.62-20.334-13.39-14.432Zm-14.114,64.262c-20.591,15.641,5.986,44.831,20.758,22.372,10.062-15.3-8.714-31.519-20.758-22.372Zm22.454-29.908c8.889-6.75,22.746,5.222,15.323,16.513-10.9,16.575-30.518-4.969-15.323-16.513Zm-31-14.638c8.888-6.753,22.746,5.22,15.32,16.51-10.9,16.575-30.518-4.969-15.32-16.51Zm24.218-96.7c-5.507,4.183,1.6,11.987,5.548,5.982,2.692-4.09-2.33-8.429-5.548-5.982Zm15.318,18.593c-6.657,5.055,1.937,14.492,6.712,7.232,3.252-4.945-2.816-10.189-6.712-7.232ZM1549.8,472.689c5.1-3.874,13.043,2.993,8.786,9.468-6.252,9.506-17.5-2.849-8.786-9.468ZM1537.5,494.9c5.1-3.872,13.043,2.993,8.786,9.468-6.252,9.506-17.5-2.847-8.786-9.468Zm28.8-5.646c-6.657,5.057,1.932,14.492,6.709,7.231,3.252-4.945-2.818-10.189-6.709-7.231Zm-79.661,30.631c-13.282,10.091,3.862,28.921,13.39,14.434,6.492-9.87-5.62-20.334-13.39-14.434Zm-14.114,64.265c-20.59,15.639,5.986,44.83,20.758,22.372,10.062-15.3-8.714-31.522-20.758-22.372Zm22.454-29.908c8.891-6.752,22.748,5.22,15.323,16.51-10.9,16.577-30.518-4.966-15.323-16.51Zm-31-14.64c8.891-6.753,22.745,5.22,15.32,16.513-10.9,16.575-30.518-4.969-15.32-16.513Zm24.216-96.694c-5.505,4.181,1.6,11.987,5.551,5.979,2.692-4.088-2.33-8.426-5.551-5.979Zm15.32,18.591c-6.657,5.057,1.935,14.492,6.712,7.231,3.252-4.945-2.818-10.189-6.712-7.231ZM1487.5,475.85c5.1-3.872,13.043,2.993,8.786,9.468-6.252,9.506-17.5-2.847-8.786-9.468Zm-12.3,22.216c5.1-3.872,13.043,2.993,8.786,9.468-6.252,9.506-17.5-2.849-8.786-9.468ZM1504,492.418c-6.654,5.057,1.935,14.494,6.712,7.234,3.252-4.947-2.818-10.191-6.712-7.234Zm-74.853,35.813c-13.283,10.088,3.862,28.919,13.393,14.429,6.489-9.868-5.622-20.332-13.393-14.429Zm-14.114,64.262c-20.59,15.641,5.986,44.831,20.758,22.372,10.062-15.3-8.714-31.522-20.758-22.372Zm22.454-29.91c8.891-6.75,22.748,5.222,15.323,16.513-10.9,16.577-30.518-4.966-15.323-16.513Zm-31-14.638c8.891-6.75,22.746,5.22,15.32,16.513-10.9,16.575-30.516-4.969-15.32-16.513Zm24.216-96.694c-5.505,4.181,1.6,11.985,5.553,5.979,2.689-4.087-2.332-8.426-5.553-5.979Zm15.323,18.591c-6.657,5.057,1.935,14.492,6.71,7.231,3.252-4.945-2.816-10.189-6.71-7.231Zm-16.015,14.348c5.1-3.872,13.043,2.993,8.786,9.468-6.252,9.506-17.5-2.847-8.786-9.468Zm-12.3,22.216c5.1-3.874,13.045,2.993,8.786,9.466-6.252,9.509-17.5-2.847-8.786-9.466Zm28.8-5.649c-6.657,5.057,1.932,14.494,6.709,7.234,3.252-4.947-2.818-10.191-6.709-7.234Zm-73.05,79.5c-13.282,10.088,3.86,28.919,13.39,14.432,6.489-9.868-5.62-20.334-13.39-14.432Zm-14.113,64.262c-20.591,15.641,5.986,44.83,20.758,22.372,10.059-15.3-8.714-31.522-20.758-22.372Zm22.454-29.908c8.891-6.753,22.745,5.22,15.32,16.51-10.9,16.577-30.516-4.966-15.32-16.51Zm-31-14.64c8.889-6.753,22.746,5.22,15.32,16.513-10.9,16.575-30.518-4.969-15.32-16.513Zm24.216-96.694c-5.505,4.181,1.6,11.987,5.551,5.979,2.689-4.088-2.33-8.426-5.551-5.979Zm15.32,18.591c-6.657,5.057,1.935,14.494,6.712,7.232,3.252-4.945-2.818-10.189-6.712-7.232Zm-16.012,14.348c5.1-3.872,13.043,2.993,8.786,9.468-6.252,9.506-17.5-2.847-8.786-9.468Zm-12.3,22.217c5.1-3.872,13.043,2.993,8.786,9.468-6.252,9.506-17.5-2.849-8.786-9.468Zm28.794-5.646c-6.657,5.055,1.935,14.492,6.712,7.231,3.252-4.945-2.818-10.191-6.712-7.231Zm-68.132-39.7c-13.282,10.09,3.86,28.919,13.39,14.429,6.492-9.868-5.62-20.332-13.39-14.429Zm-14.116,64.262c-20.588,15.641,5.989,44.83,20.76,22.372,10.06-15.3-8.714-31.519-20.76-22.372Zm22.456-29.908c-15.2,11.544,4.418,33.088,15.323,16.513,7.423-11.293-6.434-23.265-15.323-16.513Zm-31-14.638c8.889-6.753,22.746,5.22,15.32,16.51-10.9,16.575-30.518-4.969-15.32-16.51Zm24.216-96.7c-5.505,4.183,1.6,11.987,5.55,5.979,2.689-4.088-2.33-8.424-5.55-5.979Zm15.32,18.591c-6.657,5.057,1.935,14.494,6.712,7.234,3.252-4.947-2.818-10.191-6.712-7.234Zm-16.012,14.35c5.1-3.874,13.043,2.991,8.786,9.468-6.252,9.5-17.5-2.849-8.786-9.468Zm-12.3,22.214c5.1-3.872,13.043,2.993,8.786,9.468-6.252,9.506-17.5-2.847-8.786-9.468Zm28.794-5.646c-6.657,5.057,1.935,14.492,6.712,7.232,3.252-4.945-2.818-10.191-6.712-7.232ZM1260.4,516.25c-13.282,10.091,3.86,28.919,13.39,14.432,6.489-9.868-5.62-20.334-13.39-14.432Zm-14.116,64.264c-20.59,15.639,5.989,44.83,20.761,22.37,10.059-15.3-8.714-31.519-20.761-22.37Zm22.456-29.91c8.889-6.75,22.746,5.223,15.32,16.513-10.9,16.575-30.518-4.969-15.32-16.513Zm-31-14.638c8.888-6.753,22.743,5.22,15.32,16.513-10.9,16.575-30.518-4.969-15.32-16.513Zm24.216-96.7c-5.505,4.183,1.6,11.987,5.55,5.982,2.689-4.09-2.332-8.426-5.55-5.982Zm15.32,18.594c-6.657,5.057,1.935,14.492,6.709,7.232,3.254-4.945-2.816-10.189-6.709-7.232Zm-16.015,14.348c5.1-3.872,13.043,2.993,8.788,9.468-6.255,9.506-17.5-2.847-8.788-9.468Zm-12.294,22.217c5.1-3.874,13.043,2.993,8.786,9.468-6.252,9.506-17.5-2.849-8.786-9.468Zm28.792-5.649c-6.655,5.057,1.937,14.494,6.712,7.234,3.252-4.947-2.816-10.191-6.712-7.234Zm-73.048,79.5c-13.282,10.091,3.863,28.921,13.39,14.434,6.492-9.87-5.62-20.334-13.39-14.434ZM1190.6,632.539c-20.591,15.641,5.986,44.833,20.758,22.372,10.062-15.3-8.714-31.519-20.758-22.372Zm22.454-29.905c8.891-6.753,22.746,5.22,15.323,16.51-10.9,16.577-30.518-4.966-15.323-16.51Zm-31-14.64c8.891-6.75,22.746,5.22,15.32,16.513-10.9,16.575-30.516-4.969-15.32-16.513Zm24.216-96.7c-5.505,4.183,1.6,11.99,5.551,5.984,2.692-4.092-2.33-8.429-5.551-5.984Zm15.323,18.594c-6.659,5.057,1.935,14.494,6.709,7.232,3.252-4.945-2.818-10.189-6.709-7.232Zm-16.015,14.348c5.1-3.872,13.043,2.993,8.786,9.468-6.252,9.509-17.5-2.847-8.786-9.468Zm-12.3,22.216c5.1-3.874,13.045,2.993,8.786,9.468-6.252,9.5-17.5-2.849-8.786-9.468Zm28.794-5.649c-6.657,5.057,1.935,14.494,6.712,7.234,3.252-4.947-2.818-10.191-6.712-7.234Zm-69.54,36.734c-13.283,10.091,3.86,28.919,13.39,14.432,6.489-9.868-5.622-20.334-13.39-14.432Zm-14.114,64.265c-20.591,15.641,5.986,44.831,20.758,22.37,10.059-15.3-8.714-31.519-20.758-22.37Zm22.451-29.908c8.893-6.753,22.748,5.22,15.323,16.51-10.9,16.575-30.516-4.969-15.323-16.51Zm-31-14.64c8.891-6.753,22.748,5.22,15.323,16.513-10.9,16.575-30.518-4.969-15.323-16.513Zm24.218-96.694c-5.505,4.181,1.6,11.985,5.551,5.979,2.689-4.087-2.33-8.426-5.551-5.979Zm15.32,18.591c-6.657,5.057,1.935,14.492,6.709,7.231,3.254-4.945-2.816-10.189-6.709-7.231ZM1153.4,533.5c5.1-3.872,13.043,2.993,8.786,9.468-6.252,9.506-17.5-2.847-8.786-9.468Zm-12.3,22.216c5.1-3.872,13.043,2.993,8.786,9.468-6.252,9.506-17.5-2.849-8.786-9.468Zm28.794-5.649c-6.657,5.057,1.935,14.494,6.709,7.234,3.254-4.945-2.816-10.191-6.709-7.234Zm-66.87-30.973c-13.282,10.088,3.862,28.919,13.393,14.432,6.489-9.868-5.622-20.334-13.393-14.432Zm-14.111,64.262c-20.591,15.641,5.984,44.833,20.758,22.372,10.06-15.3-8.714-31.519-20.758-22.372Zm22.454-29.908c-15.2,11.544,4.418,33.088,15.32,16.513,7.425-11.293-6.432-23.263-15.32-16.513Zm-31-14.638c8.891-6.752,22.746,5.22,15.323,16.51-10.9,16.577-30.518-4.969-15.323-16.51Zm24.218-96.7c-5.505,4.183,1.6,11.987,5.551,5.982,2.689-4.09-2.332-8.426-5.551-5.982Zm15.32,18.591c-6.657,5.057,1.935,14.494,6.709,7.234,3.252-4.947-2.816-10.191-6.709-7.234Zm-16.015,14.35c5.1-3.874,13.046,2.993,8.788,9.468-6.255,9.506-17.5-2.847-8.788-9.468ZM1091.6,497.274c5.1-3.872,13.043,2.993,8.786,9.468-6.255,9.506-17.5-2.847-8.786-9.468Zm28.794-5.646c-6.657,5.057,1.935,14.492,6.712,7.232,3.25-4.945-2.818-10.189-6.712-7.232Zm-73.05,79.5c-13.282,10.091,3.862,28.921,13.39,14.432,6.492-9.868-5.62-20.332-13.39-14.432Zm-14.113,64.262c-20.591,15.641,5.986,44.833,20.758,22.372,10.062-15.3-8.714-31.519-20.758-22.372Zm22.453-29.905c8.891-6.753,22.748,5.22,15.323,16.51-10.9,16.575-30.518-4.966-15.323-16.51Zm-31-14.64c8.891-6.753,22.746,5.22,15.32,16.51-10.9,16.577-30.516-4.966-15.32-16.51Zm24.216-96.7c-5.505,4.183,1.6,11.987,5.553,5.982,2.689-4.09-2.332-8.426-5.553-5.982Zm15.32,18.594c-6.654,5.057,1.937,14.492,6.712,7.232,3.252-4.945-2.818-10.191-6.712-7.232Zm-16.012,14.348c5.1-3.872,13.043,2.993,8.786,9.468-6.252,9.506-17.5-2.849-8.786-9.468Zm-12.3,22.214c5.1-3.872,13.043,2.993,8.786,9.468-6.252,9.506-17.5-2.847-8.786-9.468Zm28.794-5.646c-6.654,5.057,1.937,14.492,6.712,7.232,3.252-4.945-2.818-10.189-6.712-7.232Zm-68.132-39.7c-13.282,10.091,3.862,28.921,13.39,14.432,6.492-9.868-5.62-20.332-13.39-14.432Zm-14.113,64.262c-20.591,15.641,5.986,44.833,20.758,22.372,10.062-15.3-8.714-31.519-20.758-22.372Zm22.453-29.905c-15.2,11.544,4.418,33.085,15.32,16.51,7.426-11.293-6.429-23.263-15.32-16.51Zm-31-14.64c8.891-6.753,22.746,5.22,15.32,16.51-10.9,16.577-30.518-4.966-15.32-16.51Zm24.216-96.7c-5.505,4.183,1.6,11.987,5.553,5.982,2.689-4.09-2.332-8.426-5.553-5.982Zm15.323,18.594c-6.657,5.055,1.935,14.494,6.71,7.232,3.252-4.947-2.818-10.191-6.71-7.232Zm-16.015,14.348c5.1-3.872,13.043,2.993,8.786,9.468-6.252,9.506-17.5-2.847-8.786-9.468Zm-12.3,22.214c5.1-3.869,13.043,2.993,8.786,9.47-6.252,9.5-17.5-2.849-8.786-9.47Zm28.794-5.646c-6.654,5.057,1.937,14.494,6.712,7.231,3.252-4.945-2.818-10.189-6.712-7.231ZM934.276,507.12c-13.282,10.088,3.862,28.919,13.39,14.429,6.489-9.868-5.62-20.332-13.39-14.429Zm-14.113,64.262c-20.591,15.641,5.986,44.831,20.758,22.372,10.06-15.3-8.714-31.519-20.758-22.372Zm22.453-29.908c8.891-6.753,22.746,5.22,15.323,16.513-10.9,16.575-30.518-4.969-15.323-16.513Zm-31-14.638c8.891-6.753,22.748,5.22,15.323,16.51-10.9,16.577-30.516-4.969-15.323-16.51Zm24.218-96.7c-5.505,4.181,1.6,11.987,5.551,5.982,2.692-4.09-2.33-8.429-5.551-5.982Zm15.32,18.591c-6.657,5.057,1.935,14.494,6.712,7.234,3.252-4.947-2.818-10.191-6.712-7.234ZM935.141,463.08c5.1-3.872,13.043,2.993,8.786,9.47-6.252,9.506-17.5-2.849-8.786-9.47Zm-12.3,22.217c5.1-3.872,13.043,2.993,8.785,9.468-6.252,9.506-17.5-2.847-8.785-9.468Zm28.794-5.646c-6.657,5.055,1.937,14.492,6.71,7.231,3.254-4.945-2.818-10.189-6.71-7.231Zm-73.05,79.5c-13.28,10.088,3.862,28.919,13.393,14.432,6.489-9.868-5.622-20.334-13.393-14.432Zm-14.111,64.262c-20.593,15.641,5.984,44.833,20.758,22.372,10.059-15.3-8.714-31.519-20.758-22.372ZM886.929,593.5c8.891-6.75,22.748,5.222,15.323,16.513-10.9,16.575-30.516-4.969-15.323-16.513Zm-31-14.638c8.891-6.753,22.746,5.22,15.323,16.51-10.9,16.577-30.518-4.969-15.323-16.51Zm24.218-96.7c-5.5,4.183,1.6,11.987,5.551,5.981,2.689-4.09-2.332-8.429-5.551-5.981Zm15.32,18.591c-6.657,5.06,1.935,14.494,6.709,7.234,3.252-4.945-2.816-10.189-6.709-7.234Zm-16.015,14.348c5.1-3.872,13.043,3,8.788,9.47-6.255,9.506-17.5-2.849-8.788-9.47Zm-12.3,22.216c5.1-3.872,13.045,2.993,8.788,9.468-6.255,9.506-17.5-2.847-8.788-9.468Zm28.8-5.646c-6.657,5.057,1.935,14.492,6.709,7.234,3.252-4.947-2.818-10.191-6.709-7.234Zm-68.134-39.7c-13.282,10.09,3.862,28.921,13.393,14.432,6.489-9.868-5.622-20.334-13.393-14.432Zm-14.111,64.262c-20.593,15.641,5.984,44.833,20.758,22.372,10.059-15.3-8.714-31.519-20.758-22.372Zm22.453-29.908c-15.2,11.544,4.418,33.088,15.32,16.513,7.425-11.29-6.432-23.263-15.32-16.513Zm-31-14.638c8.891-6.753,22.746,5.22,15.323,16.51-10.9,16.575-30.518-4.966-15.323-16.51ZM829.379,415c-5.5,4.183,1.6,11.987,5.551,5.982,2.689-4.09-2.332-8.426-5.551-5.982Zm15.32,18.594c-6.657,5.057,1.935,14.492,6.709,7.231,3.252-4.945-2.816-10.191-6.709-7.231Zm-16.015,14.348c5.1-3.872,13.043,2.993,8.788,9.468-6.255,9.506-17.5-2.849-8.788-9.468Zm-12.3,22.214c5.1-3.872,13.045,2.993,8.788,9.468-6.255,9.506-17.5-2.847-8.788-9.468Zm28.8-5.646c-6.657,5.057,1.935,14.494,6.709,7.231,3.252-4.945-2.818-10.189-6.709-7.231Zm-74.408,51.918c-13.283,10.088,3.86,28.919,13.39,14.43,6.489-9.868-5.62-20.332-13.39-14.43ZM756.664,580.69c-20.591,15.641,5.984,44.83,20.758,22.372,10.06-15.3-8.714-31.522-20.758-22.372Zm22.454-29.908c8.888-6.753,22.746,5.22,15.32,16.51-10.9,16.577-30.518-4.969-15.32-16.51Zm-31-14.64c8.891-6.75,22.748,5.222,15.323,16.51-10.9,16.577-30.518-4.966-15.323-16.51Zm24.218-96.694c-5.5,4.181,1.6,11.987,5.551,5.982,2.692-4.092-2.332-8.429-5.551-5.982Zm15.32,18.591c-6.657,5.057,1.935,14.494,6.71,7.234,3.254-4.947-2.816-10.191-6.71-7.234Zm-16.015,14.348c5.1-3.872,13.045,2.993,8.788,9.468-6.252,9.506-17.5-2.847-8.788-9.468ZM759.346,494.6c5.1-3.872,13.043,3,8.786,9.47-6.255,9.506-17.5-2.849-8.786-9.47Zm28.794-5.644c-6.657,5.055,1.935,14.492,6.71,7.232,3.252-4.947-2.818-10.191-6.71-7.232Zm-79.661,30.631c-13.282,10.088,3.862,28.919,13.393,14.432,6.489-9.868-5.622-20.332-13.393-14.432Zm-14.111,64.262c-20.593,15.641,5.984,44.833,20.758,22.372,10.059-15.3-8.714-31.519-20.758-22.372Zm22.454-29.908c8.888-6.75,22.746,5.223,15.32,16.513-10.9,16.575-30.518-4.969-15.32-16.513Zm-31-14.638c8.891-6.753,22.746,5.22,15.32,16.51-10.9,16.577-30.516-4.969-15.32-16.51Zm24.218-96.7c-5.505,4.183,1.6,11.987,5.551,5.982,2.689-4.09-2.332-8.426-5.551-5.982Zm15.32,18.591c-6.657,5.057,1.935,14.494,6.709,7.234,3.254-4.945-2.816-10.191-6.709-7.234Zm-16.015,14.351c5.1-3.872,13.043,2.993,8.788,9.468-6.255,9.506-17.5-2.849-8.788-9.468Zm-12.3,22.214c5.1-3.872,13.045,2.993,8.788,9.468-6.255,9.506-17.5-2.847-8.788-9.468Zm28.8-5.646c-6.657,5.057,1.935,14.492,6.709,7.231,3.252-4.945-2.818-10.189-6.709-7.231Zm-74.856,35.81c-13.28,10.088,3.862,28.921,13.393,14.432,6.489-9.87-5.62-20.334-13.393-14.432Zm-14.111,64.262c-20.591,15.641,5.986,44.83,20.758,22.372,10.059-15.3-8.714-31.519-20.758-22.372Zm22.454-29.908c8.889-6.75,22.746,5.22,15.32,16.51-10.9,16.577-30.518-4.966-15.32-16.51Zm-31-14.64c8.889-6.75,22.746,5.222,15.32,16.513-10.9,16.577-30.518-4.966-15.32-16.513Zm24.216-96.694c-5.505,4.183,1.6,11.987,5.55,5.982,2.692-4.09-2.33-8.426-5.55-5.982Zm15.32,18.594c-6.657,5.055,1.935,14.492,6.712,7.231,3.252-4.947-2.818-10.191-6.712-7.231Zm-16.012,14.346c5.1-3.87,13.043,3,8.786,9.47-6.255,9.506-17.5-2.849-8.786-9.47Zm-12.3,22.217c5.1-3.872,13.043,2.993,8.786,9.468-6.252,9.506-17.5-2.847-8.786-9.468Zm28.794-5.646c-6.657,5.055,1.935,14.494,6.712,7.231,3.25-4.945-2.818-10.191-6.712-7.231Zm-73.05,79.5c-13.28,10.091,3.862,28.919,13.39,14.432,6.492-9.868-5.62-20.334-13.39-14.432ZM581.19,644.217c-20.588,15.641,5.986,44.833,20.761,22.372,10.059-15.3-8.714-31.519-20.761-22.372Zm22.454-29.908c8.891-6.75,22.748,5.223,15.323,16.513-10.9,16.577-30.518-4.969-15.323-16.513Zm-31-14.638c8.891-6.753,22.746,5.22,15.32,16.51-10.9,16.577-30.516-4.966-15.32-16.51Zm24.218-96.7c-5.505,4.183,1.6,11.987,5.548,5.982,2.691-4.09-2.33-8.426-5.548-5.982Zm15.32,18.594c-6.657,5.055,1.935,14.492,6.709,7.232,3.254-4.945-2.816-10.189-6.709-7.232Zm-16.015,14.346c5.1-3.87,13.043,3,8.788,9.47-6.255,9.506-17.5-2.849-8.788-9.47Zm-12.3,22.217c5.1-3.872,13.045,3,8.788,9.468-6.255,9.509-17.5-2.847-8.788-9.468Zm28.8-5.646c-6.657,5.057,1.935,14.494,6.709,7.234,3.252-4.947-2.818-10.191-6.709-7.234Zm-68.134-39.7c-13.282,10.091,3.862,28.921,13.39,14.432,6.492-9.868-5.62-20.332-13.39-14.432ZM530.421,577.05c-20.591,15.641,5.986,44.833,20.758,22.372,10.062-15.3-8.711-31.519-20.758-22.372Zm22.453-29.905c-15.2,11.544,4.42,33.088,15.323,16.51,7.425-11.29-6.432-23.263-15.323-16.51Zm-31-14.64c8.891-6.753,22.746,5.22,15.32,16.51-10.9,16.577-30.516-4.966-15.32-16.51Zm24.218-96.7c-5.507,4.183,1.6,11.987,5.548,5.982,2.691-4.09-2.33-8.426-5.548-5.982Zm15.32,18.594c-6.657,5.055,1.935,14.492,6.709,7.232,3.254-4.945-2.816-10.191-6.709-7.232ZM545.4,468.75c5.1-3.872,13.043,2.993,8.786,9.468-6.252,9.506-17.5-2.849-8.786-9.468Zm-12.3,22.214c5.1-3.872,13.045,2.993,8.788,9.468-6.255,9.509-17.5-2.847-8.788-9.468Zm28.8-5.646c-6.657,5.057,1.935,14.494,6.709,7.232,3.252-4.945-2.818-10.189-6.709-7.232Zm-79.661,30.633c-13.283,10.088,3.862,28.919,13.393,14.429,6.489-9.868-5.622-20.332-13.393-14.429Zm-14.113,64.262c-20.591,15.641,5.986,44.831,20.758,22.372,10.062-15.3-8.714-31.519-20.758-22.372Zm22.454-29.908c8.891-6.753,22.748,5.22,15.323,16.513-10.9,16.575-30.518-4.969-15.323-16.513Zm-31-14.64c8.891-6.75,22.746,5.223,15.32,16.513-10.9,16.575-30.516-4.969-15.32-16.513ZM483.8,438.972c-5.507,4.183,1.6,11.987,5.548,5.982,2.691-4.09-2.33-8.429-5.548-5.982Zm15.32,18.594c-6.659,5.055,1.932,14.492,6.709,7.232,3.252-4.947-2.818-10.191-6.709-7.232ZM483.1,471.911c5.1-3.872,13.043,3,8.786,9.468-6.252,9.506-17.5-2.847-8.786-9.468Zm-12.3,22.217c5.1-3.872,13.045,2.993,8.788,9.468-6.255,9.506-17.5-2.847-8.788-9.468Zm28.794-5.646c-6.654,5.055,1.935,14.492,6.712,7.231,3.252-4.945-2.818-10.191-6.712-7.231Zm-73.05,79.5c-13.28,10.088,3.862,28.919,13.393,14.432,6.489-9.87-5.622-20.334-13.393-14.432ZM412.44,632.239c-20.591,15.641,5.986,44.833,20.758,22.372,10.059-15.3-8.716-31.519-20.758-22.372Zm22.454-29.908c8.889-6.75,22.746,5.22,15.32,16.51-10.9,16.577-30.518-4.966-15.32-16.51Zm-31-14.64c8.888-6.75,22.743,5.223,15.32,16.513-10.9,16.577-30.518-4.966-15.32-16.513ZM428.11,491c-5.505,4.183,1.6,11.987,5.551,5.982,2.691-4.09-2.33-8.426-5.551-5.982Zm15.32,18.594c-6.657,5.055,1.935,14.492,6.712,7.231,3.249-4.947-2.818-10.189-6.712-7.231Zm-16.012,14.348c5.1-3.872,13.043,2.993,8.786,9.466-6.254,9.509-17.5-2.847-8.786-9.466Zm-12.3,22.214c5.1-3.872,13.043,2.993,8.786,9.468-6.252,9.506-17.5-2.847-8.786-9.468Zm28.794-5.646c-6.657,5.057,1.935,14.494,6.709,7.232,3.252-4.945-2.816-10.189-6.709-7.232Zm-69.542,36.735c-13.282,10.091,3.862,28.919,13.39,14.432,6.492-9.87-5.62-20.334-13.39-14.432ZM360.261,641.5c-20.591,15.641,5.986,44.831,20.758,22.372,10.062-15.3-8.711-31.519-20.758-22.372ZM382.714,611.6c8.891-6.75,22.748,5.22,15.323,16.513-10.9,16.575-30.518-4.969-15.323-16.513Zm-31-14.638c8.891-6.753,22.746,5.22,15.32,16.51-10.9,16.575-30.516-4.969-15.32-16.51Zm24.218-96.7c-5.507,4.183,1.6,11.987,5.548,5.981,2.691-4.09-2.33-8.429-5.548-5.981Zm15.32,18.594c-6.657,5.055,1.932,14.492,6.71,7.231,3.252-4.945-2.816-10.191-6.71-7.231ZM375.238,533.2c5.1-3.872,13.043,3,8.788,9.47-6.255,9.5-17.5-2.849-8.788-9.47Zm-12.3,22.216c5.1-3.872,13.043,2.993,8.788,9.468-6.255,9.506-17.5-2.847-8.788-9.468Zm28.8-5.646c-6.659,5.057,1.935,14.492,6.71,7.231,3.252-4.945-2.818-10.191-6.71-7.231ZM324.869,518.8c-13.282,10.088,3.862,28.919,13.39,14.43,6.492-9.868-5.62-20.334-13.39-14.43ZM310.756,583.06c-20.591,15.641,5.986,44.831,20.758,22.37,10.059-15.3-8.711-31.519-20.758-22.37Zm22.454-29.908c-15.2,11.544,4.42,33.088,15.323,16.51,7.425-11.29-6.432-23.263-15.323-16.51Zm-31-14.64c8.888-6.753,22.746,5.222,15.32,16.513-10.9,16.575-30.518-4.969-15.32-16.513Zm24.218-96.694c-5.507,4.181,1.6,11.987,5.548,5.982,2.691-4.092-2.33-8.429-5.548-5.982Zm15.32,18.591c-6.657,5.057,1.935,14.494,6.71,7.232,3.252-4.945-2.818-10.189-6.71-7.232Zm-16.015,14.348c5.1-3.872,13.043,2.993,8.786,9.468-6.252,9.506-17.5-2.847-8.786-9.468Zm-12.3,22.216c5.1-3.874,13.043,2.993,8.788,9.468-6.255,9.506-17.5-2.849-8.788-9.468Zm28.794-5.649c-6.657,5.057,1.937,14.494,6.712,7.234,3.252-4.947-2.818-10.191-6.712-7.234Zm-73.05,79.5c-13.282,10.088,3.865,28.919,13.393,14.432,6.489-9.87-5.622-20.334-13.393-14.432Zm-14.111,64.26c-20.593,15.644,5.986,44.835,20.758,22.375,10.059-15.3-8.714-31.522-20.758-22.375Zm22.454-29.905c8.889-6.753,22.746,5.22,15.32,16.51-10.9,16.577-30.518-4.966-15.32-16.51Zm-31-14.64c8.891-6.75,22.748,5.223,15.323,16.513-10.9,16.577-30.518-4.969-15.323-16.513Zm24.218-96.694c-5.505,4.181,1.6,11.987,5.551,5.982,2.689-4.092-2.33-8.429-5.551-5.982Zm15.32,18.591c-6.657,5.057,1.935,14.494,6.709,7.231,3.254-4.945-2.816-10.189-6.709-7.231Zm-16.015,14.348c5.1-3.872,13.045,3,8.788,9.468-6.255,9.509-17.5-2.847-8.788-9.468ZM257.753,549c5.1-3.872,13.043,2.993,8.786,9.468-6.255,9.506-17.5-2.847-8.786-9.468Zm28.794-5.646c-6.657,5.055,1.935,14.492,6.709,7.231,3.254-4.947-2.816-10.191-6.709-7.231Zm-68.132-39.7c-13.285,10.088,3.86,28.919,13.39,14.432,6.489-9.87-5.622-20.334-13.39-14.432ZM204.3,567.92c-20.593,15.641,5.986,44.831,20.756,22.372,10.062-15.3-8.711-31.522-20.756-22.372Zm22.454-29.908c-15.2,11.544,4.418,33.088,15.32,16.51,7.425-11.29-6.429-23.263-15.32-16.51Zm-31-14.64c8.891-6.75,22.748,5.223,15.323,16.513-10.9,16.575-30.518-4.969-15.323-16.513Zm24.218-96.694c-5.505,4.183,1.6,11.987,5.551,5.982,2.689-4.09-2.33-8.429-5.551-5.982Zm15.32,18.591c-6.657,5.057,1.935,14.494,6.712,7.231,3.252-4.945-2.818-10.189-6.712-7.231Zm-16.015,14.348c5.1-3.872,13.045,2.993,8.788,9.468-6.255,9.506-17.5-2.847-8.788-9.468Zm-12.3,22.216c5.1-3.872,13.045,2.993,8.788,9.468-6.252,9.506-17.5-2.849-8.788-9.468Zm28.8-5.646c-6.657,5.057,1.935,14.494,6.709,7.231,3.254-4.945-2.816-10.191-6.709-7.231Zm-79.661,30.631c-13.282,10.091,3.862,28.921,13.393,14.432,6.489-9.868-5.622-20.334-13.393-14.432ZM142,571.081c-20.588,15.641,5.986,44.833,20.761,22.372,10.059-15.3-8.714-31.519-20.761-22.372Zm22.454-29.905c8.891-6.753,22.748,5.22,15.323,16.51-10.9,16.575-30.518-4.966-15.323-16.51Zm-31-14.64c8.891-6.753,22.748,5.22,15.323,16.51-10.9,16.577-30.518-4.966-15.323-16.51Zm24.218-96.7c-5.507,4.183,1.6,11.987,5.551,5.982,2.689-4.09-2.332-8.426-5.551-5.982ZM173,448.432c-6.657,5.055,1.935,14.494,6.709,7.232,3.252-4.945-2.816-10.189-6.709-7.232ZM156.981,462.78c5.1-3.872,13.045,2.993,8.788,9.468-6.255,9.506-17.5-2.847-8.788-9.468Zm-12.3,22.214c5.1-3.872,13.045,2.993,8.788,9.47-6.255,9.5-17.5-2.85-8.788-9.47Zm28.8-5.646c-6.657,5.057,1.935,14.494,6.709,7.234,3.254-4.947-2.818-10.191-6.709-7.234Zm-73.05,79.5c-13.282,10.088,3.86,28.919,13.39,14.429,6.492-9.868-5.62-20.332-13.39-14.429ZM86.319,623.109c-20.591,15.641,5.986,44.83,20.758,22.37,10.062-15.3-8.714-31.519-20.758-22.37ZM108.772,593.2c8.889-6.753,22.746,5.22,15.323,16.51-10.9,16.577-30.518-4.966-15.323-16.51Zm-31-14.64c8.889-6.75,22.746,5.222,15.32,16.513-10.9,16.575-30.518-4.969-15.32-16.513Zm24.218-96.7c-5.507,4.183,1.6,11.989,5.551,5.982,2.687-4.09-2.332-8.426-5.551-5.982Zm15.318,18.594c-6.657,5.057,1.937,14.494,6.712,7.234,3.252-4.947-2.818-10.191-6.712-7.234ZM101.3,514.809c5.1-3.874,13.043,2.991,8.786,9.466-6.252,9.506-17.5-2.847-8.786-9.466ZM89,537.023c5.1-3.874,13.043,2.993,8.788,9.468-6.255,9.506-17.5-2.849-8.788-9.468Zm28.794-5.649c-6.654,5.057,1.935,14.494,6.712,7.234,3.252-4.947-2.818-10.191-6.712-7.234ZM35.55,555.942c-20.591,15.641,5.986,44.83,20.758,22.372,10.062-15.3-8.714-31.522-20.758-22.372ZM58,526.035c8.889-6.753,22.746,5.22,15.323,16.51-10.9,16.577-30.518-4.966-15.323-16.51Zm-31-14.64c8.891-6.75,22.746,5.222,15.32,16.513-10.9,16.575-30.518-4.969-15.32-16.513ZM51.22,414.7c-5.505,4.181,1.6,11.987,5.553,5.982,2.689-4.09-2.332-8.429-5.553-5.982Zm15.32,18.591c-6.654,5.057,1.937,14.494,6.712,7.232,3.252-4.945-2.818-10.189-6.712-7.232ZM50.528,447.64c5.1-3.872,13.043,2.993,8.786,9.468-6.252,9.506-17.5-2.847-8.786-9.468Zm-12.3,22.217c5.1-3.874,13.043,2.993,8.786,9.468-6.252,9.506-17.5-2.849-8.786-9.468Zm28.794-5.649c-6.657,5.057,1.935,14.494,6.712,7.234C76.99,466.494,70.919,461.25,67.026,464.208Z" transform="translate(-20.443 -412.833)"/></svg>