<svg xmlns="http://www.w3.org/2000/svg" width="1755" height="295" viewBox="0 0 1755 295"><defs><style>.multipleBubblesFilleda{fill:#e3f3f8;fill-rule:evenodd;}</style></defs><path class="multipleBubblesFilleda" d="M50.622,309.152c-15,11.4,4.363,32.674,15.132,16.3,7.332-11.151-6.352-22.974-15.132-16.3Zm1694,28.3c-15.007,11.4,4.363,32.674,15.132,16.3,7.332-11.149-6.352-22.974-15.132-16.3Zm-15.946,72.608c-23.265,17.672,6.762,50.653,23.455,25.277,11.367-17.285-9.844-35.615-23.455-25.277Zm25.371-33.792c10.044-7.628,25.7,5.9,17.311,18.658-12.319,18.728-34.481-5.613-17.311-18.658Zm-35.027-16.539c10.044-7.631,25.7,5.9,17.311,18.655-12.319,18.73-34.481-5.613-17.311-18.655Zm27.363-109.255c-6.222,4.727,1.81,13.543,6.271,6.757,3.039-4.62-2.634-9.521-6.271-6.757Zm17.311,21.008c-7.522,5.712,2.184,16.372,7.582,8.169,3.674-5.587-3.182-11.513-7.582-8.169ZM1745.6,287.695c5.759-4.376,14.737,3.383,9.927,10.7-7.064,10.741-19.773-3.216-9.927-10.7ZM1731.7,312.8c5.759-4.376,14.737,3.383,9.927,10.7-7.067,10.738-19.776-3.219-9.927-10.7Zm32.534-6.38c-7.522,5.712,2.187,16.375,7.582,8.172,3.676-5.587-3.182-11.513-7.582-8.172Zm-90.007,34.611c-15.007,11.4,4.363,32.674,15.129,16.3,7.335-11.149-6.352-22.974-15.129-16.3Zm-15.946,72.608c-23.265,17.672,6.763,50.653,23.455,25.28,11.367-17.287-9.846-35.615-23.455-25.28Zm25.371-33.79c10.044-7.631,25.7,5.9,17.311,18.655-12.319,18.728-34.481-5.613-17.311-18.655ZM1648.628,363.3c10.044-7.631,25.7,5.9,17.311,18.655-12.319,18.728-34.481-5.613-17.311-18.655Zm27.362-109.255c-6.222,4.724,1.81,13.543,6.271,6.757,3.039-4.62-2.634-9.521-6.271-6.757Zm17.311,21.005c-7.522,5.715,2.184,16.377,7.582,8.172,3.674-5.585-3.182-11.513-7.582-8.172Zm-18.1,16.214c5.762-4.376,14.74,3.383,9.929,10.7-7.064,10.741-19.776-3.216-9.929-10.7Zm-13.892,25.1c5.759-4.376,14.74,3.383,9.93,10.7-7.067,10.738-19.776-3.219-9.93-10.7Zm32.534-6.38c-7.519,5.712,2.187,16.375,7.584,8.172,3.674-5.587-3.185-11.513-7.584-8.172Zm-84.573,40.461c-15.007,11.4,4.363,32.674,15.13,16.3,7.335-11.149-6.349-22.974-15.13-16.3Zm-15.946,72.608c-23.265,17.675,6.763,50.656,23.455,25.277,11.367-17.285-9.846-35.612-23.455-25.277Zm25.368-33.79c10.046-7.631,25.7,5.9,17.313,18.655-12.319,18.73-34.481-5.613-17.313-18.655Zm-35.025-16.541c10.044-7.628,25.7,5.9,17.311,18.655-12.319,18.73-34.481-5.613-17.311-18.655Zm27.362-109.255c-6.222,4.727,1.807,13.546,6.271,6.76,3.039-4.623-2.634-9.524-6.271-6.76Zm17.311,21.008c-7.522,5.712,2.184,16.375,7.582,8.172,3.674-5.59-3.185-11.515-7.582-8.172Zm-18.093,16.211c5.756-4.373,14.737,3.383,9.927,10.7-7.067,10.741-19.776-3.219-9.927-10.7Zm-13.894,25.1c5.759-4.376,14.737,3.383,9.927,10.7-7.064,10.741-19.773-3.219-9.927-10.7Zm32.534-6.38c-7.519,5.715,2.189,16.375,7.581,8.172,3.676-5.587-3.182-11.513-7.581-8.172Zm-82.535,89.822c-15.01,11.4,4.363,32.677,15.129,16.3,7.335-11.149-6.352-22.974-15.129-16.3Zm-15.948,72.608c-23.262,17.675,6.765,50.656,23.457,25.28,11.365-17.287-9.846-35.615-23.457-25.28Zm25.371-33.79c10.044-7.628,25.7,5.9,17.311,18.655-12.319,18.728-34.481-5.613-17.311-18.655Zm-35.025-16.541c10.044-7.628,25.7,5.9,17.308,18.655-12.319,18.73-34.479-5.611-17.308-18.655Zm27.36-109.252c-6.219,4.724,1.81,13.543,6.271,6.757,3.039-4.623-2.631-9.521-6.271-6.757Zm17.311,21.005c-7.522,5.715,2.187,16.375,7.584,8.172,3.674-5.587-3.185-11.513-7.584-8.172Zm-18.093,16.211c5.759-4.376,14.737,3.383,9.927,10.7-7.064,10.741-19.773-3.219-9.927-10.7Zm-13.892,25.1c5.759-4.376,14.737,3.383,9.927,10.7-7.064,10.741-19.776-3.219-9.927-10.7Zm32.534-6.378c-7.522,5.712,2.187,16.375,7.582,8.172,3.676-5.59-3.182-11.515-7.582-8.172Zm-76.981-44.855c-15.007,11.4,4.363,32.677,15.129,16.307,7.332-11.149-6.352-22.974-15.129-16.307Zm-15.946,72.61c-23.265,17.672,6.763,50.653,23.455,25.277,11.367-17.285-9.846-35.612-23.455-25.277Zm25.368-33.792c-17.17,13.044,4.995,37.385,17.314,18.658,8.39-12.758-7.267-26.286-17.314-18.658Zm-35.025-16.541c10.044-7.628,25.7,5.9,17.308,18.658-12.316,18.73-34.479-5.613-17.308-18.658Zm27.362-109.252c-6.222,4.727,1.807,13.543,6.271,6.757,3.039-4.62-2.634-9.521-6.271-6.757Zm17.308,21.008c-7.519,5.712,2.187,16.375,7.584,8.172,3.674-5.59-3.182-11.515-7.584-8.172Zm-18.091,16.211c5.759-4.376,14.737,3.383,9.927,10.7-7.064,10.743-19.775-3.216-9.927-10.7Zm-13.894,25.1c5.759-4.376,14.74,3.383,9.927,10.7-7.064,10.743-19.773-3.216-9.927-10.7Zm32.537-6.38c-7.522,5.712,2.186,16.375,7.581,8.172,3.674-5.587-3.185-11.515-7.581-8.172Zm-90.007,34.611c-15.01,11.4,4.363,32.674,15.13,16.3,7.332-11.149-6.352-22.974-15.13-16.3Zm-15.948,72.608c-23.262,17.672,6.765,50.656,23.455,25.277,11.367-17.285-9.844-35.612-23.455-25.277Zm25.371-33.792c10.044-7.628,25.7,5.9,17.313,18.658-12.322,18.728-34.484-5.613-17.313-18.658ZM1393,359.192c10.046-7.628,25.7,5.9,17.313,18.655-12.319,18.73-34.481-5.613-17.313-18.655Zm27.365-109.255c-6.222,4.727,1.807,13.543,6.271,6.757,3.037-4.62-2.634-9.521-6.271-6.757Zm17.308,21.008c-7.519,5.712,2.187,16.375,7.582,8.169,3.676-5.587-3.182-11.513-7.582-8.169Zm-18.093,16.211c5.759-4.376,14.74,3.383,9.93,10.7-7.064,10.741-19.776-3.216-9.93-10.7Zm-13.892,25.1c5.759-4.376,14.737,3.383,9.929,10.7-7.067,10.741-19.776-3.219-9.929-10.7Zm32.534-6.38c-7.519,5.712,2.187,16.375,7.584,8.172,3.674-5.587-3.185-11.513-7.584-8.172ZM1355.688,395.7c-15.01,11.4,4.36,32.674,15.129,16.307,7.332-11.151-6.352-22.976-15.129-16.307Zm-15.948,72.608c-23.265,17.672,6.763,50.656,23.455,25.277,11.367-17.285-9.844-35.612-23.455-25.277Zm25.371-33.792c10.044-7.626,25.7,5.9,17.311,18.658-12.319,18.728-34.481-5.613-17.311-18.658Zm-35.027-16.539c10.046-7.628,25.7,5.9,17.313,18.655-12.321,18.73-34.484-5.613-17.313-18.655Zm27.362-109.255c-6.222,4.727,1.81,13.543,6.274,6.757,3.037-4.62-2.636-9.521-6.274-6.757Zm17.311,21.008c-7.522,5.712,2.187,16.375,7.582,8.172,3.676-5.59-3.182-11.515-7.582-8.172Zm-18.093,16.211c5.759-4.376,14.737,3.383,9.927,10.7-7.064,10.741-19.773-3.219-9.927-10.7Zm-13.892,25.1c5.759-4.376,14.737,3.383,9.927,10.7-7.064,10.741-19.776-3.219-9.927-10.7Zm32.534-6.38c-7.522,5.712,2.187,16.375,7.582,8.172,3.676-5.587-3.182-11.513-7.582-8.172Zm-78.572,41.506c-15.007,11.4,4.363,32.674,15.129,16.307,7.332-11.151-6.352-22.976-15.129-16.307Zm-15.948,72.608c-23.262,17.672,6.765,50.656,23.457,25.28,11.365-17.287-9.846-35.615-23.457-25.28Zm25.371-33.792c10.044-7.626,25.7,5.9,17.311,18.658-12.319,18.728-34.481-5.613-17.311-18.658Zm-35.027-16.539c10.046-7.631,25.7,5.9,17.311,18.655-12.316,18.73-34.481-5.613-17.311-18.655Zm27.362-109.255c-6.219,4.727,1.81,13.543,6.274,6.757,3.039-4.62-2.634-9.521-6.274-6.757ZM1315.8,340.2c-7.522,5.712,2.187,16.375,7.582,8.172,3.677-5.587-3.182-11.515-7.582-8.172Zm-18.094,16.211c5.759-4.376,14.737,3.383,9.927,10.7-7.064,10.741-19.773-3.219-9.927-10.7Zm-13.892,25.1c5.759-4.376,14.737,3.383,9.927,10.7-7.064,10.741-19.773-3.219-9.927-10.7Zm32.534-6.38c-7.522,5.715,2.187,16.375,7.584,8.172,3.674-5.587-3.185-11.513-7.584-8.172Zm-75.554-35c-15.007,11.4,4.363,32.674,15.129,16.3,7.335-11.149-6.352-22.974-15.129-16.3Zm-15.946,72.608c-23.265,17.672,6.763,50.656,23.455,25.277,11.367-17.285-9.844-35.612-23.455-25.277Zm25.371-33.792c-17.17,13.044,4.992,37.385,17.311,18.658,8.39-12.758-7.267-26.286-17.311-18.658Zm-35.027-16.541c10.044-7.626,25.7,5.9,17.311,18.658-12.319,18.73-34.481-5.613-17.311-18.658Zm27.362-109.252c-6.219,4.727,1.81,13.543,6.271,6.757,3.039-4.62-2.634-9.521-6.271-6.757Zm17.311,21.008c-7.522,5.712,2.187,16.375,7.582,8.172,3.674-5.59-3.182-11.515-7.582-8.172Zm-18.093,16.211c5.759-4.376,14.737,3.383,9.927,10.7-7.064,10.741-19.773-3.219-9.927-10.7Zm-13.894,25.1c5.759-4.376,14.739,3.383,9.927,10.7-7.064,10.743-19.773-3.216-9.927-10.7Zm32.536-6.38c-7.522,5.712,2.187,16.375,7.582,8.172,3.674-5.587-3.182-11.513-7.582-8.172Zm-82.54,89.822c-15,11.4,4.365,32.677,15.132,16.3,7.332-11.149-6.352-22.974-15.132-16.3Zm-15.946,72.608c-23.262,17.672,6.765,50.656,23.457,25.277,11.367-17.285-9.846-35.612-23.457-25.277Zm25.371-33.79c10.046-7.628,25.7,5.9,17.313,18.655-12.321,18.728-34.481-5.613-17.313-18.655Zm-35.025-16.544c10.044-7.626,25.7,5.9,17.311,18.658-12.319,18.73-34.481-5.613-17.311-18.658Zm27.362-109.252c-6.219,4.727,1.807,13.543,6.271,6.757,3.039-4.62-2.634-9.521-6.271-6.757Zm17.308,21.008c-7.519,5.712,2.187,16.375,7.584,8.172,3.674-5.59-3.185-11.515-7.584-8.172Zm-18.091,16.211c5.756-4.376,14.737,3.383,9.927,10.7-7.064,10.741-19.776-3.219-9.927-10.7Zm-13.894,25.1c5.759-4.376,14.739,3.383,9.927,10.7-7.064,10.741-19.773-3.219-9.927-10.7Zm32.536-6.38c-7.522,5.712,2.187,16.375,7.582,8.172,3.674-5.587-3.185-11.513-7.582-8.172Zm-76.984-44.85c-15,11.4,4.363,32.674,15.129,16.3,7.335-11.151-6.349-22.976-15.129-16.3Zm-15.946,72.608c-23.265,17.672,6.763,50.653,23.455,25.277,11.367-17.285-9.844-35.615-23.455-25.277Zm25.371-33.792c-17.17,13.044,4.992,37.385,17.311,18.655,8.39-12.756-7.267-26.283-17.311-18.655ZM1094.913,345.3c10.046-7.628,25.7,5.9,17.311,18.658-12.319,18.728-34.481-5.613-17.311-18.658Zm27.362-109.252c-6.219,4.724,1.81,13.543,6.271,6.757,3.039-4.62-2.634-9.521-6.271-6.757Zm17.311,21.005c-7.522,5.715,2.187,16.375,7.582,8.172,3.674-5.587-3.182-11.513-7.582-8.172Zm-18.094,16.211c5.759-4.373,14.737,3.383,9.927,10.7-7.064,10.741-19.776-3.219-9.927-10.7Zm-13.894,25.1c5.762-4.376,14.74,3.383,9.929,10.7-7.067,10.741-19.776-3.216-9.929-10.7Zm32.536-6.38c-7.522,5.712,2.187,16.375,7.582,8.172,3.674-5.587-3.185-11.513-7.582-8.172ZM1050.128,326.6c-15.007,11.4,4.363,32.674,15.13,16.3,7.334-11.151-6.349-22.974-15.13-16.3Zm-15.946,72.608c-23.265,17.672,6.763,50.653,23.455,25.277,11.367-17.285-9.846-35.612-23.455-25.277Zm25.371-33.792c10.044-7.628,25.7,5.9,17.311,18.658-12.319,18.728-34.481-5.613-17.311-18.658Zm-35.027-16.539c10.044-7.631,25.7,5.9,17.311,18.655-12.319,18.728-34.481-5.613-17.311-18.655Zm27.362-109.255c-6.222,4.724,1.807,13.543,6.271,6.757,3.039-4.62-2.634-9.521-6.271-6.757Zm17.311,21.008c-7.522,5.712,2.187,16.375,7.582,8.169,3.674-5.587-3.182-11.513-7.582-8.169Zm-18.093,16.208c5.756-4.373,14.737,3.385,9.927,10.7-7.067,10.741-19.776-3.216-9.927-10.7Zm-13.894,25.1c5.759-4.373,14.739,3.385,9.929,10.7-7.067,10.741-19.776-3.216-9.929-10.7Zm32.536-6.378c-7.522,5.712,2.184,16.375,7.582,8.172,3.674-5.587-3.185-11.515-7.582-8.172Zm-82.537,89.822c-15.007,11.4,4.363,32.674,15.129,16.3,7.332-11.149-6.352-22.974-15.129-16.3ZM971.262,457.99c-23.265,17.672,6.765,50.656,23.455,25.277,11.37-17.285-9.844-35.612-23.455-25.277ZM996.633,424.2c10.046-7.628,25.7,5.9,17.311,18.658-12.319,18.728-34.481-5.614-17.311-18.658Zm-35.025-16.539c10.044-7.631,25.7,5.9,17.308,18.655-12.319,18.73-34.479-5.613-17.308-18.655ZM988.968,298.4c-6.219,4.727,1.81,13.543,6.271,6.757,3.042-4.62-2.631-9.521-6.271-6.757Zm17.311,21.008c-7.519,5.712,2.187,16.372,7.584,8.169,3.674-5.587-3.185-11.513-7.584-8.169Zm-18.093,16.211c5.759-4.376,14.739,3.383,9.929,10.7-7.067,10.738-19.776-3.219-9.929-10.7Zm-13.892,25.1c5.759-4.376,14.739,3.383,9.927,10.7-7.064,10.738-19.773-3.219-9.927-10.7Zm32.536-6.38c-7.522,5.712,2.184,16.375,7.582,8.172,3.674-5.587-3.185-11.513-7.582-8.172Zm-76.983-44.85c-15.007,11.4,4.363,32.674,15.129,16.3,7.335-11.151-6.349-22.974-15.129-16.3ZM913.9,382.1c-23.265,17.675,6.763,50.656,23.455,25.28,11.367-17.285-9.846-35.615-23.455-25.28Zm25.371-33.79c-17.17,13.044,4.992,37.385,17.311,18.655,8.39-12.756-7.267-26.283-17.311-18.655Zm-35.027-16.541c10.044-7.628,25.7,5.9,17.311,18.655-12.319,18.73-34.481-5.611-17.311-18.655Zm27.362-109.252c-6.219,4.724,1.81,13.543,6.271,6.757,3.039-4.623-2.634-9.521-6.271-6.757Zm17.311,21.005c-7.522,5.715,2.184,16.375,7.582,8.172,3.674-5.587-3.182-11.513-7.582-8.172Zm-18.093,16.211c5.759-4.376,14.737,3.383,9.927,10.7-7.064,10.741-19.776-3.219-9.927-10.7Zm-13.892,25.1c5.756-4.373,14.737,3.383,9.927,10.7-7.067,10.741-19.776-3.219-9.927-10.7Zm32.534-6.38c-7.522,5.715,2.187,16.377,7.582,8.174,3.674-5.59-3.182-11.515-7.582-8.174Zm-84.074,58.661c-15.007,11.4,4.363,32.677,15.132,16.3,7.332-11.149-6.352-22.974-15.132-16.3Zm-15.946,72.61C826.182,427.4,856.21,460.376,872.9,435c11.367-17.285-9.844-35.615-23.455-25.277Zm25.371-33.792c10.044-7.628,25.7,5.9,17.311,18.655-12.319,18.728-34.481-5.613-17.311-18.655ZM839.791,359.39c10.046-7.628,25.7,5.9,17.311,18.655-12.319,18.73-34.481-5.613-17.311-18.655Zm27.362-109.255c-6.219,4.727,1.81,13.543,6.271,6.76,3.039-4.62-2.634-9.524-6.271-6.76Zm17.311,21.008c-7.522,5.712,2.187,16.375,7.582,8.172,3.674-5.587-3.182-11.513-7.582-8.172ZM866.37,287.354c5.759-4.373,14.737,3.383,9.927,10.7-7.064,10.741-19.773-3.219-9.927-10.7Zm-13.892,25.1c5.759-4.376,14.737,3.383,9.927,10.7-7.064,10.741-19.776-3.219-9.927-10.7Zm32.534-6.38c-7.522,5.715,2.187,16.375,7.582,8.172,3.676-5.587-3.182-11.513-7.582-8.172Zm-90.007,34.614c-15.007,11.4,4.363,32.674,15.132,16.3,7.332-11.151-6.352-22.976-15.132-16.3ZM779.06,413.3c-23.265,17.67,6.765,50.653,23.455,25.277,11.367-17.285-9.846-35.615-23.455-25.277ZM804.431,379.5c10.044-7.631,25.7,5.9,17.311,18.655-12.319,18.728-34.481-5.613-17.311-18.655ZM769.4,362.962c10.044-7.628,25.7,5.9,17.311,18.658C774.4,400.348,752.233,376,769.4,362.962Zm27.362-109.255c-6.222,4.727,1.81,13.546,6.271,6.76,3.039-4.623-2.634-9.524-6.271-6.76Zm17.311,21.008c-7.522,5.712,2.187,16.375,7.582,8.172,3.674-5.587-3.182-11.513-7.582-8.172Zm-18.093,16.211c5.759-4.376,14.737,3.383,9.927,10.7-7.064,10.741-19.776-3.219-9.927-10.7Zm-13.894,25.1c5.759-4.373,14.739,3.383,9.929,10.7-7.064,10.741-19.776-3.219-9.929-10.7Zm32.536-6.38c-7.522,5.715,2.187,16.377,7.582,8.172,3.674-5.587-3.182-11.513-7.582-8.172ZM730.05,350.11c-15.007,11.4,4.363,32.674,15.129,16.3,7.335-11.151-6.349-22.974-15.129-16.3ZM714.1,422.718c-23.265,17.672,6.765,50.653,23.455,25.277,11.367-17.285-9.846-35.615-23.455-25.277Zm25.371-33.792c10.044-7.628,25.7,5.9,17.311,18.655-12.319,18.73-34.481-5.611-17.311-18.655Zm-35.027-16.541c10.044-7.628,25.7,5.9,17.311,18.655-12.319,18.73-34.481-5.611-17.311-18.655ZM731.81,263.132c-6.222,4.724,1.807,13.543,6.271,6.757,3.039-4.623-2.634-9.521-6.271-6.757Zm17.311,21.005c-7.522,5.715,2.187,16.377,7.582,8.172,3.674-5.587-3.185-11.513-7.582-8.172Zm-18.093,16.211c5.759-4.373,14.737,3.383,9.927,10.7-7.067,10.741-19.776-3.216-9.927-10.7Zm-13.894,25.1c5.759-4.373,14.739,3.385,9.929,10.7-7.067,10.741-19.776-3.216-9.929-10.7Zm32.536-6.38c-7.522,5.715,2.187,16.377,7.582,8.174,3.674-5.59-3.185-11.515-7.582-8.174Zm-82.537,89.825c-15.007,11.4,4.363,32.674,15.129,16.3,7.335-11.151-6.352-22.974-15.129-16.3ZM651.186,481.5c-23.265,17.672,6.763,50.653,23.455,25.277,11.367-17.285-9.846-35.612-23.455-25.277Zm25.368-33.792c10.046-7.628,25.7,5.9,17.313,18.658-12.321,18.728-34.484-5.613-17.313-18.658ZM641.53,431.168c10.044-7.628,25.7,5.9,17.311,18.658-12.319,18.728-34.484-5.613-17.311-18.658Zm27.362-109.252c-6.222,4.724,1.807,13.543,6.271,6.757,3.039-4.62-2.634-9.521-6.271-6.757ZM686.2,342.924c-7.522,5.712,2.187,16.375,7.584,8.169,3.674-5.587-3.185-11.513-7.584-8.169Zm-18.093,16.211c5.759-4.376,14.737,3.38,9.927,10.7-7.064,10.741-19.773-3.216-9.927-10.7Zm-13.892,25.1c5.759-4.376,14.739,3.383,9.927,10.7-7.064,10.741-19.773-3.219-9.927-10.7Zm32.534-6.38c-7.519,5.712,2.187,16.375,7.584,8.172,3.674-5.587-3.185-11.515-7.584-8.172ZM609.768,333c-15.007,11.4,4.363,32.677,15.129,16.3,7.332-11.149-6.349-22.971-15.129-16.3ZM593.823,405.61c-23.265,17.675,6.765,50.656,23.455,25.28,11.367-17.287-9.844-35.615-23.455-25.28Zm25.371-33.79c-17.17,13.042,4.992,37.383,17.311,18.655,8.39-12.758-7.267-26.286-17.311-18.655Zm-35.027-16.541c10.044-7.628,25.7,5.9,17.311,18.655-12.319,18.73-34.481-5.611-17.311-18.655Zm27.362-109.255c-6.222,4.727,1.81,13.546,6.271,6.76,3.039-4.623-2.634-9.524-6.271-6.76Zm17.308,21.008c-7.519,5.712,2.187,16.375,7.584,8.172,3.674-5.587-3.182-11.513-7.584-8.172Zm-18.091,16.211c5.759-4.376,14.737,3.383,9.927,10.7-7.064,10.743-19.776-3.216-9.927-10.7Zm-13.892,25.1c5.756-4.376,14.737,3.383,9.924,10.7-7.064,10.741-19.773-3.219-9.924-10.7Zm32.534-6.38c-7.522,5.715,2.187,16.377,7.582,8.174,3.674-5.59-3.185-11.515-7.582-8.174Zm-90.007,34.611c-15.007,11.4,4.363,32.677,15.129,16.3,7.335-11.149-6.349-22.974-15.129-16.3Zm-15.946,72.61c-23.265,17.672,6.765,50.653,23.455,25.277,11.367-17.285-9.846-35.615-23.455-25.277Zm25.371-33.792c10.044-7.628,25.7,5.9,17.311,18.655-12.319,18.73-34.481-5.613-17.311-18.655Zm-35.027-16.541c10.044-7.628,25.7,5.9,17.311,18.655-12.319,18.73-34.481-5.613-17.311-18.655ZM541.141,249.6c-6.222,4.724,1.807,13.541,6.271,6.757,3.039-4.62-2.634-9.524-6.271-6.757ZM558.452,270.6c-7.522,5.712,2.184,16.375,7.582,8.172,3.674-5.587-3.182-11.513-7.582-8.172Zm-18.1,16.214c5.759-4.376,14.739,3.38,9.929,10.7-7.064,10.741-19.776-3.219-9.929-10.7Zm-13.892,25.1c5.759-4.373,14.737,3.383,9.927,10.7-7.064,10.741-19.773-3.219-9.927-10.7ZM559,305.538c-7.519,5.712,2.189,16.375,7.584,8.169,3.674-5.587-3.185-11.513-7.584-8.169Zm-82.534,89.82c-15.007,11.4,4.363,32.677,15.129,16.307,7.335-11.151-6.352-22.976-15.129-16.307Zm-15.946,72.61c-23.265,17.672,6.763,50.653,23.455,25.277,11.367-17.285-9.846-35.615-23.455-25.277Zm25.368-33.792c10.046-7.628,25.7,5.9,17.311,18.655-12.319,18.73-34.481-5.611-17.311-18.655Zm-35.025-16.541c10.044-7.628,25.7,5.9,17.311,18.658-12.321,18.728-34.484-5.613-17.311-18.658Zm27.36-109.252c-6.219,4.724,1.81,13.543,6.274,6.755,3.037-4.62-2.634-9.521-6.274-6.755Zm17.311,21.005c-7.522,5.715,2.187,16.377,7.582,8.172,3.676-5.587-3.182-11.513-7.582-8.172ZM477.439,345.6c5.759-4.376,14.737,3.38,9.927,10.7-7.064,10.741-19.773-3.216-9.927-10.7Zm-13.892,25.1c5.759-4.376,14.737,3.38,9.927,10.7-7.064,10.741-19.776-3.219-9.927-10.7Zm32.534-6.38c-7.522,5.712,2.187,16.375,7.582,8.169,3.676-5.587-3.182-11.513-7.582-8.169Zm-78.572,41.5c-15.007,11.4,4.363,32.677,15.129,16.307,7.335-11.151-6.352-22.976-15.129-16.307Zm-15.946,72.61c-23.265,17.672,6.763,50.653,23.455,25.277,11.365-17.285-9.846-35.615-23.455-25.277Zm25.368-33.792c10.044-7.628,25.7,5.9,17.311,18.655-12.316,18.728-34.481-5.611-17.311-18.655ZM391.906,428.1c10.044-7.628,25.7,5.9,17.308,18.658-12.316,18.728-34.479-5.616-17.308-18.658Zm27.362-109.252c-6.222,4.724,1.807,13.543,6.271,6.757,3.039-4.623-2.634-9.524-6.271-6.757Zm17.308,21.005c-7.519,5.712,2.187,16.375,7.584,8.172,3.671-5.587-3.185-11.513-7.584-8.172Zm-18.093,16.214c5.762-4.376,14.737,3.383,9.929,10.7-7.067,10.741-19.776-3.216-9.929-10.7Zm-13.892,25.1c5.759-4.376,14.739,3.38,9.927,10.7-7.064,10.741-19.773-3.216-9.927-10.7Zm32.534-6.38c-7.519,5.712,2.187,16.375,7.584,8.169,3.674-5.585-3.185-11.513-7.584-8.169Zm-75.551-35c-15.01,11.4,4.363,32.674,15.129,16.307,7.332-11.151-6.352-22.976-15.129-16.307ZM345.626,412.4c-23.262,17.675,6.763,50.656,23.455,25.28,11.367-17.287-9.844-35.615-23.455-25.28ZM371,378.609c-17.17,13.044,4.995,37.385,17.311,18.655,8.39-12.758-7.267-26.283-17.311-18.655ZM335.97,362.068c10.046-7.628,25.7,5.9,17.311,18.655-12.319,18.73-34.481-5.611-17.311-18.655Zm27.362-109.252c-6.219,4.724,1.81,13.543,6.271,6.755,3.039-4.62-2.631-9.521-6.271-6.755Zm17.311,21.005c-7.522,5.715,2.187,16.375,7.582,8.172,3.674-5.59-3.182-11.513-7.582-8.172ZM362.55,290.035c5.759-4.378,14.737,3.38,9.927,10.7-7.064,10.741-19.773-3.219-9.927-10.7Zm-13.892,25.1c5.759-4.376,14.737,3.383,9.927,10.7-7.064,10.741-19.776-3.219-9.927-10.7Zm32.534-6.378c-7.522,5.712,2.187,16.375,7.582,8.169,3.676-5.587-3.182-11.513-7.582-8.169Zm-82.537,89.82c-15.007,11.4,4.363,32.677,15.129,16.307,7.332-11.151-6.349-22.974-15.129-16.307Zm-15.946,72.61c-23.265,17.672,6.763,50.653,23.455,25.277,11.367-17.287-9.846-35.612-23.455-25.277Zm25.371-33.792c10.044-7.628,25.7,5.9,17.311,18.658-12.319,18.728-34.481-5.616-17.311-18.658Zm-35.027-16.539c10.044-7.631,25.7,5.9,17.311,18.652-12.319,18.73-34.481-5.611-17.311-18.652ZM300.415,311.6c-6.219,4.727,1.81,13.546,6.271,6.76,3.039-4.623-2.634-9.524-6.271-6.76ZM317.723,332.6c-7.519,5.715,2.187,16.377,7.582,8.172,3.676-5.587-3.182-11.513-7.582-8.172Zm-18.091,16.211c5.759-4.376,14.737,3.383,9.927,10.7-7.064,10.741-19.776-3.219-9.927-10.7Zm-13.892,25.1c5.759-4.373,14.737,3.383,9.927,10.7-7.067,10.741-19.776-3.216-9.927-10.7Zm32.534-6.38c-7.522,5.715,2.187,16.377,7.582,8.174,3.676-5.59-3.182-11.515-7.582-8.174Zm-76.983-44.85c-15,11.4,4.365,32.674,15.132,16.3,7.332-11.149-6.352-22.974-15.132-16.3Zm-15.946,72.608c-23.265,17.672,6.765,50.656,23.455,25.28,11.37-17.287-9.844-35.615-23.455-25.28Zm25.371-33.79c-17.17,13.042,4.992,37.383,17.311,18.655,8.388-12.758-7.267-26.283-17.311-18.655Zm-35.027-16.541c10.046-7.628,25.7,5.9,17.311,18.655-12.319,18.728-34.481-5.613-17.311-18.655Zm27.362-109.255c-6.219,4.727,1.81,13.543,6.271,6.757,3.039-4.62-2.634-9.521-6.271-6.757Zm17.311,21.008c-7.519,5.712,2.187,16.375,7.582,8.172,3.674-5.59-3.182-11.515-7.582-8.172Zm-18.093,16.211c5.759-4.376,14.737,3.383,9.927,10.7-7.064,10.741-19.776-3.219-9.927-10.7Zm-13.894,25.1c5.762-4.376,14.739,3.383,9.929,10.7-7.064,10.743-19.776-3.216-9.929-10.7Zm32.539-6.38c-7.524,5.712,2.184,16.375,7.582,8.172,3.674-5.587-3.185-11.513-7.582-8.172Zm-90.007,34.611c-15.01,11.4,4.363,32.677,15.127,16.3,7.335-11.149-6.349-22.974-15.127-16.3Zm-15.948,72.61c-23.265,17.67,6.765,50.653,23.455,25.277,11.367-17.287-9.844-35.615-23.455-25.277Zm25.371-33.795c10.044-7.626,25.7,5.9,17.311,18.658-12.319,18.728-34.481-5.613-17.311-18.658ZM145.3,348.535c10.044-7.631,25.7,5.9,17.311,18.655-12.319,18.73-34.481-5.613-17.311-18.655Zm27.362-109.252c-6.219,4.724,1.81,13.543,6.271,6.755,3.039-4.62-2.634-9.521-6.271-6.755Zm17.311,21.005c-7.522,5.712,2.187,16.375,7.582,8.172,3.674-5.59-3.182-11.513-7.582-8.172ZM171.881,276.5c5.759-4.373,14.737,3.383,9.927,10.7-7.064,10.741-19.773-3.219-9.927-10.7Zm-13.892,25.1c5.756-4.378,14.737,3.38,9.927,10.7-7.067,10.741-19.776-3.219-9.927-10.7Zm32.534-6.38c-7.522,5.712,2.187,16.372,7.582,8.169,3.674-5.587-3.182-11.513-7.582-8.169Zm-82.537,89.82c-15.007,11.4,4.363,32.677,15.129,16.307,7.332-11.151-6.352-22.976-15.129-16.307Zm-15.948,72.61C68.775,475.324,98.8,508.3,115.495,482.929c11.367-17.285-9.846-35.615-23.457-25.277Zm25.373-33.792c10.044-7.628,25.7,5.9,17.311,18.655-12.321,18.728-34.481-5.611-17.311-18.655ZM82.384,407.318c10.044-7.628,25.7,5.9,17.311,18.655-12.319,18.73-34.481-5.613-17.311-18.655Zm27.362-109.255c-6.219,4.727,1.807,13.543,6.271,6.76,3.039-4.62-2.634-9.524-6.271-6.76Zm17.308,21.008c-7.519,5.712,2.187,16.375,7.584,8.172,3.674-5.587-3.182-11.513-7.584-8.172Zm-18.091,16.211c5.756-4.376,14.737,3.383,9.927,10.7-7.067,10.741-19.776-3.219-9.927-10.7Zm-13.894,25.1c5.759-4.376,14.739,3.383,9.927,10.7-7.064,10.741-19.773-3.219-9.927-10.7ZM127.606,354c-7.522,5.715,2.187,16.375,7.582,8.172,3.674-5.587-3.185-11.513-7.582-8.172ZM34.676,381.76c-23.265,17.672,6.765,50.656,23.455,25.277,11.367-17.285-9.844-35.612-23.455-25.277Zm25.371-33.792c10.044-7.628,25.7,5.9,17.311,18.658-12.319,18.728-34.481-5.613-17.311-18.658ZM25.02,331.427c10.046-7.628,25.7,5.9,17.311,18.658-12.319,18.73-34.481-5.614-17.311-18.658ZM52.382,222.175c-6.219,4.727,1.81,13.543,6.271,6.757,3.039-4.62-2.631-9.521-6.271-6.757Zm17.311,21.008c-7.522,5.712,2.187,16.375,7.582,8.169,3.674-5.587-3.182-11.513-7.582-8.169ZM51.6,259.394c5.759-4.376,14.737,3.383,9.927,10.7-7.064,10.738-19.776-3.219-9.927-10.7Zm-13.892,25.1c5.759-4.376,14.737,3.383,9.927,10.7-7.064,10.738-19.776-3.219-9.927-10.7Zm32.534-6.38c-7.522,5.712,2.187,16.375,7.582,8.172C81.5,280.7,74.641,274.773,70.242,278.114Z" transform="translate(-18.739 -221.373)"/></svg>