<svg xmlns="http://www.w3.org/2000/svg" width="408.833" height="82.333" viewBox="0 0 408.833 82.333"><defs><style>.a{opacity:0.3;}.b{fill:#fff;}.c{fill:#da647c;}.d{fill:#cacaca;}.e{fill:none;}</style></defs><g class="a" transform="translate(180.027 -918.328)"><g transform="translate(-180.027 948.477)"><path class="b" d="M180.219,947.956l15.659,24.558-2.6-36.6-91.305-15.581Z" transform="translate(-101.973 -920.329)"/></g><g transform="translate(99.972 918.329)"><path class="c" d="M195.878,974.514a2,2,0,0,1-1.687-.925L178.9,949.612l-77.6-27.4a2,2,0,0,1,1-3.858l91.306,15.581a2,2,0,0,1,1.658,1.83l2.6,36.6a2,2,0,0,1-1.367,2.04A1.978,1.978,0,0,1,195.878,974.514ZM124.72,926.24l56.165,19.83a2,2,0,0,1,1.02.811l11.419,17.907-1.93-27.171Z" transform="translate(-99.972 -918.329)"/></g><g transform="translate(195.827 935.689)"><path class="d" d="M195.894,972.713l-.006-.082-.061-.024Z" transform="translate(-195.827 -972.608)"/></g><g transform="translate(101.972 920.329)"><path class="e" d="M193.278,935.91l33.528-14.953-124.834-.627Z" transform="translate(-101.972 -920.329)"/></g><g transform="translate(99.972 918.329)"><path class="c" d="M193.278,937.909a1.992,1.992,0,0,1-.336-.028L101.636,922.3a2,2,0,0,1,.336-3.972h.01l124.834.627a2,2,0,0,1,.805,3.826l-33.528,14.954A2,2,0,0,1,193.278,937.909ZM126.3,922.451l66.718,11.385,24.5-10.927Z" transform="translate(-99.972 -918.329)"/></g><g transform="translate(168.257 947.956)"><path class="e" d="M168.257,962.141l27.569,10.466.061.024.087.033-.1-.151-15.659-24.558Z" transform="translate(-168.257 -947.956)"/></g><g transform="translate(166.257 945.956)"><path class="c" d="M195.974,974.665a2,2,0,0,1-.713-.132l-.087-.033-27.627-10.489a2,2,0,0,1-.819-3.159l11.962-14.186a2,2,0,0,1,3.215.215l15.754,24.705a2,2,0,0,1-1.685,3.079ZM171.6,961.273l19.439,7.38-11.049-17.329Z" transform="translate(-166.257 -945.956)"/></g><g transform="translate(101.973 920.329)"><path class="e" d="M143.335,991.7l36.884-43.742-78.246-27.627Z" transform="translate(-101.973 -920.329)"/></g><g transform="translate(99.972 918.328)"><path class="c" d="M143.335,993.7c-.058,0-.117,0-.175-.008a2,2,0,0,1-1.556-.989l-41.362-71.369a2,2,0,0,1,2.4-2.889l78.246,27.627a2,2,0,0,1,.864,3.175l-36.884,43.742A2,2,0,0,1,143.335,993.7Zm-36.911-69.676,37.215,64.212,33.186-39.355Z" transform="translate(-99.972 -918.328)"/></g></g></svg>