<svg xmlns="http://www.w3.org/2000/svg" width="51.734" height="265.884" viewBox="0 0 51.734 265.884"><defs><style>.path4919a{fill:#5fb3b6;fill-rule:evenodd;}</style></defs><path class="path4919a" d="M315.456,836.823c20.319-1.212.892,52.248,5.809,49.293,15.139-9.1-.014,41.063-6.617,53.637-12.732,24.242,31.141-26.888,6.094,35.639-27.388,68.375,11.865-8.979,1.292,33.763-1.925,7.778-28.554,37.252-30.363,63.5-1.009,14.63-10.433-57.215-12.11-60.322-8.8-16.322,6.545-41.561,10.393-11.847.321,2.468,3.344-5.845-6.716-34.793-1.769-5.092,2.011-43.846,13.473-14.733,3.257,8.279-3.154-20.663-5.416-28.543-1.176-4.1-7.065-21.558-4.694-29.2,1.683-5.422,9.8-6.058,16.559,7.223.186-.131-18.054-32.942-14.637-48.814,2.787-12.937,11.143-2.746,11.205-4.925.12-4.2-7.246-50.65,7.287-34.609C311.133,816.634,306.346,840.194,315.456,836.823Z" transform="translate(-276.879 -808.734)"/></svg>