<svg xmlns="http://www.w3.org/2000/svg" width="29.911" height="127.674" viewBox="0 0 29.911 127.674"><defs><style>.path4917a{fill:#5fb3b6;fill-rule:evenodd;}</style></defs><path class="path4917a" d="M252.566,836.325c-11.338-.581-.5,25.089-3.241,23.67-8.447-4.37-4.78,17.032-1.1,23.07,7.1,11.64-12.589-10.225,1.386,19.8,15.282,32.833-6.619-4.312-.72,16.212,1.073,3.735,15.931,17.889,16.94,30.492.564,7.026,5.822-27.473,6.757-28.966,4.909-7.837-3.651-19.957-5.8-5.688-.178,1.184-1.866-2.806,3.747-16.708.988-2.445-.808-19.094-7.2-5.113-1.819,3.974,1.445-11.883,2.707-15.668,1.123-3.365,2.469-25.916-6.619-10.554-.141-.085,2.049-21.817,1.915-25.8-.068-2.015,4.043-24.321-4.067-16.618C254.977,826.631,257.648,837.944,252.566,836.325Z" transform="translate(-244.179 -822.838)"/></svg>