<svg xmlns="http://www.w3.org/2000/svg" width="52.2" height="142.374" viewBox="0 0 52.2 142.374"><defs><style>.a{fill:#5fb3b6;fill-rule:evenodd;}</style></defs><path class="a" d="M338.2,893.252c-10.463-4.676-11.069,27.359-13.06,24.823-6.133-7.8-8.323,21.645-7.393,29.583,1.792,15.306-10.958-20.358-10.442,17.572.563,41.478-4.432-7.089-7.529,17.537-.565,4.482,7.49,25.307,3.119,39.5-2.436,7.911,17.105-28.08,18.62-29.386,7.947-6.854,4.982-23.2-3.074-8.307-.67,1.235-.579-3.746,10.6-17,1.964-2.332,7.834-23.507-4.111-10.44-3.4,3.714,5.852-10.264,8.644-13.969,1.452-1.925,8.1-9.958,8.4-14.456.213-3.192-3.934-5.138-10.191.516-.072-.106,16.2-13.774,17.616-22.819,1.156-7.372-5.316-3.658-4.907-4.821.789-2.235,14.094-25.253,3.181-19.688C344.569,883.471,342.313,896.838,338.2,893.252Z" transform="translate(-299.743 -881.027)"/></svg>