<svg xmlns="http://www.w3.org/2000/svg" width="29.125" height="79.438" viewBox="0 0 29.125 79.438"><defs><style>.a{fill:#5fb3b6;fill-rule:evenodd;}</style></defs><path class="a" d="M321.2,887.848c-5.838-2.609-6.176,15.265-7.287,13.85-3.422-4.354-4.644,12.077-4.125,16.506,1,8.54-6.114-11.359-5.826,9.8.314,23.143-2.473-3.955-4.2,9.785-.315,2.5,4.179,14.12,1.74,22.039-1.359,4.414,9.544-15.667,10.389-16.4,4.434-3.824,2.78-12.946-1.715-4.635-.374.689-.323-2.09,5.913-9.487,1.1-1.3,4.371-13.116-2.294-5.825-1.895,2.072,3.265-5.727,4.823-7.794.81-1.074,4.518-5.556,4.685-8.066.119-1.781-2.195-2.867-5.686.288-.04-.059,9.037-7.685,9.829-12.732.645-4.113-2.966-2.041-2.738-2.69.44-1.247,7.864-14.09,1.775-10.985C324.754,882.391,323.495,889.849,321.2,887.848Z" transform="translate(-299.743 -881.027)"/></svg>