<svg xmlns="http://www.w3.org/2000/svg" width="96.285" height="234.851" viewBox="0 0 96.285 234.851"><defs><style>.path4918a{fill:#5fb3b6;fill-rule:evenodd;}</style></defs><path class="path4918a" d="M15.033,24.173C-5.288,23.132,14.14,69.139,9.224,66.6-5.915,58.764.657,97.122,7.261,107.944,19.994,128.806-15.3,89.618,9.745,143.431c27.389,58.846-11.863-7.728-1.29,29.056,1.923,6.694,28.553,32.062,30.361,54.65,1.011,12.592,10.435-49.239,12.11-51.915,8.8-14.046-6.544-35.768-10.393-10.195-.319,2.122-3.344-5.029,6.716-29.945,1.771-4.382-1.448-34.222-12.908-9.164-3.26,7.122,2.59-21.3,4.852-28.081,2.013-6.031,4.425-46.448-11.863-18.916-.253-.152,3.672-39.1,3.432-46.249-.122-3.612,7.246-43.59-7.289-29.784C19.354,6.8,24.141,27.075,15.033,24.173Z" transform="translate(0 10.229) rotate(-11)"/></svg>