<svg xmlns="http://www.w3.org/2000/svg" width="28.865" height="148.35" viewBox="0 0 28.865 148.35"><defs><style>.path4915a{fill:#5fb3b6;fill-rule:evenodd;}</style></defs><path class="path4915a" d="M298.4,824.406c11.337-.676.5,29.152,3.241,27.5,8.447-5.078-.008,22.911-3.692,29.927-7.1,13.526,17.375-15,3.4,19.885-15.281,38.15,6.62-5.01.721,18.838-1.074,4.34-15.932,20.785-16.941,35.43-.563,8.163-5.821-31.923-6.757-33.657-4.909-9.107,3.652-23.189,5.8-6.61.179,1.377,1.866-3.261-3.747-19.413-.987-2.841,1.122-24.464,7.517-8.22,1.817,4.619-1.76-11.529-3.022-15.926-.656-2.287-3.942-12.028-2.619-16.293.939-3.025,5.466-3.38,9.239,4.03.1-.073-10.073-18.38-8.167-27.236,1.555-7.218,6.217-1.532,6.252-2.748.067-2.341-4.043-28.26,4.066-19.31C295.991,813.142,293.32,826.287,298.4,824.406Z" transform="translate(-276.879 -808.734)"/></svg>