<svg xmlns="http://www.w3.org/2000/svg" width="24.667" height="24.897" viewBox="0 0 24.667 24.897"><defs><style>.a{fill:#4d4e50;}</style></defs><g transform="translate(-838.734 -221.972)"><path class="a" d="M846.51,238.319l.752-.831a3.46,3.46,0,0,0-.244-4.885l-1.27-1.147a3.458,3.458,0,0,0-4.885.244l-.752.833a3.411,3.411,0,0,0-.276.349l-.034.038a4.213,4.213,0,0,0-.964,3.894,19.4,19.4,0,0,0,17.245,15.6,4.868,4.868,0,0,0,2.974-.62,3.46,3.46,0,0,0,.844-.681l.753-.832a3.463,3.463,0,0,0-.245-4.885l-1.27-1.148a3.457,3.457,0,0,0-4.884.245l-.753.831a3.446,3.446,0,0,0-.713,1.216l-.067.2-.2-.078a14.564,14.564,0,0,1-7.7-7.066l-.106-.214.229-.069A3.453,3.453,0,0,0,846.51,238.319Z" transform="translate(0 -5.564)"/><path class="a" d="M872.806,222.779a.806.806,0,0,0,.806.805,10.261,10.261,0,0,1,10.248,10.249.806.806,0,0,0,1.612,0,11.874,11.874,0,0,0-11.861-11.861A.807.807,0,0,0,872.806,222.779Z" transform="translate(-22.073 0)"/><path class="a" d="M872.437,233.98a.806.806,0,0,0,.806.806,6.441,6.441,0,0,1,6.434,6.434.806.806,0,1,0,1.612,0,8.055,8.055,0,0,0-8.046-8.046A.806.806,0,0,0,872.437,233.98Z" transform="translate(-21.834 -7.258)"/></g></svg>