<svg xmlns="http://www.w3.org/2000/svg" width="143.366" height="237.793" viewBox="0 0 143.366 237.793"><defs><style>.rabbita{fill:#804400;}.rabbita,.rabbitb,.rabbitc,.rabbitd,.rabbite,.rabbitf,.rabbitg,.rabbith,.rabbiti,.rabbitj,.rabbitk,.rabbitl,.rabbitm{fill-rule:evenodd;}.rabbitb{fill:#724106;}.rabbitc{fill:#e28f41;}.rabbitd{fill:#985200;}.rabbite{fill:#161615;}.rabbitf{fill:#fff;}.rabbitg{fill:#e44e5c;}.rabbith{fill:#452700;}.rabbiti{fill:#f2ae4f;}.rabbitj{fill:#6b3c00;}.rabbitk{fill:#ed6a00;}.rabbitl{fill:#f48300;}.rabbitm{fill:#e1301c;}</style></defs><g transform="translate(-1181.606 -590.571)"><path class="rabbita" d="M1262.805,811.734c-.1,4.513,3.643,12.368,9.572,15.032,3.985,1.791,7.735.359,7.936-.712,1.541-8.224-5.816-4.282-5.083-13.156,0-.054,2.392-7.522,2.886-8.824.706-1.859,5.373-11.891,3.728-12.467-1.748-.612-10.555-7.49-11.8-5.263C1268.53,789.05,1262.818,811.111,1262.805,811.734Z"/><path class="rabbita" d="M1236.681,770.03c-2.623-1.615-8.617,2.709-5.4,8.742,3.688,6.905,14.536,5.391,10.995-3.824C1241.307,772.413,1238.837,771.357,1236.681,770.03Z"/><path class="rabbita" d="M1245.994,812.481c-.1,4.513,3.643,12.369,9.571,15.033,3.986,1.79,7.735.359,7.936-.713,1.541-8.224-5.815-4.282-5.083-13.156.005-.053,2.393-7.522,2.887-8.824.706-1.858,5.372-11.891,3.728-12.466-1.749-.612-10.555-7.491-11.8-5.264C1251.719,789.8,1246.007,811.858,1245.994,812.481Z"/><path class="rabbita" d="M1195.324,590.571c21.986,15.92,50.558,5.077,69.883,36.329.466.756-7.09,6.5-7.351,6.422-.2-2.443-30.3-13.061-47.736-20.4C1189.549,604.266,1191.513,591.882,1195.324,590.571Z"/><path class="rabbitb" d="M1183.465,659.533c2.316-2.046,7.432-7.018,26.7-17.215,21.379-11.315,32.328-14.566,43.768-5.074.682.566-1.351,9.517-1.6,9.619-7.941.639-29.07,7.732-47.674,13.873C1184.6,667.357,1177.955,664.4,1183.465,659.533Z"/><path class="rabbitc" d="M1265.615,689.5a10.815,10.815,0,0,1-3.836,10.679c-.042.032,8.811,1.122,12.948,2.58,6.65,2.342,4.118-1.352,4-8.872C1277.557,693.609,1265.2,687.453,1265.615,689.5Z"/><path class="rabbitd" d="M1321.434,658.313c-1.568-1.358-4.212-1.309-6.6-5-4.517-7-9.691-19.46-16.022-24.356-8.173-6.319-24.689-9.1-36.015-4.375-6.973,2.9-14.762,10.794-18.363,20.389-6.343,16.906-2.7,39.125,19.776,48.823,14.252,6.148,42.056.261,51.241-15.737.968-1.686,1.072-3.937-.1-4.368-1.576-.575-7.724.149-8.8-1.08,2.712.324,9.27-.831,12.52-3.154a20.273,20.273,0,0,0,4.163-4.562C1325.662,661.923,1323.039,658.693,1321.434,658.313Z"/><path class="rabbite" d="M1324.077,663.323c.494-.215,3.289-8.528-4.456-6.061C1319.672,658.429,1320.364,661.184,1324.077,663.323Z"/><path class="rabbite" d="M1296.879,664.88c5.914-14.156-18.066-17.552-15.211-.941.515,3,4.925,5.458,8.331,5.543A7.257,7.257,0,0,0,1296.879,664.88Z"/><path class="rabbite" d="M1290.926,648.125c1.062,6.984-4.1,5.28-6.408,9.209-.136.233-3.057,5.135-3.056,4.89,0-6.351,3.807-8.425,6.585-10.454A12.976,12.976,0,0,0,1290.926,648.125Z"/><path class="rabbitf" d="M1296.532,662.327c2.874-5.713-7.3-7.182-6.5-.668a3.711,3.711,0,0,0,4.028,2.561A2.909,2.909,0,0,0,1296.532,662.327Z"/><path class="rabbitg" d="M1298.71,676.352c.079-7.013-16.215-3.112-10.016,2.964,1.119,1.1,4.6,1.12,6.807.406C1297.754,678.994,1298.733,677.5,1298.71,676.352Z"/><path class="rabbita" d="M1319.6,658.436c-3.635.316-5.039-.2-6.052-.741-9.325-5.013-16.542-19.1-29.091-24.6-12.867-5.631-29.689-3.483-30.385-2.58-.139.18,10.974-14.028,35.623-6.151a24.173,24.173,0,0,1,11.676,7.008c5.619,6.186,10.332,16.413,11.028,17.818,2.609,5.269,4.622,6.889,6.131,7.539a8.337,8.337,0,0,1,1.091.528C1319.722,657.413,1319.334,658.047,1319.6,658.436Z"/><path class="rabbith" d="M1272.126,652.529c.182-2.9.293-7.672,5.727-7.444,1.178,1.005-.863,2.243-2.133,3.794C1274.082,650.88,1272.108,652.808,1272.126,652.529Z"/><path class="rabbiti" d="M1294.454,674.009a.625.625,0,0,0,.53.1c.151-.07.13-.31.141-.41C1295.174,673.119,1294.094,673.539,1294.454,674.009Zm5.181-5.2a.6.6,0,0,0,.519.1c.15-.07.14-.31.14-.41C1300.344,667.919,1299.264,668.339,1299.635,668.809Zm.569,4.41a.568.568,0,0,0,.52.11c.151-.08.14-.32.14-.41C1300.914,672.329,1299.834,672.759,1300.2,673.219Zm-15.18.01a.567.567,0,0,0,.52.11c.151-.08.14-.32.14-.41C1285.734,672.339,1284.664,672.769,1285.024,673.229Zm1.49,2.85a.611.611,0,0,0,.52.1c.15-.08.14-.31.15-.41C1287.234,675.189,1286.154,675.609,1286.514,676.079Zm10.82-.51a.551.551,0,0,0,.52.1c.151-.07.14-.31.151-.4C1298.054,674.679,1296.974,675.109,1297.334,675.569Zm-9.389-3.25a.6.6,0,0,0,.519.1c.15-.08.14-.32.15-.41C1288.654,671.429,1287.584,671.849,1287.945,672.319Zm10.449-1.07a.565.565,0,0,0,.53.1c.15-.07.141-.31.141-.41C1299.114,670.359,1298.034,670.779,1298.394,671.249Zm-7.06,5.94a.546.546,0,0,0,.52.1c.151-.07.14-.31.151-.4C1292.044,676.3,1290.974,676.729,1291.334,677.189Zm5.43-3.69a.6.6,0,0,0,.53.11c.03-.02.05-.04.05-.06a.649.649,0,0,0,.09-.35c.04-.45-.58-.31-.71-.01A.263.263,0,0,0,1296.764,673.5Zm-2.3,2.91a.565.565,0,0,0,.53.1c.15-.07.131-.31.141-.41C1295.184,675.519,1294.1,675.939,1294.464,676.409Zm-1.91-2.61a.54.54,0,0,0,.52.1c.15-.07.14-.31.14-.4C1293.264,672.909,1292.184,673.339,1292.554,673.8Zm-3.4,2.29a.566.566,0,0,0,.52.1c.15-.07.141-.31.141-.41C1289.864,675.2,1288.784,675.619,1289.154,676.089Zm-1.529-1.71a.593.593,0,0,0,.519.1c.15-.08.14-.32.15-.41C1288.334,673.479,1287.264,673.909,1287.625,674.379Zm2.769-1.12a.323.323,0,0,0,.051.08.566.566,0,0,0,.519.11c.15-.08.14-.32.14-.41v-.02C1291.125,672.489,1290.2,672.839,1290.394,673.259Zm1.22,2.18a.626.626,0,0,0,.53.1c.15-.07.13-.31.14-.41C1292.334,674.549,1291.255,674.969,1291.614,675.439Zm1.9-2.93a.375.375,0,0,0,.21.1h.02c.011,0,.011.01.02,0h.01a.243.243,0,0,0,.22,0h.04c.15-.08.14-.31.15-.41C1294.234,671.619,1293.154,672.039,1293.514,672.509Zm2.08-1.37a.611.611,0,0,0,.52.1c.15-.07.141-.31.15-.41C1296.315,670.249,1295.234,670.669,1295.594,671.139Z"/><path class="rabbitj" d="M1305.177,760.458c.123.033,6.281-4.3,10.154-3.54,1.866.367,5.75-.83,4.887,3.828-.023.122-3.839,5.583-5.728,5.389a33.68,33.68,0,0,1-4.952-.008c-1.06-.14-5.632-.3-5.505-1.284C1304.211,763.466,1304.333,760.233,1305.177,760.458Z"/><path class="rabbitk" d="M1287.035,781.959c-1.4,2.921-4.025,14.538-6.1,18.705-.121,0-15.89.513-15.7-.58.675-3.935,1.049-1.567.907-7.006-.053-2.016.751-6.879,2.864-7.251,4.543-.8,11.058-.99,14.7-2.752C1284.387,782.745,1287.185,781.644,1287.035,781.959Z"/><path class="rabbitl" d="M1292.675,726.945c-.43-.942-11.323-26.266-12.192-26.193-.6.05-16.116-1.12-17.078-1.25-2.293-.714-19.787,25.783-24.629,48.93-3.413,16.315,4.577,35.673,8.385,44.149a21.339,21.339,0,0,1,1.272,4.756c1.619-.381,11.522,2.68,16.07,2.787,2.239-5.385,5.728-1.1,12.222-3.475C1293.195,790.623,1316.185,778.374,1292.675,726.945Z"/><path class="rabbitm" d="M1256.644,713.709c-16.733,8.412-.139,43.8,46.826,53.678,2,.421,4.274-9.466,2.358-11.345-8.209-8.052-36.714-24.544-37.013-38.793C1268.709,712.218,1258.524,712.763,1256.644,713.709Z"/><path class="rabbitm" d="M1248.314,796.8c.307-.308,16.453,3.041,16.45,3.053s-.911,1.359-1.149,1.359c-.33,0-3.346-.517-3.995-.639-2.489-.472-7.557-1.482-9.957-1.733-2.444-.254-1.319-.422-1.378-1.939C1248.282,796.84,1248.266,796.851,1248.314,796.8Z"/><path class="rabbitm" d="M1265.18,799.657c.258-.348,15.94.6,15.939.617s-.213,1.539-.448,1.573c-.326.047-3.093-.046-3.753-.075-2.531-.109-7.694-.384-10.106-.288-2.455.1-1.366-.229-1.647-1.722C1265.153,799.7,1265.139,799.713,1265.18,799.657Z"/></g></svg>