<svg xmlns="http://www.w3.org/2000/svg" width="304.472" height="367" viewBox="0 0 304.472 367"><defs><style>.searchingRabbita{fill:#804400;}.searchingRabbita,.searchingRabbitb,.searchingRabbitc,.searchingRabbitd,.searchingRabbite,.searchingRabbitf,.searchingRabbitg,.searchingRabbith,.searchingRabbiti,.searchingRabbitj,.searchingRabbitk,.searchingRabbitl,.searchingRabbitm,.searchingRabbitn,.searchingRabbito,.searchingRabbitp{fill-rule:evenodd;}.searchingRabbitb{fill:#724106;}.searchingRabbitc{fill:#e28f41;}.searchingRabbitd{fill:#985200;}.searchingRabbite{fill:#161615;}.searchingRabbitf{fill:#fff;}.searchingRabbitg{fill:#e44e5c;}.searchingRabbith{fill:#452700;}.searchingRabbiti{fill:#f2ae4f;}.searchingRabbitj{fill:#203637;}.searchingRabbitk{fill:#192e2e;}.searchingRabbitl{fill:#6b3c00;}.searchingRabbitm{fill:#305759;}.searchingRabbitn{fill:#ed6a00;}.searchingRabbito{fill:#f48300;}.searchingRabbitp{fill:#e1301c;}</style></defs><g transform="translate(-392.773 -128.348)"><path class="searchingRabbita" d="M499.232,339.666c.169,7.951-6.42,21.8-16.868,26.49-7.023,3.156-13.631.633-13.985-1.255-2.716-14.493,10.249-7.548,8.958-23.184-.007-.1-4.215-13.256-5.086-15.55-1.244-3.276-9.469-20.955-6.57-21.97,3.08-1.079,18.6-13.2,20.795-9.275C489.143,299.689,499.209,338.568,499.232,339.666Z" transform="translate(55.105 126.378)"/><path class="searchingRabbita" d="M515.38,278.531c4.622-2.846,15.185,4.774,9.507,15.4-6.5,12.17-25.616,9.5-19.376-6.737C507.227,282.73,511.58,280.869,515.38,278.531Z" transform="translate(84.994 114.02)"/><path class="searchingRabbita" d="M516.042,340.413c.169,7.953-6.42,21.8-16.867,26.49-7.024,3.156-13.631.633-13.985-1.255-2.716-14.493,10.247-7.546,8.958-23.184-.009-.093-4.217-13.256-5.088-15.55-1.244-3.276-9.467-20.955-6.57-21.97,3.082-1.077,18.6-13.2,20.8-9.275C505.953,300.438,516.019,339.315,516.042,340.413Z" transform="translate(67.919 126.947)"/><path class="searchingRabbita" d="M623.183,145.014c-47.539,5.329-81.945-36.1-138.711-4.948-1.371.754,5.229,16.126,5.7,16.229,2.434-3.569,57.811,6.275,90.916,10.156C620.152,171.03,627.891,150.33,623.183,145.014Z" transform="translate(69.756 0)"/><path class="searchingRabbitb" d="M617.508,186.684c-4.081-3.6-13.1-12.366-47.05-30.335-37.677-19.94-56.97-25.669-77.13-8.942-1.2,1,2.381,16.771,2.823,16.951,13.994,1.126,51.229,13.626,84.014,24.448C615.511,200.474,627.218,195.263,617.508,186.684Z" transform="translate(76.461 7.041)"/><path class="searchingRabbitc" d="M492.073,198.061c-1.417,7,1.144,14.588,6.76,18.819.074.056-15.527,1.977-22.818,4.545-11.719,4.129-7.257-2.381-7.054-15.633C471.028,205.3,492.8,194.448,492.073,198.061Z" transform="translate(57.312 52.579)"/><path class="searchingRabbitd" d="M427.948,194.076c2.763-2.393,7.423-2.309,11.624-8.818,7.96-12.334,17.078-34.3,28.235-42.921,14.4-11.137,43.508-16.029,63.468-7.71,12.288,5.119,26.014,19.02,32.36,35.931,11.178,29.793,4.762,68.948-34.85,86.039-25.116,10.834-74.113.46-90.3-27.733-1.706-2.973-1.889-6.938.183-7.7,2.777-1.013,11.2,2.705,13.094.541-4.779.569-13.922-3.909-19.649-8-3.844-2.747-6.688-7.246-7.336-8.039C420.5,200.438,425.119,194.746,427.948,194.076Z" transform="translate(23.07 1.6)"/><path class="searchingRabbite" d="M423.863,176.532c-.871-.379-5.8-15.029,7.853-10.681C431.626,167.906,430.406,172.763,423.863,176.532Z" transform="translate(22.496 27.973)"/><path class="searchingRabbite" d="M451.1,182.318c-10.422-24.946,31.837-30.931,26.806-1.66-.908,5.292-8.679,9.62-14.681,9.77A12.789,12.789,0,0,1,451.1,182.318Z" transform="translate(43.192 24.932)"/><path class="searchingRabbite" d="M456.44,156.365c-1.872,12.309,7.232,9.3,11.292,16.23.24.411,5.387,9.047,5.385,8.616,0-11.192-6.709-14.847-11.6-18.421C458.909,160.889,457.131,157.387,456.44,156.365Z" transform="translate(48.34 21.356)"/><path class="searchingRabbitf" d="M451.117,174.344c-5.065-10.068,12.857-12.656,11.453-1.177-.256,2.072-3.431,5.035-7.1,4.513A5.127,5.127,0,0,1,451.117,174.344Z" transform="translate(43.784 28.406)"/><path class="searchingRabbitg" d="M448.548,187.449c-.139-12.36,28.575-5.486,17.651,5.223-1.972,1.937-8.1,1.974-12,.715C450.233,192.105,448.508,189.479,448.548,187.449Z" transform="translate(42.514 40.017)"/><path class="searchingRabbita" d="M427.687,194.46c6.406.557,8.88-.347,10.665-1.306,16.433-8.834,29.151-33.668,51.266-43.344,22.675-9.921,52.32-6.136,53.546-4.545.245.317-19.339-24.721-62.777-10.841a42.627,42.627,0,0,0-20.576,12.352c-9.9,10.9-18.208,28.924-19.434,31.4-4.6,9.285-8.145,12.14-10.8,13.286a14.723,14.723,0,0,0-1.923.93C427.472,192.657,428.156,193.774,427.687,194.46Z" transform="translate(26.562 1.434)"/><path class="searchingRabbith" d="M479.767,166.451c-.321-5.119-.516-13.522-10.092-13.12-2.076,1.773,1.521,3.954,3.759,6.688C476.32,163.545,479.8,166.941,479.767,166.451Z" transform="translate(58.144 19.033)"/><path class="searchingRabbiti" d="M456.511,186.119c.018.176-.018.6.247.723a1.1,1.1,0,0,0,.934-.176C458.326,185.837,456.422,185.1,456.511,186.119Zm-9.111-9.164c0,.176-.018.6.247.723a1.05,1.05,0,0,0,.916-.176C449.215,176.673,447.312,175.933,447.4,176.955Zm-1,7.789c0,.159-.018.582.247.723a1,1,0,0,0,.916-.194C448.21,184.462,446.307,183.7,446.4,184.744Zm26.751.018c0,.159-.018.582.247.723a1,1,0,0,0,.916-.194C474.944,184.48,473.058,183.722,473.146,184.762Zm-2.643,5c.018.176,0,.582.264.723a1.076,1.076,0,0,0,.916-.176C472.318,189.485,470.415,188.745,470.5,189.767Zm-19.068-.881c.018.159,0,.582.264.7a.972.972,0,0,0,.916-.176C453.25,188.6,451.347,187.846,451.435,188.886Zm16.548-5.745c.018.159,0,.582.264.723a1.05,1.05,0,0,0,.916-.176C469.8,182.859,467.912,182.119,467.983,183.141Zm-18.416-1.886c0,.176-.018.6.247.723a1,1,0,0,0,.934-.176C451.382,180.973,449.479,180.233,449.567,181.255Zm12.442,10.485c.018.159,0,.582.264.7a.962.962,0,0,0,.916-.176C463.824,191.458,461.938,190.7,462.009,191.74Zm-8.318-6.52c-.229-.529-1.322-.775-1.251.018a1.143,1.143,0,0,0,.159.617c0,.035.035.07.088.106a1.049,1.049,0,0,0,.934-.194A.463.463,0,0,0,453.691,185.22Zm2.8,5.128c.018.176-.018.6.247.723a1,1,0,0,0,.934-.176C458.308,190.066,456.4,189.326,456.493,190.348Zm3.384-4.582c0,.159-.018.582.247.7a.951.951,0,0,0,.916-.176C461.692,185.484,459.788,184.727,459.877,185.766Zm5.992,4.018c0,.176-.018.6.247.723a1,1,0,0,0,.916-.176C467.683,189.5,465.78,188.762,465.868,189.784Zm2.679-3.013c.018.159,0,.582.264.723a1.05,1.05,0,0,0,.916-.176C470.362,186.489,468.476,185.731,468.547,186.771Zm-4.952-1.85v.035c0,.159-.018.582.247.723a1,1,0,0,0,.916-.194.618.618,0,0,0,.088-.141C465.181,184.6,463.56,183.987,463.595,184.921Zm-2.079,3.718c.018.176-.018.6.247.723a1.1,1.1,0,0,0,.934-.176C463.331,188.357,461.427,187.617,461.515,188.639Zm-3.348-5.163c.018.176,0,.582.264.723h.07a.429.429,0,0,0,.388,0h.018c.018.018.018,0,.035,0h.035a.656.656,0,0,0,.37-.176C459.982,183.193,458.079,182.453,458.167,183.475Zm-3.666-2.414c.018.176,0,.6.264.723a1.076,1.076,0,0,0,.916-.176C456.317,180.779,454.414,180.039,454.5,181.061Z" transform="translate(40.872 36.672)"/><path class="searchingRabbitj" d="M489.692,181.426c-6.769-2.508-91.54-36.983-92.131-34.963-1.42,4.851-6.291,13.268-4.328,16.629,22.929,8.457,69.38,17.235,93.576,25.072C488.994,188.872,490.562,181.749,489.692,181.426Z" transform="translate(0 13.743)"/><path class="searchingRabbitk" d="M394.958,150.247c-1.563,3.873-2.929,7.835-1.723,9.9,22.927,8.457,69.378,17.235,93.574,25.072,1.239.4,2.541-1.662,2.79-3.676C465.686,174.423,409.422,156.475,394.958,150.247Z" transform="translate(0 16.693)"/><path class="searchingRabbitl" d="M444.25,187.641c-.058-.217,7.581-11.067,6.238-17.892-.647-3.29,1.463-10.135-6.746-8.612-.215.039-9.839,6.764-9.5,10.092.162,1.572-.557,4.407.014,8.728.247,1.868.537,9.923,2.263,9.7C438.949,189.343,444.647,189.13,444.25,187.641Z" transform="translate(31.453 24.827)"/><path class="searchingRabbitm" d="M400.069,146.525c-.379,3.283-5.331,13.624-6.2,17.859-.2.955,3.283,1.353,3.8,1.417.717.088.16.6.419-1.057.733-4.689,4.3-12.249,5.768-16.951-2.21-.721-2.164-.752-3.417-1.182C400.187,146.522,400.081,146.43,400.069,146.525Z" transform="translate(0.83 13.825)"/><path class="searchingRabbitn" d="M460.227,290.243c2.462,5.148,7.093,25.62,10.753,32.963.213,0,28,.9,27.674-1.024-1.19-6.933-1.849-2.76-1.6-12.345.093-3.553-1.323-12.124-5.047-12.778-8.006-1.408-19.487-1.746-25.914-4.852C464.894,291.626,459.963,289.688,460.227,290.243Z" transform="translate(51.41 123.33)"/><path class="searchingRabbito" d="M462.235,256.114c.758-1.66,19.954-46.286,21.485-46.157,1.049.088,28.4-1.974,30.1-2.2,4.041-1.258,34.87,45.434,43.4,86.227,6.015,28.751-8.066,62.863-14.776,77.8-2.074,4.621-1.984,8.441-2.241,8.381-2.853-.671-20.3,4.723-28.319,4.91-3.946-9.49-10.094-1.937-21.538-6.122C461.319,368.332,420.8,346.746,462.235,256.114Z" transform="translate(39.463 60.508)"/><path class="searchingRabbitp" d="M527.507,262.658c-14.824,29.486-77.192.243-94.594-82.519-.742-3.521,16.68-7.534,19.993-4.155,14.19,14.465,43.253,64.7,68.361,65.226C530.135,241.395,529.174,259.345,527.507,262.658Z" transform="translate(30.579 35.338)"/><path class="searchingRabbitp" d="M511.483,305.059c-.541-.543-28.994,5.359-28.989,5.38s1.605,2.395,2.025,2.395c.582,0,5.9-.911,7.04-1.128,4.386-.83,13.317-2.612,17.547-3.052,4.307-.448,2.324-.744,2.428-3.417C511.539,305.123,511.568,305.144,511.483,305.059Z" transform="translate(68.39 134.672)"/><path class="searchingRabbitp" d="M494.228,307.956c-.455-.613-28.09,1.064-28.089,1.087s.375,2.712.789,2.772c.574.083,5.451-.081,6.614-.132,4.46-.192,13.559-.677,17.809-.508,4.326.171,2.407-.405,2.9-3.035C494.275,308.029,494.3,308.055,494.228,307.956Z" transform="translate(55.924 136.804)"/></g></svg>