<svg xmlns="http://www.w3.org/2000/svg" width="243.856" height="184.05" viewBox="0 0 243.856 184.05"><defs><style>.shella{fill:#fbfbfb;}.shella,.shellb{stroke:#e4e4e4;fill-rule:evenodd;}.shellb{fill:#45b2b7;}</style></defs><g transform="translate(-453.216 -951.926)"><path class="shella" d="M533.193,1097.1c-7.16,9.194-37.521,47.007-55.249,34.449-13.174-9.345,13.055-32.935,7.9-30.458-23.785,11.4-47.407-12.839-10.394-21.892,29.441-7.192-41.556-2.185-16.095-32.069,10.373-12.168,44.011,5.592,65.189,18.668,0,.185,7.127-16.051,23.373-37.8,38.008-50.856,91.1-100.806,123.661-61.165,5.311,6.468-5.906,19.9-2.347,31.216,2.791,8.89,20.756,14.677,22.216,26.932,1.46,12.232-14.656,23.07-14.223,33.064,1.071,24.51,23.125,33.789,18.809,46.7C676.441,1163.4,600.145,1125.162,533.193,1097.1Z" transform="translate(0 0)"/><path class="shellb" d="M463.724,1014.245c24.077-1.816,82.386-47.915,103.045-57.228,7.539-3.406-64.085,23.006-90.823,45.385C474.237,1003.829,458.6,1014.635,463.724,1014.245Z" transform="translate(88.008 41.25)"/><path class="shellb" d="M463.47,976.325c22.854,7.723,94.792-11.887,117.5-12.395,8.285-.173-68.065-3.84-101.542,6.284C477.271,970.863,458.6,974.692,463.47,976.325Z" transform="translate(87.689 104.317)"/></g></svg>