<svg xmlns="http://www.w3.org/2000/svg" width="244.334" height="120.012" viewBox="0 0 244.334 120.012"><defs><style>.smallWavesa{fill:#22a6ab;fill-rule:evenodd;}</style></defs><g transform="translate(-512.711 -393.747)"><path class="smallWavesa" d="M514.869,420.485c45.7-46.587,41.989,3.1,78.428.1,15.413-1.266,30.125-42.546,61.333-7.015,2.483,2.824,14.238,9.514,12.78,13.021-3.475.883-3.633,4.44-6.132,4.624-12.788.009-14.921-19.953-31.341-16.646-11.855,2.391-17.187,23.735-40.955,22.352-42.272-2.483-30.942-44.879-67.015-6.365C513.5,439.6,510.13,425.316,514.869,420.485Z" transform="translate(0 39.8)"/><path class="smallWavesa" d="M524.729,415.055c45.7-46.579,41.989,3.108,78.428.1,15.42-1.266,30.125-42.546,61.333-7.014,2.483,2.824,14.238,9.522,12.771,13.03-3.466.875-3.624,4.432-6.123,4.624-12.788.009-14.913-19.961-31.341-16.654-11.855,2.391-17.187,23.743-40.955,22.352-42.271-2.475-30.941-44.879-67.023-6.365C523.363,434.167,519.989,419.887,524.729,415.055Z" transform="translate(72.276 0)"/><path class="smallWavesa" d="M525.617,424.922c45.7-46.587,41.988,3.107,78.428.108,15.412-1.274,30.125-42.555,61.333-7.023,2.482,2.824,14.237,9.522,12.771,13.03-3.466.875-3.624,4.432-6.123,4.624-12.788.009-14.921-19.961-31.341-16.654-11.855,2.391-17.2,23.743-40.955,22.352-42.28-2.474-30.95-44.879-67.023-6.365C524.242,444.034,520.876,429.754,525.617,424.922Z" transform="translate(78.77 72.335)"/></g></svg>