<svg xmlns="http://www.w3.org/2000/svg" width="220" height="151.728" viewBox="0 0 220 151.728"><defs><style>.stara{fill:#e778a7;}.stara,.starb,.starc{fill-rule:evenodd;}.starb{fill:#f1a0a7;}.starc{fill:#e988b4;}</style></defs><g transform="translate(-534.08 -905.319)"><path class="stara" d="M621.463,905.319c-3.662,1.93-15.556,42.812-36.089,72.041-22.586,32.158-55.657,45.222-50.817,55.869,11.585,25.479,55.227-1.874,69.451-27.034,4.815-8.511,5.115,53.149,16.378,50.785,32.171-6.754,2.366-73.861,53.761-48.748,1.438.7,26.406,14.457,35.542,12,8.416-2.259,13.222-27.164-7.273-41.194-36.916-25.271.253-5.371,33.988-15.218,27.574-8.05,16.239-26.159,9.93-25.855C711.151,939.654,704.308,936.214,621.463,905.319Z" transform="translate(0)"/><path class="starb" d="M564.933,911.876c1.027,12.975,12.457,2.407,1.3-.082-.5-.114-1.267.493-1.3.082Zm69.271,81.2c1.03,12.978,12.46,2.407,1.3-.082-.505-.114-1.273.493-1.3.082Zm-11.415-10.988c.032.407.8-.2,1.3-.085,11.159,2.489-.272,13.06-1.3.085Zm-8.975-9.942c1.03,12.975,12.46,2.407,1.3-.082-.5-.114-1.27.493-1.3.082Zm-8.5-9c.035.411.8-.2,1.3-.082,11.159,2.49-.275,13.061-1.3.082Zm-9.083-10.34c1.03,12.978,12.46,2.407,1.3-.082-.5-.114-1.27.493-1.3.082Zm-8.521-9.851c.032.411.8-.2,1.3-.082,11.155,2.49-.275,13.057-1.3.082Zm-8.593-8.552c1.027,12.975,12.46,2.4,1.3-.085-.5-.11-1.27.493-1.3.085Zm-6.625-10.789c.032.411.8-.2,1.3-.082C584.947,926.017,573.517,936.588,572.487,923.609Z" transform="translate(66.62 13.95)"/><path class="starb" d="M568.995,912.335c7.153,10.921-8.416,9.405-1.087.717.332-.392,1.314-.373,1.087-.717Zm-5.134,106.149c7.153,10.925-8.416,9.408-1.084.72.332-.395,1.311-.376,1.084-.72Zm2.316-15.594c7.153,10.925-8.416,9.408-1.087.72.332-.392,1.311-.376,1.087-.72ZM567.2,989.6c7.153,10.925-8.416,9.408-1.083.72.329-.392,1.311-.373,1.083-.72Zm1.223-12.264c7.153,10.925-8.416,9.408-1.087.72.332-.395,1.311-.373,1.087-.72Zm.863-13.673c7.153,10.925-8.416,9.405-1.087.72.332-.4,1.311-.376,1.087-.72ZM570,950.711c7.153,10.922-8.416,9.405-1.087.717.332-.392,1.314-.373,1.087-.717Zm1.57-11.961c7.152,10.922-8.416,9.405-1.087.717.332-.392,1.314-.373,1.087-.717ZM570.2,926.2c7.153,10.922-8.416,9.405-1.087.717C569.446,926.523,570.426,926.542,570.2,926.2Z" transform="translate(57.611 15.15)"/><path class="starc" d="M565.686,920.452c4.878,7.449-5.744,6.416-.742.487.228-.266.9-.253.742-.487Zm-3.5,72.411c4.881,7.449-5.74,6.417-.743.49.228-.268.9-.256.743-.49Zm1.58-10.637c4.881,7.449-5.74,6.417-.743.49.228-.269.9-.256.743-.49Zm.695-9.07c4.881,7.453-5.74,6.42-.739.49.224-.265.894-.253.739-.49Zm.834-8.366c4.878,7.453-5.74,6.417-.742.49.228-.265.9-.253.742-.49Zm.588-9.329c4.881,7.453-5.74,6.42-.739.493.228-.269.894-.256.739-.493Zm.49-8.833c4.878,7.453-5.74,6.42-.739.49.224-.265.894-.253.739-.49Zm1.071-8.157c4.878,7.45-5.74,6.417-.743.49.228-.269.9-.256.743-.49Zm-.932-8.562c4.878,7.449-5.74,6.417-.739.49C565.992,930.129,566.662,930.141,566.507,929.908Z" transform="translate(56.112 32.677)"/><path class="starc" d="M568.809,922.938c4.878,7.453-5.744,6.417-.742.49.228-.269.894-.253.742-.49Zm-3.5,72.411c4.878,7.453-5.744,6.42-.743.493.228-.269.894-.256.743-.493Zm1.576-10.634c4.881,7.449-5.74,6.417-.739.487.224-.265.894-.253.739-.487Zm.7-9.07c4.878,7.453-5.744,6.417-.742.49.228-.269.894-.253.742-.49Zm.831-8.366c4.881,7.449-5.74,6.417-.739.49.224-.268.894-.256.739-.49Zm.591-9.329c4.878,7.453-5.744,6.417-.742.49.227-.265.9-.256.742-.49Zm.486-8.833c4.878,7.453-5.744,6.417-.742.49.227-.269.9-.253.742-.49Zm1.071-8.16c4.881,7.453-5.74,6.417-.739.493.224-.269.894-.256.739-.493Zm-.932-8.562c4.881,7.453-5.74,6.416-.739.493C569.115,932.618,569.785,932.631,569.63,932.394Z" transform="translate(62.858 38.044)"/><path class="starc" d="M570.241,916.628c8.767,1.9.486,8.555-.177.863-.032-.347.455-.8.177-.863Zm49.01,53.879c8.767,1.9.486,8.558-.177.865-.032-.347.455-.806.177-.865Zm-6.442-8.656c8.764,1.9.483,8.559-.18.866-.029-.348.455-.8.18-.866Zm-5.959-6.925c.278.06-.205.515-.174.862.66,7.7,8.944,1.033.174-.862ZM601.5,948.4c8.767,1.893.483,8.559-.177.863-.032-.347.452-.8.177-.863Zm-6.218-7.039c.278.063-.205.518-.177.866.664,7.693,8.944,1.03.177-.866Zm-5.936-6.615c8.767,1.9.486,8.559-.177.866-.029-.348.455-.8.177-.866ZM584.3,928.2c.275.06-.208.518-.18.866.663,7.7,8.944,1.03.18-.866Zm-6.751-5.431c.278.06-.208.515-.18.865C578.035,931.328,586.319,924.668,577.552,922.773Z" transform="translate(77.696 24.42)"/><path class="starc" d="M567.358,919.83c8.767,1.892.487,8.555-.177.863-.028-.348.455-.806.177-.863Zm49.01,53.878c8.767,1.9.487,8.559-.177.863-.032-.348.455-.8.177-.863Zm-6.442-8.656c8.767,1.9.483,8.559-.177.863-.032-.347.452-.8.177-.863Zm-5.955-6.928c.278.06-.209.518-.177.863.664,7.7,8.941,1.033.177-.863Zm-5.358-6.524c8.767,1.9.486,8.558-.177.863-.032-.348.455-.8.177-.863Zm-6.214-7.036c.275.06-.208.515-.18.863.663,7.693,8.944,1.033.18-.863Zm-5.936-6.615c8.764,1.9.483,8.559-.177.863-.032-.347.455-.8.177-.863Zm-5.042-6.543c.278.06-.209.518-.177.863.66,7.7,8.944,1.033.177-.863Zm-6.751-5.434c.278.06-.208.518-.177.865C575.155,934.53,583.435,927.867,574.668,925.972Z" transform="translate(71.471 31.334)"/><path class="starc" d="M588.946,920.513c-.013,8.881-8.347,2.281-.888.013.335-.1.888.269.888-.013Zm-42.83,58.81c-.016,8.881-8.35,2.281-.891.012.338-.1.891.269.891-.012Zm7.184-8.062c0,.281-.553-.092-.891.01-7.456,2.271.875,8.868.891-.01Zm5.583-7.229c-.016,8.881-8.35,2.284-.891.013.338-.1.888.268.891-.013Zm5.307-6.562c0,.281-.556-.092-.894.01-7.456,2.271.878,8.868.894-.01Zm5.633-7.5c-.016,8.881-8.35,2.281-.891.01.335-.1.891.272.891-.01Zm5.276-7.14c0,.281-.556-.092-.891.01-7.459,2.271.875,8.868.891-.01Zm5.393-6.262c-.016,8.878-8.35,2.281-.891.01.338-.1.891.272.891-.01Zm3.936-7.68c0,.281-.553-.092-.891.01C576.078,931.166,584.412,937.763,584.428,928.885Z" transform="translate(17.365 32.795)"/><path class="starc" d="M572.317,911.774c5.469,7.039,8.031-3.213.714-.528-.328.12-.54.749-.714.528Zm70.133,20.933c5.469,7.039,8.034-3.213.717-.528-.332.12-.543.749-.717.528Zm-10.656-2.082c5.465,7.042,8.028-3.213.714-.528-.332.12-.54.749-.714.528Zm-8.871-2.382c5.469,7.042,8.031-3.21.717-.528-.332.123-.543.749-.717.528Zm-8.246-2.019c5.466,7.042,8.031-3.21.714-.528-.329.123-.54.752-.714.528Zm-9.08-2.565c5.465,7.039,8.031-3.213.714-.531-.332.123-.543.752-.714.531Zm-8.574-2.5c5.465,7.042,8.028-3.213.714-.528-.332.12-.543.749-.714.528Zm-8.129-1.728c5.466,7.042,8.028-3.21.714-.528-.332.123-.543.749-.714.528Zm-7.845-3.731c.174.224.385-.4.714-.528C589.08,912.491,586.515,922.743,581.049,915.7Z" transform="translate(82.564 11.806)"/></g></svg>