<svg id="Warstwa_1" data-name="Warstwa 1" xmlns="http://www.w3.org/2000/svg" viewBox="0 0 233.05 295.42"><defs><style>.cls-1{fill:#9dd3cd;}.cls-1,.cls-2,.cls-3,.cls-4,.cls-5{fill-rule:evenodd;}.cls-2{fill:#122048;}.cls-3{fill:#fff;}.cls-4{fill:#ef8700;}.cls-5{fill:#e84422;}</style></defs><title>zółw</title><path class="cls-1" d="M574.08,204.39c7.35,20.85,23.54,16.25,12.39,29.33-6,7-.15,9.87-19.37-7-11.8-10.33-51.23-1-41.55-37.82C528.23,178.75,563,173,574.08,204.39Z" transform="translate(-489.56 -83.9)"/><path class="cls-2" d="M544.44,193.45c-8,.41-3.6,11.3,2.27,7.41S545.93,192.79,544.44,193.45Z" transform="translate(-489.56 -83.9)"/><path class="cls-3" d="M543.34,194.49c-4,.2-1.8,5.65,1.14,3.7S544.08,194.15,543.34,194.49Z" transform="translate(-489.56 -83.9)"/><path class="cls-1" d="M613,206.2c-3.07-23.27,34-50,43-36.35-3.87,9.71-21.79,7.87-20.42,39.6.13,2.94-17.81,15.8-18.83,13.18C613.14,213.35,613.79,212.19,613,206.2Z" transform="translate(-489.56 -83.9)"/><path class="cls-1" d="M559.71,262.24c-22.33-7.93-56.6,22.27-45.06,33.86,10.42-1.68,12.42-19.4,43.45-11.32,2.87.75,19.39-13.86,17-15.4C566.73,263.9,565.45,264.28,559.71,262.24Z" transform="translate(-489.56 -83.9)"/><path class="cls-1" d="M674.72,256.08c22.33-7.93,58.24,13.19,45.06,33.86-6.16-5.9-17.66-26.85-48.69-18.77-2.88.75-14.15-6.4-11.79-7.95C667.7,257.74,669,258.12,674.72,256.08Z" transform="translate(-489.56 -83.9)"/><path class="cls-1" d="M608.53,340.32c-1.29,23.44,29.43,51.45,45.67,33-7.47-4.15-31-9.06-32.1-40.8-.1-2.94-10.24-11.58-11.06-8.9C608.13,333.19,608.86,334.29,608.53,340.32Z" transform="translate(-489.56 -83.9)"/><path class="cls-4" d="M578.39,333.77c15.91,17.47,75.4,29.5,93.22,8.61,14.44-16.93,25.67-49.64,18.09-74.78C656.2,156.47,487.38,233.88,578.39,333.77Z" transform="translate(-489.56 -83.9)"/><path class="cls-2" d="M526.9,208c.43-.13,7,.41,10-.89.25-.11,1.83-1,1.87-1.05,1.9,1.58-5.84,5.1-11.8,2.51C526.88,208.5,526.88,208,526.9,208Z" transform="translate(-489.56 -83.9)"/><path class="cls-5" d="M569.93,238.61c1.26.24,7.78-7.08,13.4-9.18,2.37-.89,25.1-11.48,24.92-7.35-.31,7.23,8.07,35.17,3.22,38.57-3.6,2.53-5.39,4.77-6.5,5.51C600.76,269,575.25,245.73,569.93,238.61Z" transform="translate(-489.56 -83.9)"/><path class="cls-5" d="M613.7,224c-1.35,4.52.41,37.35,9.76,37.23,19.88-.24,8.32,16.76,25.1-25.27,5.63-14.1,1.66-9.45-18.72-16.05C625.59,218.52,615.8,216.88,613.7,224Z" transform="translate(-489.56 -83.9)"/><path class="cls-5" d="M580.74,330.76c1.26-.24,7.78,7.08,13.4,9.19,2.37.89,25.09,11.47,24.92,7.34-.32-7.22,8.06-35.17,3.22-38.57-3.6-2.52-5.4-4.77-6.5-5.51C611.57,300.36,586.06,323.64,580.74,330.76Z" transform="translate(-489.56 -83.9)"/><path class="cls-5" d="M624.5,345.4c-1.34-4.53.41-37.36,9.77-37.24,19.87.24,8.32-16.76,25.1,25.27,5.63,14.1,1.66,9.45-18.72,16.05C636.4,350.85,626.61,352.49,624.5,345.4Z" transform="translate(-489.56 -83.9)"/><path class="cls-5" d="M557.55,290.22c1.18.49,2.51,10.16,6,15,1.48,2,14.47,23.31,16.63,19.78,3.79-6.19,26.41-24.86,24.28-30.35-1.58-4.07-1.82-6.92-2.32-8.15C600.24,281.81,566,287.21,557.55,290.22Z" transform="translate(-489.56 -83.9)"/><path class="cls-5" d="M685.87,265.74c-.78,1,2.88,10.07,2.25,16-.27,2.5-1,27.35-4.61,25.33-6.38-3.53-35.36-8.73-36.24-14.55-.66-4.31-1.87-6.91-2-8.22C644.55,279.28,677.05,267.23,685.87,265.74Z" transform="translate(-489.56 -83.9)"/><path class="cls-5" d="M656.81,229.2c.09,1.27,8.88,5.69,12.35,10.54,1.46,2,17.5,21.18,13.42,22-7.14,1.51-32.39,16.53-36.93,12.74a27.06,27.06,0,0,0-3.43-2.54C638.38,268.67,651.18,236.08,656.81,229.2Z" transform="translate(-489.56 -83.9)"/><path class="cls-5" d="M685.22,309.66c-1.27.22-3,8.8-6.42,14.45-1.31,2.15-11.93,19.26-13.25,15.35-2.32-6.86-16.72-33.33-15.3-36.84,1.64-4,1.38-1.88,1.92-3.09C652.94,297.82,677.68,304.89,685.22,309.66Z" transform="translate(-489.56 -83.9)"/><path class="cls-5" d="M568.81,242.91c.47,1.19-6.06,13.46-9.1,19.33-1.16,2.23-5,23.23-1,22.29,7.12-1.65,37.44-3.43,39.71-6.47,2.62-3.5.9-2.14,1.65-3.23C601.19,273.27,576.88,246.76,568.81,242.91Z" transform="translate(-489.56 -83.9)"/><path class="cls-5" d="M606.29,271.31c.17-.29,8.56-8.31,8.86-8.31,4,0,12.43,4,18.91,4.54.58,0,5.57,6.87,6.3,7.94,1.35,2,1.4,1.33.32,3.93-2.9,7,4,15.66,2.54,16.88-2.68,2.22-7.32,6.28-10.7,7.47-2.4.84-.34,1.78-4.74-.54-1.21-.64-11.85-4.8-13.06-4.8,0,0-3-4.55-3.73-6.11-1.22-2.67-2.73-6.68-4.72-8.81C606,283.15,606,271.86,606.29,271.31Z" transform="translate(-489.56 -83.9)"/><path class="cls-1" d="M498,126.39c5.83,6.16-4.36,14.22-7.94,6.16-2.43-5.49,4.53-9.76,7.94-6.16Zm25.45-41.16c5.83,6.16-4.36,14.22-7.94,6.16-2.43-5.5,4.53-9.77,7.94-6.16Zm-.7.85c-2.7-2.85-8.21.53-6.28,4.88,2.84,6.38,10.9,0,6.28-4.88Zm-3.23,84.72c5.83,6.16-4.36,14.22-7.94,6.16-2.43-5.49,4.53-9.76,7.94-6.16Zm-.7.86c-2.7-2.85-8.21.53-6.28,4.87,2.83,6.38,10.9,0,6.28-4.87Zm-.72-16.43c-3.41-3.61-10.38.66-7.94,6.15,3.58,8.07,13.77,0,7.94-6.15Zm-.7.85c-2.7-2.85-8.21.53-6.28,4.88,2.83,6.38,10.9,0,6.28-4.88Zm15.82-49.49c8.7,9.18-6.5,21.21-11.84,9.18-3.63-8.19,6.75-14.55,11.84-9.18Zm-1,1.28c-4-4.25-12.24.78-9.37,7.27,4.23,9.51,16.26,0,9.37-7.27ZM512.87,101c-3.41-3.6-10.38.67-7.94,6.16,3.58,8.06,13.77,0,7.94-6.16Zm-.7.86c-2.7-2.85-8.21.52-6.28,4.87,2.83,6.38,10.9,0,6.28-4.87Zm-10.87,7c-3.41-3.6-10.37.66-7.93,6.16,3.58,8.06,13.77,0,7.93-6.16Zm-.69.86c4.61,4.87-3.45,11.25-6.28,4.87-1.93-4.35,3.58-7.73,6.28-4.87Zm24.76,26.93c5.83,6.16-4.36,14.22-7.94,6.16-2.44-5.5,4.53-9.77,7.94-6.16Zm-.7.85c-2.7-2.85-8.21.53-6.28,4.88,2.83,6.38,10.9,0,6.28-4.88Zm-6.78-19.1c-5.09-5.37-15.47,1-11.84,9.19,5.34,12,20.53,0,11.84-9.19Zm-1,1.28c-4-4.25-12.25.79-9.37,7.27,4.22,9.51,16.25,0,9.37-7.27Zm-5.48,18.66c-5.08-5.37-15.47,1-11.83,9.18,5.34,12,20.53,0,11.83-9.18Zm-1,1.28c-4-4.25-12.25.78-9.37,7.27,4.22,9.51,16.25,0,9.37-7.27Zm-13-12.28c-2.71-2.85-8.22.53-6.29,4.87C493.86,138.5,501.92,132.12,497.31,127.25Z" transform="translate(-489.56 -83.9)"/></svg>