<svg xmlns="http://www.w3.org/2000/svg" width="1680.061" height="290.309" viewBox="0 0 1680.061 290.309"><defs><style>.wavesa{fill:#b0e3e5;fill-rule:evenodd;}</style></defs><path class="wavesa" d="M1680.561,411.408c-94.555,29.343-175.531-23.335-227.365,12.017-17.887,12.2-30.585,36.552-53.664,36.607-61.253.14-64.214-47.417-137.89,2.76-34.032.725-45.54-57.633-140.36-.69-28.349.23-41.007-38.216-85.044-38.676-30.275,6.446-42.382,19.8-63.574,29.7-87.324-33.06-51.071-42.863-144.493,2.072-36.052-2.992-41.559-33.61-78.439-31.771l-64.4,30.388c-67.652-28.62-41.066-48.906-116.006-3.8-74.793-28.5-42.157-41.137-122.2,1.036l-73.071-27.626c-19.542,0-46.1,25.554-65.639,25.554-112.2-48.565-202.6-24.926-307.918-65.1V674.192H1680.561Z" transform="translate(-0.5 -383.883)"/></svg>